font.ufo
<glyph name="numbersign" format="2">
	<unicode hex="0023"/>
	<advance width="545"/>
	<outline>
		<contour>
			<point x="101" y="0" type="line"/>
			<point x="139" y="0" type="line"/>
			<point x="238" y="645" type="line"/>
			<point x="200" y="645" type="line"/>
		</contour>
		<contour>
			<point x="21" y="252" type="line"/>
			<point x="21" y="182" type="line"/>
			<point x="490" y="182" type="line"/>
			<point x="490" y="252" type="line"/>
		</contour>
		<contour>
			<point x="524" y="395" type="line"/>
			<point x="524" y="466" type="line"/>
			<point x="53" y="466" type="line"/>
			<point x="53" y="395" type="line"/>
		</contour>
		<contour>
			<point x="310" y="0" type="line"/>
			<point x="346" y="0" type="line"/>
			<point x="445" y="645" type="line"/>
			<point x="409" y="645" type="line"/>
		</contour>
	</outline>
</glyph>
<glyph name="dollar" format="2">
	<unicode hex="0024"/>
	<advance width="488"/>
	<outline>
		<contour>
			<point x="228" y="-13" type="curve" smooth="yes"/>
			<point x="366" y="-13"/>
			<point x="445" y="61"/>
			<point x="445" y="175" type="curve" smooth="yes"/>
			<point x="445" y="283"/>
			<point x="369" y="329"/>
			<point x="271" y="371" type="curve" smooth="yes"/>
			<point x="237" y="387" type="line" smooth="yes"/>
			<point x="177" y="413"/>
			<point x="139" y="445"/>
			<point x="139" y="508" type="curve" smooth="yes"/>
			<point x="139" y="595"/>
			<point x="191" y="629"/>
			<point x="262" y="629" type="curve" smooth="yes"/>
			<point x="295" y="629"/>
			<point x="324" y="623"/>
			<point x="364" y="601" type="curve"/>
			<point x="316" y="637" type="line"/>
			<point x="336" y="550" type="line" smooth="yes"/>
			<point x="346" y="497"/>
			<point x="365" y="481"/>
			<point x="391" y="481" type="curve" smooth="yes"/>
			<point x="414" y="481"/>
			<point x="428" y="492"/>
			<point x="436" y="514" type="curve"/>
			<point x="425" y="596"/>
			<point x="354" y="653"/>
			<point x="255" y="653" type="curve" smooth="yes"/>
			<point x="138" y="653"/>
			<point x="55" y="584"/>
			<point x="55" y="471" type="curve" smooth="yes"/>
			<point x="55" y="372"/>
			<point x="125" y="324"/>
			<point x="213" y="286" type="curve" smooth="yes"/>
			<point x="247" y="271" type="line" smooth="yes"/>
			<point x="311" y="243"/>
			<point x="357" y="211"/>
			<point x="357" y="141" type="curve" smooth="yes"/>
			<point x="357" y="49"/>
			<point x="306" y="10"/>
			<point x="226" y="10" type="curve" smooth="yes"/>
			<point x="185" y="10"/>
			<point x="150" y="19"/>
			<point x="112" y="41" type="curve"/>
			<point x="161" y="6" type="line"/>
			<point x="144" y="89" type="line" smooth="yes"/>
			<point x="134" y="141"/>
			<point x="114" y="158"/>
			<point x="88" y="158" type="curve" smooth="yes"/>
			<point x="65" y="158"/>
			<point x="51" y="146"/>
			<point x="43" y="125" type="curve"/>
			<point x="52" y="35"/>
			<point x="122" y="-13"/>
		</contour>
		<contour>
			<point x="231" y="-116" type="line"/>
			<point x="257" y="-116" type="line"/>
			<point x="257" y="317" type="line"/>
			<point x="231" y="317" type="line"/>
		</contour>
		<contour>
			<point x="236" y="317" type="line"/>
			<point x="262" y="317" type="line"/>
			<point x="262" y="742" type="line"/>
			<point x="236" y="742" type="line"/>
		</contour>
	</outline>
</glyph>
<glyph name="ampersand" format="2">
	<unicode hex="0026"/>
	<advance width="676"/>
	<outline>
		<contour>
			<point x="220" y="-13" type="curve" smooth="yes"/>
			<point x="332" y="-13"/>
			<point x="390" y="47"/>
			<point x="426" y="105" type="curve"/>
			<point x="416" y="108" type="line"/>
			<point x="403" y="113" type="line"/>
			<point x="373" y="66"/>
			<point x="321" y="46"/>
			<point x="262" y="46" type="curve" smooth="yes"/>
			<point x="175" y="46"/>
			<point x="121" y="111"/>
			<point x="121" y="195" type="curve" smooth="yes"/>
			<point x="121" y="251"/>
			<point x="144" y="316"/>
			<point x="211" y="356" type="curve"/>
			<point x="205" y="361" type="line"/>
			<point x="199" y="365" type="line"/>
			<point x="82" y="314"/>
			<point x="23" y="255"/>
			<point x="23" y="158" type="curve" smooth="yes"/>
			<point x="23" y="65"/>
			<point x="97" y="-13"/>
		</contour>
		<contour>
			<point x="445" y="115" type="line"/>
			<point x="504" y="200"/>
			<point x="537" y="286"/>
			<point x="562" y="399" type="curve"/>
			<point x="527" y="399" type="line"/>
			<point x="508" y="295"/>
			<point x="482" y="219"/>
			<point x="431" y="138" type="curve"/>
			<point x="424" y="138" type="line"/>
		</contour>
		<contour>
			<point x="532" y="391" type="line"/>
			<point x="554" y="391" type="line"/>
			<point x="638" y="403" type="line"/>
			<point x="638" y="421" type="line"/>
			<point x="443" y="421" type="line"/>
			<point x="443" y="403" type="line"/>
		</contour>
		<contour>
			<point x="553" y="-13" type="curve" smooth="yes"/>
			<point x="580" y="-13"/>
			<point x="607" y="-9"/>
			<point x="642" y="0" type="curve"/>
			<point x="642" y="17" type="line"/>
			<point x="511" y="37" type="line"/>
			<point x="589" y="12" type="line"/>
			<point x="499" y="115"/>
			<point x="428" y="198"/>
			<point x="349" y="291" type="curve" smooth="yes"/>
			<point x="280" y="373"/>
			<point x="254" y="405"/>
			<point x="225" y="443" type="curve" smooth="yes"/>
			<point x="194" y="487"/>
			<point x="187" y="524"/>
			<point x="187" y="557" type="curve" smooth="yes"/>
			<point x="187" y="617"/>
			<point x="220" y="656"/>
			<point x="263" y="656" type="curve" smooth="yes"/>
			<point x="309" y="656"/>
			<point x="339" y="618"/>
			<point x="339" y="555" type="curve" smooth="yes"/>
			<point x="339" y="495"/>
			<point x="303" y="440"/>
			<point x="246" y="391" type="curve"/>
			<point x="251" y="383" type="line"/>
			<point x="256" y="376" type="line"/>
			<point x="365" y="430"/>
			<point x="416" y="477"/>
			<point x="416" y="551" type="curve" smooth="yes"/>
			<point x="416" y="626"/>
			<point x="364" y="680"/>
			<point x="266" y="680" type="curve" smooth="yes"/>
			<point x="169" y="680"/>
			<point x="101" y="615"/>
			<point x="101" y="526" type="curve" smooth="yes"/>
			<point x="101" y="475"/>
			<point x="118" y="426"/>
			<point x="163" y="369" type="curve" smooth="yes"/>
			<point x="197" y="326"/>
			<point x="231" y="285"/>
			<point x="290" y="209" type="curve" smooth="yes"/>
			<point x="333" y="154"/>
			<point x="380" y="97"/>
			<point x="438" y="35" type="curve" smooth="yes"/>
			<point x="474" y="-2"/>
			<point x="501" y="-13"/>
		</contour>
	</outline>
</glyph>
<glyph name="parenleft" format="2">
	<unicode hex="0028"/>
	<advance width="338"/>
	<outline>
		<contour>
			<point x="165" y="276" type="curve" smooth="yes"/>
			<point x="165" y="444"/>
			<point x="214" y="593"/>
			<point x="308" y="725" type="curve"/>
			<point x="295" y="735" type="line"/>
			<point x="161" y="609"/>
			<point x="81" y="453"/>
			<point x="81" y="276" type="curve" smooth="yes"/>
			<point x="81" y="99"/>
			<point x="161" y="-57"/>
			<point x="295" y="-183" type="curve"/>
			<point x="308" y="-173" type="line"/>
			<point x="214" y="-41"/>
			<point x="165" y="108"/>
		</contour>
	</outline>
</glyph>
<glyph name="asterisk" format="2">
	<unicode hex="002A"/>
	<advance width="421"/>
	<outline>
		<contour>
			<point x="206" y="546" type="line"/>
			<point x="215" y="546" type="line"/>
			<point x="229" y="598" type="line" smooth="yes"/>
			<point x="240" y="641"/>
			<point x="249" y="681"/>
			<point x="249" y="702" type="curve" smooth="yes"/>
			<point x="249" y="727"/>
			<point x="236" y="742"/>
			<point x="211" y="742" type="curve" smooth="yes"/>
			<point x="185" y="742"/>
			<point x="173" y="727"/>
			<point x="173" y="702" type="curve" smooth="yes"/>
			<point x="173" y="681"/>
			<point x="182" y="641"/>
			<point x="193" y="598" type="curve" smooth="yes"/>
		</contour>
		<contour>
			<point x="209" y="541" type="line"/>
			<point x="212" y="551" type="line"/>
			<point x="167" y="579" type="line" smooth="yes"/>
			<point x="130" y="604"/>
			<point x="94" y="625"/>
			<point x="74" y="630" type="curve" smooth="yes"/>
			<point x="51" y="638"/>
			<point x="32" y="631"/>
			<point x="24" y="606" type="curve" smooth="yes"/>
			<point x="17" y="583"/>
			<point x="27" y="566"/>
			<point x="51" y="558" type="curve" smooth="yes"/>
			<point x="70" y="552"/>
			<point x="111" y="547"/>
			<point x="156" y="545" type="curve" smooth="yes"/>
		</contour>
		<contour>
			<point x="214" y="543" type="line"/>
			<point x="207" y="549" type="line"/>
			<point x="165" y="514" type="line" smooth="yes"/>
			<point x="131" y="486"/>
			<point x="101" y="459"/>
			<point x="89" y="442" type="curve" smooth="yes"/>
			<point x="74" y="422"/>
			<point x="75" y="402"/>
			<point x="95" y="388" type="curve" smooth="yes"/>
			<point x="116" y="372"/>
			<point x="135" y="378"/>
			<point x="150" y="398" type="curve" smooth="yes"/>
			<point x="162" y="415"/>
			<point x="179" y="453"/>
			<point x="195" y="494" type="curve" smooth="yes"/>
		</contour>
		<contour>
			<point x="214" y="549" type="line"/>
			<point x="207" y="543" type="line"/>
			<point x="227" y="494" type="line" smooth="yes"/>
			<point x="243" y="452"/>
			<point x="260" y="414"/>
			<point x="271" y="398" type="curve" smooth="yes"/>
			<point x="286" y="378"/>
			<point x="305" y="372"/>
			<point x="326" y="388" type="curve" smooth="yes"/>
			<point x="346" y="402"/>
			<point x="348" y="422"/>
			<point x="333" y="442" type="curve" smooth="yes"/>
			<point x="321" y="459"/>
			<point x="290" y="486"/>
			<point x="256" y="514" type="curve" smooth="yes"/>
		</contour>
		<contour>
			<point x="209" y="551" type="line"/>
			<point x="212" y="541" type="line"/>
			<point x="266" y="545" type="line" smooth="yes"/>
			<point x="310" y="547"/>
			<point x="352" y="552"/>
			<point x="371" y="558" type="curve" smooth="yes"/>
			<point x="394" y="566"/>
			<point x="405" y="583"/>
			<point x="398" y="606" type="curve" smooth="yes"/>
			<point x="389" y="631"/>
			<point x="371" y="638"/>
			<point x="347" y="630" type="curve" smooth="yes"/>
			<point x="327" y="624"/>
			<point x="292" y="603"/>
			<point x="254" y="579" type="curve" smooth="yes"/>
		</contour>
	</outline>
</glyph>
<glyph name="comma" format="2">
	<unicode hex="002C"/>
	<advance width="259"/>
	<outline>
		<contour>
			<point x="66" y="-142" type="line"/>
			<point x="134" y="-114"/>
			<point x="193" y="-56"/>
			<point x="193" y="37" type="curve" smooth="yes"/>
			<point x="193" y="58"/>
			<point x="190" y="77"/>
			<point x="183" y="99" type="curve"/>
			<point x="163" y="116"/>
			<point x="148" y="118"/>
			<point x="130" y="118" type="curve" smooth="yes"/>
			<point x="93" y="118"/>
			<point x="67" y="93"/>
			<point x="67" y="57" type="curve" smooth="yes"/>
			<point x="67" y="37"/>
			<point x="78" y="15"/>
			<point x="105" y="-1" type="curve" smooth="yes"/>
			<point x="156" y="-31" type="line"/>
			<point x="154" y="-6" type="line"/>
			<point x="130" y="-68"/>
			<point x="110" y="-90"/>
			<point x="55" y="-122" type="curve"/>
		</contour>
	</outline>
</glyph>
<glyph name="period" format="2">
	<unicode hex="002E"/>
	<advance width="259"/>
	<outline>
		<contour>
			<point x="130" y="-9" type="curve" smooth="yes"/>
			<point x="165" y="-9"/>
			<point x="193" y="18"/>
			<point x="193" y="55" type="curve" smooth="yes"/>
			<point x="193" y="91"/>
			<point x="165" y="118"/>
			<point x="130" y="118" type="curve" smooth="yes"/>
			<point x="95" y="118"/>
			<point x="66" y="91"/>
			<point x="66" y="55" type="curve" smooth="yes"/>
			<point x="66" y="18"/>
			<point x="95" y="-9"/>
		</contour>
	</outline>
</glyph>
<glyph name="zero" format="2">
	<unicode hex="0030"/>
	<advance width="488"/>
	<outline>
		<contour>
			<point x="244" y="-13" type="curve" smooth="yes"/>
			<point x="355" y="-13"/>
			<point x="452" y="80"/>
			<point x="452" y="320" type="curve" smooth="yes"/>
			<point x="452" y="560"/>
			<point x="355" y="653"/>
			<point x="244" y="653" type="curve" smooth="yes"/>
			<point x="133" y="653"/>
			<point x="36" y="560"/>
			<point x="36" y="320" type="curve" smooth="yes"/>
			<point x="36" y="80"/>
			<point x="133" y="-13"/>
		</contour>
		<contour>
			<point x="244" y="10" type="curve" smooth="yes"/>
			<point x="190" y="10"/>
			<point x="142" y="71"/>
			<point x="142" y="320" type="curve" smooth="yes"/>
			<point x="142" y="569"/>
			<point x="190" y="629"/>
			<point x="244" y="629" type="curve" smooth="yes"/>
			<point x="297" y="629"/>
			<point x="345" y="569"/>
			<point x="345" y="320" type="curve" smooth="yes"/>
			<point x="345" y="71"/>
			<point x="297" y="10"/>
		</contour>
	</outline>
</glyph>
<glyph name="less" format="2">
	<unicode hex="003C"/>
	<advance width="504"/>
	<outline>
		<contour>
			<point x="53" y="316" type="line"/>
			<point x="435" y="86" type="line"/>
			<point x="452" y="120" type="line"/>
			<point x="85" y="339" type="line"/>
			<point x="85" y="316" type="line"/>
			<point x="452" y="530" type="line"/>
			<point x="435" y="564" type="line"/>
			<point x="53" y="339" type="line"/>
		</contour>
	</outline>
</glyph>
<glyph name="at" format="2">
	<unicode hex="0040"/>
	<advance width="847"/>
	<outline>
		<contour>
			<point x="320" y="44" type="curve" smooth="yes"/>
			<point x="386" y="44"/>
			<point x="440" y="101"/>
			<point x="493" y="181" type="curve"/>
			<point x="490" y="187" type="line"/>
			<point x="487" y="193" type="line"/>
			<point x="428" y="123"/>
			<point x="389" y="102"/>
			<point x="358" y="102" type="curve" smooth="yes"/>
			<point x="324" y="102"/>
			<point x="311" y="130"/>
			<point x="311" y="179" type="curve" smooth="yes"/>
			<point x="311" y="277"/>
			<point x="374" y="432"/>
			<point x="461" y="432" type="curve" smooth="yes"/>
			<point x="498" y="432"/>
			<point x="519" y="410"/>
			<point x="534" y="387" type="curve"/>
			<point x="577" y="422" type="line"/>
			<point x="553" y="459"/>
			<point x="523" y="478"/>
			<point x="481" y="478" type="curve" smooth="yes"/>
			<point x="366" y="478"/>
			<point x="225" y="300"/>
			<point x="225" y="156" type="curve" smooth="yes"/>
			<point x="225" y="76"/>
			<point x="272" y="44"/>
		</contour>
		<contour>
			<point x="574" y="44" type="curve" smooth="yes"/>
			<point x="673" y="44"/>
			<point x="812" y="140"/>
			<point x="812" y="335" type="curve" smooth="yes"/>
			<point x="812" y="517"/>
			<point x="692" y="657"/>
			<point x="481" y="657" type="curve" smooth="yes"/>
			<point x="218" y="657"/>
			<point x="35" y="442"/>
			<point x="35" y="206" type="curve" smooth="yes"/>
			<point x="35" y="-26"/>
			<point x="179" y="-155"/>
			<point x="389" y="-155" type="curve" smooth="yes"/>
			<point x="456" y="-155"/>
			<point x="523" y="-137"/>
			<point x="578" y="-107" type="curve"/>
			<point x="572" y="-93" type="line"/>
			<point x="510" y="-120"/>
			<point x="453" y="-131"/>
			<point x="389" y="-131" type="curve" smooth="yes"/>
			<point x="216" y="-131"/>
			<point x="85" y="-16"/>
			<point x="85" y="206" type="curve" smooth="yes"/>
			<point x="85" y="429"/>
			<point x="236" y="633"/>
			<point x="478" y="633" type="curve" smooth="yes"/>
			<point x="650" y="633"/>
			<point x="762" y="519"/>
			<point x="762" y="335" type="curve" smooth="yes"/>
			<point x="762" y="161"/>
			<point x="666" y="75"/>
			<point x="599" y="75" type="curve" smooth="yes"/>
			<point x="555" y="75"/>
			<point x="532" y="105"/>
			<point x="548" y="183" type="curve" smooth="yes"/>
			<point x="608" y="474" type="line"/>
			<point x="600" y="483" type="line"/>
			<point x="519" y="431" type="line"/>
			<point x="463" y="158" type="line"/>
			<point x="467" y="152" type="line"/>
			<point x="460" y="94"/>
			<point x="497" y="44"/>
		</contour>
	</outline>
</glyph>
<glyph name="D" format="2">
	<unicode hex="0044"/>
	<advance width="638"/>
	<outline>
		<contour>
			<point x="34" y="0" type="line"/>
			<point x="162" y="0" type="line"/>
			<point x="162" y="32" type="line"/>
			<point x="138" y="32" type="line"/>
			<point x="34" y="19" type="line"/>
		</contour>
		<contour>
			<point x="107" y="0" type="curve"/>
			<point x="219" y="0" type="line"/>
			<point x="215" y="79"/>
			<point x="214" y="208"/>
			<point x="214" y="313" type="curve" smooth="yes"/>
			<point x="214" y="357" type="line" smooth="yes"/>
			<point x="214" y="459"/>
			<point x="215" y="585"/>
			<point x="219" y="664" type="curve"/>
			<point x="107" y="664" type="line"/>
			<point x="111" y="585"/>
			<point x="111" y="459"/>
			<point x="111" y="357" type="curve" smooth="yes"/>
			<point x="111" y="313" type="line" smooth="yes"/>
			<point x="111" y="208"/>
			<point x="111" y="79"/>
		</contour>
		<contour>
			<point x="175" y="0" type="line"/>
			<point x="281" y="0" type="line" smooth="yes"/>
			<point x="465" y="0"/>
			<point x="596" y="121"/>
			<point x="596" y="334" type="curve" smooth="yes"/>
			<point x="596" y="544"/>
			<point x="478" y="664"/>
			<point x="284" y="664" type="curve" smooth="yes"/>
			<point x="175" y="664" type="line"/>
			<point x="175" y="639" type="line"/>
			<point x="276" y="639" type="line" smooth="yes"/>
			<point x="410" y="639"/>
			<point x="484" y="537"/>
			<point x="484" y="332" type="curve" smooth="yes"/>
			<point x="484" y="146"/>
			<point x="409" y="25"/>
			<point x="270" y="25" type="curve" smooth="yes"/>
			<point x="175" y="25" type="line"/>
		</contour>
		<contour>
			<point x="34" y="645" type="line"/>
			<point x="138" y="632" type="line"/>
			<point x="162" y="632" type="line"/>
			<point x="162" y="664" type="line"/>
			<point x="34" y="664" type="line"/>
		</contour>
	</outline>
	<anchor name="aboveUC" x="309" y="684"/>
	<anchor name="belowLC" x="308" y="-20"/>
</glyph>
<glyph name="F" format="2">
	<unicode hex="0046"/>
	<advance width="508"/>
	<outline>
		<contour>
			<point x="34" y="0" type="line"/>
			<point x="304" y="0" type="line"/>
			<point x="304" y="19" type="line"/>
			<point x="186" y="32" type="line"/>
			<point x="138" y="32" type="line"/>
			<point x="34" y="19" type="line"/>
		</contour>
		<contour>
			<point x="107" y="0" type="curve"/>
			<point x="219" y="0" type="line"/>
			<point x="215" y="79"/>
			<point x="214" y="208"/>
			<point x="214" y="313" type="curve" smooth="yes"/>
			<point x="214" y="357" type="line" smooth="yes"/>
			<point x="214" y="459"/>
			<point x="215" y="585"/>
			<point x="219" y="664" type="curve"/>
			<point x="107" y="664" type="line"/>
			<point x="111" y="585"/>
			<point x="111" y="459"/>
			<point x="111" y="357" type="curve" smooth="yes"/>
			<point x="111" y="313" type="line" smooth="yes"/>
			<point x="111" y="208"/>
			<point x="111" y="79"/>
		</contour>
		<contour>
			<point x="164" y="326" type="line"/>
			<point x="340" y="326" type="line"/>
			<point x="340" y="352" type="line"/>
			<point x="164" y="352" type="line"/>
		</contour>
		<contour>
			<point x="359" y="228" type="line"/>
			<point x="377" y="228" type="line"/>
			<point x="377" y="449" type="line"/>
			<point x="359" y="449" type="line"/>
			<point x="326" y="348" type="line"/>
			<point x="326" y="329" type="line"/>
		</contour>
		<contour>
			<point x="34" y="645" type="line"/>
			<point x="138" y="632" type="line"/>
			<point x="186" y="632" type="line"/>
			<point x="186" y="664" type="line"/>
			<point x="34" y="664" type="line"/>
		</contour>
		<contour>
			<point x="463" y="486" type="line"/>
			<point x="481" y="486" type="line"/>
			<point x="469" y="664" type="line"/>
			<point x="155" y="664" type="line"/>
			<point x="155" y="639" type="line"/>
			<point x="431" y="639" type="line"/>
			<point x="394" y="652" type="line"/>
		</contour>
	</outline>
	<anchor name="aboveUC" x="285" y="684"/>
	<anchor name="belowLC" x="162" y="-20"/>
</glyph>
<glyph name="L" format="2">
	<unicode hex="004C"/>
	<advance width="516"/>
	<outline>
		<contour>
			<point x="34" y="0" type="line"/>
			<point x="186" y="0" type="line"/>
			<point x="186" y="32" type="line"/>
			<point x="138" y="32" type="line"/>
			<point x="34" y="19" type="line"/>
		</contour>
		<contour>
			<point x="107" y="0" type="curve"/>
			<point x="219" y="0" type="line"/>
			<point x="215" y="79"/>
			<point x="214" y="208"/>
			<point x="214" y="313" type="curve" smooth="yes"/>
			<point x="214" y="357" type="line" smooth="yes"/>
			<point x="214" y="459"/>
			<point x="215" y="585"/>
			<point x="219" y="664" type="curve"/>
			<point x="107" y="664" type="line"/>
			<point x="111" y="585"/>
			<point x="111" y="459"/>
			<point x="111" y="357" type="curve" smooth="yes"/>
			<point x="111" y="313" type="line" smooth="yes"/>
			<point x="111" y="208"/>
			<point x="111" y="79"/>
		</contour>
		<contour>
			<point x="164" y="0" type="line"/>
			<point x="480" y="0" type="line"/>
			<point x="492" y="195" type="line"/>
			<point x="473" y="195" type="line"/>
			<point x="405" y="12" type="line"/>
			<point x="442" y="25" type="line"/>
			<point x="164" y="25" type="line"/>
		</contour>
		<contour>
			<point x="34" y="645" type="line"/>
			<point x="138" y="632" type="line"/>
			<point x="187" y="632" type="line"/>
			<point x="291" y="645" type="line"/>
			<point x="291" y="664" type="line"/>
			<point x="34" y="664" type="line"/>
		</contour>
	</outline>
	<anchor name="aboveUC" x="170" y="684"/>
	<anchor name="belowLC" x="275" y="-20"/>
</glyph>
<glyph name="M" format="2">
	<unicode hex="004D"/>
	<advance width="809"/>
	<outline>
		<contour>
			<point x="34" y="0" type="line"/>
			<point x="221" y="0" type="line"/>
			<point x="221" y="19" type="line"/>
			<point x="136" y="29" type="line"/>
			<point x="118" y="29" type="line"/>
			<point x="34" y="19" type="line"/>
		</contour>
		<contour>
			<point x="34" y="645" type="line"/>
			<point x="137" y="632" type="line"/>
			<point x="140" y="632" type="line"/>
			<point x="140" y="664" type="line"/>
			<point x="34" y="664" type="line"/>
		</contour>
		<contour>
			<point x="112" y="0" type="line"/>
			<point x="141" y="0" type="line"/>
			<point x="141" y="353" type="line"/>
			<point x="141" y="649" type="line"/>
			<point x="112" y="649" type="line"/>
		</contour>
		<contour>
			<point x="349" y="0" type="line"/>
			<point x="386" y="0" type="line"/>
			<point x="598" y="603" type="line"/>
			<point x="602" y="612" type="line"/>
			<point x="608" y="612" type="line"/>
			<point x="608" y="664" type="line"/>
			<point x="590" y="664" type="line"/>
			<point x="401" y="133" type="line"/>
			<point x="398" y="123" type="line"/>
			<point x="415" y="123" type="line"/>
			<point x="224" y="664" type="line"/>
			<point x="121" y="664" type="line"/>
			<point x="121" y="596" type="line"/>
			<point x="137" y="596" type="line"/>
		</contour>
		<contour>
			<point x="522" y="0" type="line"/>
			<point x="774" y="0" type="line"/>
			<point x="774" y="19" type="line"/>
			<point x="670" y="32" type="line"/>
			<point x="621" y="32" type="line"/>
			<point x="522" y="19" type="line"/>
		</contour>
		<contour>
			<point x="589" y="0" type="curve"/>
			<point x="702" y="0" type="line"/>
			<point x="698" y="79"/>
			<point x="697" y="208"/>
			<point x="697" y="313" type="curve" smooth="yes"/>
			<point x="697" y="357" type="line" smooth="yes"/>
			<point x="697" y="459"/>
			<point x="698" y="585"/>
			<point x="702" y="664" type="curve"/>
			<point x="594" y="664" type="line"/>
			<point x="594" y="313" type="line" smooth="yes"/>
			<point x="594" y="208"/>
			<point x="593" y="79"/>
		</contour>
		<contour>
			<point x="621" y="632" type="line"/>
			<point x="670" y="632" type="line"/>
			<point x="774" y="645" type="line"/>
			<point x="774" y="664" type="line"/>
			<point x="621" y="664" type="line"/>
		</contour>
	</outline>
	<anchor name="aboveUC" x="404" y="684"/>
	<anchor name="belowLC" x="368" y="-20"/>
</glyph>
<glyph name="P" format="2">
	<unicode hex="0050"/>
	<advance width="531"/>
	<outline>
		<contour>
			<point x="34" y="0" type="line"/>
			<point x="304" y="0" type="line"/>
			<point x="304" y="19" type="line"/>
			<point x="189" y="32" type="line"/>
			<point x="138" y="32" type="line"/>
			<point x="34" y="19" type="line"/>
		</contour>
		<contour>
			<point x="107" y="0" type="curve"/>
			<point x="219" y="0" type="line"/>
			<point x="215" y="79"/>
			<point x="214" y="208"/>
			<point x="214" y="313" type="curve" smooth="yes"/>
			<point x="214" y="357" type="line" smooth="yes"/>
			<point x="214" y="459"/>
			<point x="215" y="585"/>
			<point x="219" y="664" type="curve"/>
			<point x="107" y="664" type="line"/>
			<point x="111" y="585"/>
			<point x="111" y="459"/>
			<point x="111" y="357" type="curve" smooth="yes"/>
			<point x="111" y="313" type="line" smooth="yes"/>
			<point x="111" y="208"/>
			<point x="111" y="79"/>
		</contour>
		<contour>
			<point x="154" y="282" type="line"/>
			<point x="252" y="282" type="line" smooth="yes"/>
			<point x="441" y="282"/>
			<point x="508" y="375"/>
			<point x="508" y="481" type="curve" smooth="yes"/>
			<point x="508" y="593"/>
			<point x="433" y="664"/>
			<point x="269" y="664" type="curve" smooth="yes"/>
			<point x="154" y="664" type="line"/>
			<point x="154" y="639" type="line"/>
			<point x="257" y="639" type="line" smooth="yes"/>
			<point x="355" y="639"/>
			<point x="402" y="579"/>
			<point x="402" y="480" type="curve" smooth="yes"/>
			<point x="402" y="382"/>
			<point x="361" y="308"/>
			<point x="261" y="308" type="curve" smooth="yes"/>
			<point x="154" y="308" type="line"/>
		</contour>
		<contour>
			<point x="34" y="645" type="line"/>
			<point x="138" y="632" type="line"/>
			<point x="187" y="632" type="line"/>
			<point x="187" y="664" type="line"/>
			<point x="34" y="664" type="line"/>
		</contour>
	</outline>
	<anchor name="aboveUC" x="271" y="684"/>
	<anchor name="belowLC" x="165" y="-20"/>
</glyph>
<glyph name="Q" format="2">
	<unicode hex="0051"/>
	<advance width="643"/>
	<outline>
		<contour>
			<point x="460" y="-210" type="curve" smooth="yes"/>
			<point x="501" y="-210"/>
			<point x="548" y="-198"/>
			<point x="579" y="-169" type="curve"/>
			<point x="571" y="-153" type="line"/>
			<point x="544" y="-165"/>
			<point x="518" y="-167"/>
			<point x="498" y="-167" type="curve" smooth="yes"/>
			<point x="414" y="-167"/>
			<point x="357" y="-107"/>
			<point x="368" y="3" type="curve"/>
			<point x="272" y="5" type="line"/>
			<point x="272" y="-14" type="line" smooth="yes"/>
			<point x="272" y="-126"/>
			<point x="337" y="-210"/>
		</contour>
		<component base="O"/>
	</outline>
	<anchor name="aboveUC" x="321" y="684"/>
</glyph>
<glyph name="R" format="2">
	<unicode hex="0052"/>
	<advance width="623"/>
	<outline>
		<contour>
			<point x="34" y="0" type="line"/>
			<point x="291" y="0" type="line"/>
			<point x="291" y="19" type="line"/>
			<point x="189" y="32" type="line"/>
			<point x="138" y="32" type="line"/>
			<point x="34" y="19" type="line"/>
		</contour>
		<contour>
			<point x="107" y="0" type="curve"/>
			<point x="218" y="0" type="line"/>
			<point x="215" y="79"/>
			<point x="214" y="208"/>
			<point x="214" y="313" type="curve" smooth="yes"/>
			<point x="214" y="357" type="line" smooth="yes"/>
			<point x="214" y="459"/>
			<point x="215" y="585"/>
			<point x="218" y="664" type="curve"/>
			<point x="107" y="664" type="line"/>
			<point x="111" y="585"/>
			<point x="111" y="459"/>
			<point x="111" y="357" type="curve" smooth="yes"/>
			<point x="111" y="313" type="line" smooth="yes"/>
			<point x="111" y="208"/>
			<point x="111" y="79"/>
		</contour>
		<contour>
			<point x="535" y="-9" type="curve" smooth="yes"/>
			<point x="563" y="-9"/>
			<point x="591" y="-6"/>
			<point x="615" y="0" type="curve"/>
			<point x="615" y="19" type="line"/>
			<point x="511" y="31" type="line"/>
			<point x="554" y="15" type="line"/>
			<point x="475" y="195" type="line" smooth="yes"/>
			<point x="435" y="287"/>
			<point x="388" y="320"/>
			<point x="256" y="324" type="curve"/>
			<point x="256" y="317" type="line"/>
			<point x="429" y="317"/>
			<point x="511" y="405"/>
			<point x="511" y="496" type="curve" smooth="yes"/>
			<point x="511" y="603"/>
			<point x="431" y="664"/>
			<point x="283" y="664" type="curve" smooth="yes"/>
			<point x="156" y="664" type="line"/>
			<point x="156" y="639" type="line"/>
			<point x="278" y="639" type="line" smooth="yes"/>
			<point x="366" y="639"/>
			<point x="408" y="586"/>
			<point x="408" y="492" type="curve" smooth="yes"/>
			<point x="408" y="407"/>
			<point x="369" y="335"/>
			<point x="270" y="335" type="curve" smooth="yes"/>
			<point x="157" y="335" type="line"/>
			<point x="157" y="310" type="line"/>
			<point x="241" y="310" type="line" smooth="yes"/>
			<point x="309" y="310"/>
			<point x="331" y="281"/>
			<point x="359" y="210" type="curve" smooth="yes"/>
			<point x="416" y="67" type="line" smooth="yes"/>
			<point x="436" y="11"/>
			<point x="465" y="-9"/>
		</contour>
		<contour>
			<point x="34" y="645" type="line"/>
			<point x="138" y="632" type="line"/>
			<point x="187" y="632" type="line"/>
			<point x="187" y="664" type="line"/>
			<point x="34" y="664" type="line"/>
		</contour>
	</outline>
	<anchor name="aboveUC" x="292" y="684"/>
	<anchor name="belowLC" x="323" y="-20"/>
</glyph>
<glyph name="S" format="2">
	<unicode hex="0053"/>
	<advance width="481"/>
	<outline>
		<contour>
			<point x="218" y="-16" type="curve" smooth="yes"/>
			<point x="366" y="-16"/>
			<point x="440" y="62"/>
			<point x="440" y="177" type="curve" smooth="yes"/>
			<point x="440" y="289"/>
			<point x="362" y="333"/>
			<point x="283" y="372" type="curve" smooth="yes"/>
			<point x="251" y="389" type="line" smooth="yes"/>
			<point x="186" y="421"/>
			<point x="130" y="457"/>
			<point x="130" y="529" type="curve" smooth="yes"/>
			<point x="130" y="617"/>
			<point x="189" y="657"/>
			<point x="260" y="657" type="curve" smooth="yes"/>
			<point x="307" y="657"/>
			<point x="345" y="647"/>
			<point x="387" y="607" type="curve"/>
			<point x="385" y="634" type="line"/>
			<point x="335" y="654" type="line"/>
			<point x="388" y="485" type="line"/>
			<point x="407" y="485" type="line"/>
			<point x="411" y="632" type="line"/>
			<point x="374" y="661"/>
			<point x="323" y="680"/>
			<point x="257" y="680" type="curve" smooth="yes"/>
			<point x="134" y="680"/>
			<point x="50" y="609"/>
			<point x="50" y="497" type="curve" smooth="yes"/>
			<point x="50" y="387"/>
			<point x="126" y="340"/>
			<point x="202" y="302" type="curve" smooth="yes"/>
			<point x="235" y="286" type="line" smooth="yes"/>
			<point x="299" y="254"/>
			<point x="355" y="219"/>
			<point x="355" y="145" type="curve" smooth="yes"/>
			<point x="355" y="50"/>
			<point x="295" y="7"/>
			<point x="215" y="7" type="curve" smooth="yes"/>
			<point x="158" y="7"/>
			<point x="123" y="19"/>
			<point x="69" y="53" type="curve"/>
			<point x="71" y="39" type="line"/>
			<point x="116" y="12" type="line"/>
			<point x="66" y="189" type="line"/>
			<point x="47" y="189" type="line"/>
			<point x="39" y="36" type="line"/>
			<point x="87" y="5"/>
			<point x="149" y="-16"/>
		</contour>
	</outline>
	<anchor name="aboveUC" x="251" y="684"/>
	<anchor name="belowLC" x="225" y="-20"/>
	<anchor name="baseLC" x="225" y="0"/>
</glyph>
<glyph name="V" format="2">
	<unicode hex="0056"/>
	<advance width="612"/>
	<outline>
		<contour>
			<point x="282" y="-5" type="line"/>
			<point x="331" y="-5" type="line"/>
			<point x="544" y="664" type="line"/>
			<point x="512" y="664" type="line"/>
			<point x="341" y="108" type="line"/>
			<point x="338" y="99" type="line"/>
			<point x="350" y="99" type="line"/>
			<point x="179" y="664" type="line"/>
			<point x="66" y="664" type="line"/>
		</contour>
		<contour>
			<point x="12" y="645" type="line"/>
			<point x="94" y="632" type="line"/>
			<point x="158" y="632" type="line"/>
			<point x="269" y="645" type="line"/>
			<point x="269" y="664" type="line"/>
			<point x="12" y="664" type="line"/>
		</contour>
		<contour>
			<point x="419" y="645" type="line"/>
			<point x="507" y="635" type="line"/>
			<point x="526" y="635" type="line"/>
			<point x="600" y="645" type="line"/>
			<point x="600" y="664" type="line"/>
			<point x="419" y="664" type="line"/>
		</contour>
	</outline>
	<anchor name="aboveUC" x="335" y="684"/>
	<anchor name="belowLC" x="308" y="-20"/>
</glyph>
<glyph name="W" format="2">
	<unicode hex="0057"/>
	<advance width="893"/>
	<outline>
		<contour>
			<point x="238" y="-4" type="line"/>
			<point x="293" y="-4" type="line"/>
			<point x="450" y="551" type="line"/>
			<point x="454" y="565" type="line"/>
			<point x="435" y="565" type="line"/>
			<point x="590" y="-4" type="line"/>
			<point x="643" y="-4" type="line"/>
			<point x="823" y="664" type="line"/>
			<point x="791" y="664" type="line"/>
			<point x="653" y="132" type="line"/>
			<point x="649" y="114" type="line"/>
			<point x="667" y="114" type="line"/>
			<point x="518" y="664" type="line"/>
			<point x="453" y="664" type="line"/>
			<point x="301" y="131" type="line"/>
			<point x="296" y="114" type="line"/>
			<point x="314" y="114" type="line"/>
			<point x="179" y="664" type="line"/>
			<point x="67" y="664" type="line"/>
		</contour>
		<contour>
			<point x="12" y="645" type="line"/>
			<point x="104" y="632" type="line"/>
			<point x="151" y="632" type="line"/>
			<point x="270" y="645" type="line"/>
			<point x="270" y="664" type="line"/>
			<point x="12" y="664" type="line"/>
		</contour>
		<contour>
			<point x="365" y="645" type="line"/>
			<point x="448" y="634" type="line"/>
			<point x="496" y="632" type="line"/>
			<point x="604" y="645" type="line"/>
			<point x="604" y="664" type="line"/>
			<point x="365" y="664" type="line"/>
		</contour>
		<contour>
			<point x="697" y="645" type="line"/>
			<point x="789" y="635" type="line"/>
			<point x="806" y="635" type="line"/>
			<point x="881" y="645" type="line"/>
			<point x="881" y="664" type="line"/>
			<point x="697" y="664" type="line"/>
		</contour>
	</outline>
	<anchor name="aboveUC" x="475" y="684"/>
	<anchor name="belowLC" x="448" y="-20"/>
</glyph>
<glyph name="Y" format="2">
	<unicode hex="0059"/>
	<advance width="592"/>
	<outline>
		<contour>
			<point x="158" y="0" type="line"/>
			<point x="434" y="0" type="line"/>
			<point x="434" y="19" type="line"/>
			<point x="322" y="32" type="line"/>
			<point x="270" y="32" type="line"/>
			<point x="158" y="19" type="line"/>
		</contour>
		<contour>
			<point x="240" y="0" type="curve"/>
			<point x="351" y="0" type="line"/>
			<point x="348" y="104"/>
			<point x="348" y="171"/>
			<point x="348" y="295" type="curve"/>
			<point x="244" y="295" type="line"/>
			<point x="244" y="171"/>
			<point x="244" y="104"/>
		</contour>
		<contour>
			<point x="275" y="202" type="line"/>
			<point x="315" y="202" type="line"/>
			<point x="524" y="664" type="line"/>
			<point x="492" y="664" type="line"/>
			<point x="334" y="306" type="line"/>
			<point x="332" y="300" type="line"/>
			<point x="341" y="300" type="line"/>
			<point x="175" y="664" type="line"/>
			<point x="60" y="664" type="line"/>
		</contour>
		<contour>
			<point x="12" y="645" type="line"/>
			<point x="102" y="632" type="line"/>
			<point x="157" y="632" type="line"/>
			<point x="265" y="645" type="line"/>
			<point x="265" y="664" type="line"/>
			<point x="12" y="664" type="line"/>
		</contour>
		<contour>
			<point x="401" y="645" type="line"/>
			<point x="482" y="635" type="line"/>
			<point x="502" y="635" type="line"/>
			<point x="580" y="645" type="line"/>
			<point x="580" y="664" type="line"/>
			<point x="401" y="664" type="line"/>
		</contour>
	</outline>
	<anchor name="aboveUC" x="329" y="684"/>
	<anchor name="belowLC" x="294" y="-20"/>
</glyph>
<glyph name="asciicircum" format="2">
	<unicode hex="005E"/>
	<advance width="502"/>
	<outline>
		<contour>
			<point x="78" y="231" type="line"/>
			<point x="109" y="213" type="line"/>
			<point x="264" y="471" type="line"/>
			<point x="240" y="471" type="line"/>
			<point x="396" y="213" type="line"/>
			<point x="426" y="231" type="line"/>
			<point x="263" y="503" type="line"/>
			<point x="241" y="503" type="line"/>
		</contour>
	</outline>
</glyph>
<glyph name="underscore" format="2">
	<unicode hex="005F"/>
	<advance width="489"/>
	<outline>
		<contour>
			<point x="-5" y="-87" type="line"/>
			<point x="494" y="-87" type="line"/>
			<point x="494" y="-46" type="line"/>
			<point x="-5" y="-46" type="line"/>
		</contour>
	</outline>
</glyph>
<glyph name="a" format="2">
	<unicode hex="0061"/>
	<advance width="469"/>
	<outline>
		<contour>
			<point x="152" y="-13" type="curve" smooth="yes"/>
			<point x="206" y="-13"/>
			<point x="250" y="8"/>
			<point x="292" y="65" type="curve"/>
			<point x="322" y="65" type="line"/>
			<point x="314" y="104" type="line"/>
			<point x="263" y="54"/>
			<point x="238" y="45"/>
			<point x="200" y="45" type="curve" smooth="yes"/>
			<point x="160" y="45"/>
			<point x="130" y="68"/>
			<point x="130" y="123" type="curve" smooth="yes"/>
			<point x="130" y="167"/>
			<point x="150" y="203"/>
			<point x="218" y="233" type="curve" smooth="yes"/>
			<point x="238" y="242"/>
			<point x="279" y="255"/>
			<point x="339" y="273" type="curve"/>
			<point x="339" y="291" type="line"/>
			<point x="278" y="276"/>
			<point x="225" y="262"/>
			<point x="193" y="251" type="curve" smooth="yes"/>
			<point x="68" y="211"/>
			<point x="34" y="162"/>
			<point x="34" y="100" type="curve" smooth="yes"/>
			<point x="34" y="27"/>
			<point x="85" y="-13"/>
		</contour>
		<contour>
			<point x="374" y="-11" type="curve" smooth="yes"/>
			<point x="419" y="-11"/>
			<point x="447" y="14"/>
			<point x="462" y="50" type="curve"/>
			<point x="450" y="60" type="line"/>
			<point x="434" y="42"/>
			<point x="425" y="35"/>
			<point x="410" y="35" type="curve" smooth="yes"/>
			<point x="393" y="35"/>
			<point x="383" y="46"/>
			<point x="383" y="78" type="curve" smooth="yes"/>
			<point x="383" y="301" type="line" smooth="yes"/>
			<point x="383" y="417"/>
			<point x="337" y="468"/>
			<point x="235" y="468" type="curve" smooth="yes"/>
			<point x="134" y="468"/>
			<point x="62" y="421"/>
			<point x="51" y="353" type="curve"/>
			<point x="56" y="326"/>
			<point x="69" y="311"/>
			<point x="96" y="311" type="curve" smooth="yes"/>
			<point x="123" y="311"/>
			<point x="146" y="329"/>
			<point x="151" y="372" type="curve" smooth="yes"/>
			<point x="164" y="448" type="line"/>
			<point x="135" y="426" type="line"/>
			<point x="157" y="434"/>
			<point x="178" y="441"/>
			<point x="201" y="441" type="curve" smooth="yes"/>
			<point x="262" y="441"/>
			<point x="285" y="410"/>
			<point x="285" y="312" type="curve" smooth="yes"/>
			<point x="285" y="73" type="line"/>
			<point x="285" y="70" type="line"/>
			<point x="288" y="19"/>
			<point x="317" y="-11"/>
		</contour>
	</outline>
	<anchor name="aboveLC" x="226" y="475"/>
	<anchor name="belowLC" x="230" y="-20"/>
	<anchor name="ogonek" x="398" y="0"/>
</glyph>
<glyph name="b" format="2">
	<unicode hex="0062"/>
	<advance width="548"/>
	<outline>
		<contour>
			<point x="32" y="0" type="line"/>
			<point x="194" y="-11" type="line"/>
			<point x="194" y="75" type="line"/>
			<point x="194" y="77" type="line"/>
			<point x="194" y="373" type="line"/>
			<point x="194" y="375" type="line"/>
			<point x="194" y="528" type="line"/>
			<point x="198" y="728" type="line"/>
			<point x="187" y="738" type="line"/>
			<point x="28" y="696" type="line"/>
			<point x="28" y="680" type="line"/>
			<point x="97" y="664" type="line"/>
			<point x="97" y="208" type="line" smooth="yes"/>
			<point x="97" y="156"/>
			<point x="96" y="83"/>
			<point x="94" y="28" type="curve"/>
			<point x="32" y="19" type="line"/>
		</contour>
		<contour>
			<point x="322" y="-13" type="curve" smooth="yes"/>
			<point x="429" y="-13"/>
			<point x="509" y="80"/>
			<point x="509" y="239" type="curve" smooth="yes"/>
			<point x="509" y="390"/>
			<point x="432" y="468"/>
			<point x="332" y="468" type="curve" smooth="yes"/>
			<point x="264" y="468"/>
			<point x="213" y="425"/>
			<point x="184" y="364" type="curve"/>
			<point x="172" y="364" type="line"/>
			<point x="178" y="339" type="line"/>
			<point x="209" y="385"/>
			<point x="245" y="417"/>
			<point x="290" y="417" type="curve" smooth="yes"/>
			<point x="356" y="417"/>
			<point x="406" y="363"/>
			<point x="406" y="233" type="curve" smooth="yes"/>
			<point x="406" y="100"/>
			<point x="355" y="39"/>
			<point x="292" y="39" type="curve" smooth="yes"/>
			<point x="245" y="39"/>
			<point x="217" y="56"/>
			<point x="176" y="106" type="curve"/>
			<point x="167" y="85" type="line"/>
			<point x="181" y="85" type="line"/>
			<point x="216" y="14"/>
			<point x="267" y="-13"/>
		</contour>
	</outline>
	<anchor name="aboveLC" x="149" y="738"/>
	<anchor name="belowLC" x="267" y="-20"/>
</glyph>
<glyph name="c" format="2">
	<unicode hex="0063"/>
	<advance width="440"/>
	<outline>
		<contour>
			<point x="247" y="-13" type="curve" smooth="yes"/>
			<point x="323" y="-13"/>
			<point x="382" y="22"/>
			<point x="418" y="98" type="curve"/>
			<point x="403" y="108" type="line"/>
			<point x="373" y="71"/>
			<point x="336" y="47"/>
			<point x="284" y="47" type="curve" smooth="yes"/>
			<point x="187" y="47"/>
			<point x="139" y="130"/>
			<point x="139" y="241" type="curve" smooth="yes"/>
			<point x="139" y="366"/>
			<point x="190" y="444"/>
			<point x="268" y="444" type="curve" smooth="yes"/>
			<point x="291" y="444"/>
			<point x="316" y="441"/>
			<point x="340" y="421" type="curve"/>
			<point x="300" y="449" type="line"/>
			<point x="313" y="372" type="line" smooth="yes"/>
			<point x="318" y="329"/>
			<point x="340" y="311"/>
			<point x="367" y="311" type="curve" smooth="yes"/>
			<point x="393" y="311"/>
			<point x="408" y="324"/>
			<point x="413" y="351" type="curve"/>
			<point x="405" y="417"/>
			<point x="350" y="468"/>
			<point x="262" y="468" type="curve" smooth="yes"/>
			<point x="140" y="468"/>
			<point x="36" y="383"/>
			<point x="36" y="221" type="curve" smooth="yes"/>
			<point x="36" y="71"/>
			<point x="125" y="-13"/>
		</contour>
	</outline>
	<anchor name="aboveLC" x="254" y="475"/>
	<anchor name="baseLC" x="247" y="0"/>
	<anchor name="belowLC" x="247" y="-20"/>
</glyph>
<glyph name="d" format="2">
	<unicode hex="0064"/>
	<advance width="536"/>
	<outline>
		<contour>
			<point x="216" y="-13" type="curve" smooth="yes"/>
			<point x="284" y="-13"/>
			<point x="333" y="30"/>
			<point x="363" y="91" type="curve"/>
			<point x="374" y="91" type="line"/>
			<point x="368" y="116" type="line"/>
			<point x="337" y="70"/>
			<point x="302" y="38"/>
			<point x="257" y="38" type="curve" smooth="yes"/>
			<point x="190" y="38"/>
			<point x="142" y="91"/>
			<point x="142" y="221" type="curve" smooth="yes"/>
			<point x="142" y="356"/>
			<point x="194" y="416"/>
			<point x="257" y="416" type="curve" smooth="yes"/>
			<point x="304" y="416"/>
			<point x="329" y="398"/>
			<point x="371" y="349" type="curve"/>
			<point x="380" y="370" type="line"/>
			<point x="367" y="370" type="line"/>
			<point x="332" y="440"/>
			<point x="286" y="468"/>
			<point x="231" y="468" type="curve" smooth="yes"/>
			<point x="124" y="468"/>
			<point x="39" y="374"/>
			<point x="39" y="216" type="curve" smooth="yes"/>
			<point x="39" y="65"/>
			<point x="116" y="-13"/>
		</contour>
		<contour>
			<point x="352" y="-11" type="line"/>
			<point x="511" y="0" type="line"/>
			<point x="511" y="19" type="line"/>
			<point x="450" y="27" type="line"/>
			<point x="450" y="528" type="line"/>
			<point x="454" y="728" type="line"/>
			<point x="443" y="738" type="line"/>
			<point x="285" y="696" type="line"/>
			<point x="285" y="680" type="line"/>
			<point x="353" y="664" type="line"/>
			<point x="353" y="387" type="line"/>
			<point x="352" y="377" type="line"/>
			<point x="352" y="84" type="line"/>
			<point x="352" y="81" type="line"/>
		</contour>
	</outline>
	<anchor name="aboveLC" x="392" y="738"/>
	<anchor name="belowLC" x="266" y="-20"/>
</glyph>
<glyph name="f" format="2">
	<unicode hex="0066"/>
	<advance width="325"/>
	<outline>
		<contour>
			<point x="30" y="0" type="line"/>
			<point x="281" y="0" type="line"/>
			<point x="281" y="19" type="line"/>
			<point x="175" y="32" type="line"/>
			<point x="121" y="32" type="line"/>
			<point x="30" y="19" type="line"/>
		</contour>
		<contour>
			<point x="91" y="0" type="curve"/>
			<point x="198" y="0" type="line"/>
			<point x="194" y="48"/>
			<point x="193" y="145"/>
			<point x="193" y="211" type="curve" smooth="yes"/>
			<point x="193" y="444" type="line"/>
			<point x="188" y="571"/>
			<point x="201" y="646"/>
			<point x="234" y="696" type="curve" smooth="yes"/>
			<point x="252" y="723"/>
			<point x="270" y="727"/>
			<point x="286" y="728" type="curve"/>
			<point x="286" y="733" type="line"/>
			<point x="247" y="733" type="line"/>
			<point x="247" y="728" type="line"/>
			<point x="279" y="695" type="line" smooth="yes"/>
			<point x="305" y="663"/>
			<point x="325" y="651"/>
			<point x="353" y="651" type="curve" smooth="yes"/>
			<point x="381" y="651"/>
			<point x="404" y="667"/>
			<point x="406" y="694" type="curve"/>
			<point x="396" y="730"/>
			<point x="352" y="748"/>
			<point x="311" y="748" type="curve" smooth="yes"/>
			<point x="264" y="748"/>
			<point x="219" y="733"/>
			<point x="184" y="700" type="curve" smooth="yes"/>
			<point x="134" y="651"/>
			<point x="103" y="581"/>
			<point x="97" y="461" type="curve"/>
			<point x="96" y="432" type="line"/>
			<point x="118" y="463" type="line"/>
			<point x="26" y="447" type="line"/>
			<point x="26" y="428" type="line"/>
			<point x="95" y="428" type="line"/>
			<point x="95" y="211" type="line" smooth="yes"/>
			<point x="95" y="145"/>
			<point x="95" y="49"/>
		</contour>
		<contour>
			<point x="144" y="428" type="line"/>
			<point x="307" y="428" type="line"/>
			<point x="307" y="455" type="line"/>
			<point x="144" y="455" type="line"/>
		</contour>
	</outline>
	<anchor name="aboveLC" x="280" y="738"/>
	<anchor name="belowLC" x="150" y="-20"/>
</glyph>
<glyph name="h" format="2">
	<unicode hex="0068"/>
	<advance width="563"/>
	<outline>
		<contour>
			<point x="30" y="0" type="line"/>
			<point x="254" y="0" type="line"/>
			<point x="254" y="19" type="line"/>
			<point x="165" y="32" type="line"/>
			<point x="121" y="32" type="line"/>
			<point x="30" y="19" type="line"/>
		</contour>
		<contour>
			<point x="91" y="0" type="curve"/>
			<point x="198" y="0" type="line"/>
			<point x="194" y="48"/>
			<point x="193" y="145"/>
			<point x="193" y="211" type="curve" smooth="yes"/>
			<point x="193" y="364" type="line"/>
			<point x="193" y="366" type="line"/>
			<point x="193" y="528" type="line"/>
			<point x="197" y="728" type="line"/>
			<point x="187" y="738" type="line"/>
			<point x="26" y="696" type="line"/>
			<point x="26" y="680" type="line"/>
			<point x="95" y="664" type="line"/>
			<point x="95" y="211" type="line" smooth="yes"/>
			<point x="95" y="145"/>
			<point x="95" y="48"/>
		</contour>
		<contour>
			<point x="315" y="0" type="line"/>
			<point x="538" y="0" type="line"/>
			<point x="538" y="19" type="line"/>
			<point x="449" y="32" type="line"/>
			<point x="405" y="32" type="line"/>
			<point x="315" y="19" type="line"/>
		</contour>
		<contour>
			<point x="374" y="0" type="curve"/>
			<point x="482" y="0" type="line"/>
			<point x="478" y="48"/>
			<point x="477" y="145"/>
			<point x="477" y="211" type="curve" smooth="yes"/>
			<point x="477" y="312" type="line" smooth="yes"/>
			<point x="477" y="424"/>
			<point x="433" y="468"/>
			<point x="357" y="468" type="curve" smooth="yes"/>
			<point x="285" y="468"/>
			<point x="223" y="420"/>
			<point x="179" y="357" type="curve"/>
			<point x="173" y="357" type="line"/>
			<point x="178" y="337" type="line"/>
			<point x="221" y="381"/>
			<point x="264" y="406"/>
			<point x="308" y="406" type="curve" smooth="yes"/>
			<point x="357" y="406"/>
			<point x="379" y="385"/>
			<point x="379" y="310" type="curve" smooth="yes"/>
			<point x="379" y="211" type="line" smooth="yes"/>
			<point x="379" y="145"/>
			<point x="378" y="48"/>
		</contour>
	</outline>
	<anchor name="aboveLC" x="143" y="738"/>
	<anchor name="belowLC" x="285" y="-20"/>
</glyph>
<glyph name="j" format="2">
	<unicode hex="006A"/>
	<advance width="270"/>
	<outline>
		<contour>
			<point x="24" y="-253" type="curve" smooth="yes"/>
			<point x="64" y="-253"/>
			<point x="104" y="-239"/>
			<point x="140" y="-202" type="curve" smooth="yes"/>
			<point x="181" y="-159"/>
			<point x="193" y="-102"/>
			<point x="193" y="19" type="curve" smooth="yes"/>
			<point x="193" y="330" type="line"/>
			<point x="197" y="459" type="line"/>
			<point x="187" y="468" type="line"/>
			<point x="26" y="420" type="line"/>
			<point x="26" y="404" type="line"/>
			<point x="93" y="387" type="line"/>
			<point x="94" y="344"/>
			<point x="95" y="310"/>
			<point x="95" y="251" type="curve" smooth="yes"/>
			<point x="95" y="50" type="line" smooth="yes"/>
			<point x="95" y="-60"/>
			<point x="101" y="-137"/>
			<point x="85" y="-194" type="curve" smooth="yes"/>
			<point x="81" y="-211"/>
			<point x="76" y="-220"/>
			<point x="67" y="-227" type="curve"/>
			<point x="67" y="-236" type="line"/>
			<point x="85" y="-236" type="line"/>
			<point x="85" y="-230" type="line"/>
			<point x="56" y="-195" type="line" smooth="yes"/>
			<point x="35" y="-167"/>
			<point x="16" y="-160"/>
			<point x="-9" y="-160" type="curve" smooth="yes"/>
			<point x="-40" y="-160"/>
			<point x="-62" y="-176"/>
			<point x="-65" y="-203" type="curve"/>
			<point x="-55" y="-238"/>
			<point x="-22" y="-253"/>
		</contour>
		<contour>
			<point x="142" y="559" type="curve" smooth="yes"/>
			<point x="175" y="559"/>
			<point x="203" y="583"/>
			<point x="203" y="619" type="curve" smooth="yes"/>
			<point x="203" y="655"/>
			<point x="175" y="679"/>
			<point x="142" y="679" type="curve" smooth="yes"/>
			<point x="109" y="679"/>
			<point x="81" y="655"/>
			<point x="81" y="619" type="curve" smooth="yes"/>
			<point x="81" y="583"/>
			<point x="109" y="559"/>
		</contour>
	</outline>
	<anchor name="aboveLC" x="143" y="679"/>
	<anchor name="belowLC" x="84" y="-263"/>
</glyph>
<glyph name="m" format="2">
	<unicode hex="006D"/>
	<advance width="842"/>
	<outline>
		<contour>
			<point x="30" y="0" type="line"/>
			<point x="254" y="0" type="line"/>
			<point x="254" y="19" type="line"/>
			<point x="165" y="32" type="line"/>
			<point x="121" y="32" type="line"/>
			<point x="30" y="19" type="line"/>
		</contour>
		<contour>
			<point x="91" y="0" type="curve"/>
			<point x="198" y="0" type="line"/>
			<point x="194" y="48"/>
			<point x="193" y="145"/>
			<point x="193" y="211" type="curve" smooth="yes"/>
			<point x="193" y="360" type="line"/>
			<point x="193" y="366" type="line"/>
			<point x="193" y="459" type="line"/>
			<point x="183" y="468" type="line"/>
			<point x="26" y="420" type="line"/>
			<point x="26" y="404" type="line"/>
			<point x="93" y="387" type="line"/>
			<point x="95" y="344"/>
			<point x="95" y="308"/>
			<point x="95" y="249" type="curve" smooth="yes"/>
			<point x="95" y="211" type="line" smooth="yes"/>
			<point x="95" y="145"/>
			<point x="95" y="48"/>
		</contour>
		<contour>
			<point x="313" y="0" type="line"/>
			<point x="535" y="0" type="line"/>
			<point x="535" y="19" type="line"/>
			<point x="447" y="32" type="line"/>
			<point x="402" y="32" type="line"/>
			<point x="313" y="19" type="line"/>
		</contour>
		<contour>
			<point x="371" y="0" type="curve"/>
			<point x="479" y="0" type="line"/>
			<point x="475" y="48"/>
			<point x="475" y="145"/>
			<point x="475" y="211" type="curve" smooth="yes"/>
			<point x="475" y="312" type="line" smooth="yes"/>
			<point x="475" y="424"/>
			<point x="431" y="468"/>
			<point x="355" y="468" type="curve" smooth="yes"/>
			<point x="284" y="468"/>
			<point x="223" y="420"/>
			<point x="179" y="357" type="curve"/>
			<point x="173" y="357" type="line"/>
			<point x="178" y="337" type="line"/>
			<point x="221" y="381"/>
			<point x="263" y="406"/>
			<point x="307" y="406" type="curve" smooth="yes"/>
			<point x="356" y="406"/>
			<point x="377" y="385"/>
			<point x="377" y="310" type="curve" smooth="yes"/>
			<point x="377" y="211" type="line" smooth="yes"/>
			<point x="377" y="145"/>
			<point x="376" y="48"/>
		</contour>
		<contour>
			<point x="594" y="0" type="line"/>
			<point x="817" y="0" type="line"/>
			<point x="817" y="19" type="line"/>
			<point x="727" y="32" type="line"/>
			<point x="683" y="32" type="line"/>
			<point x="594" y="19" type="line"/>
		</contour>
		<contour>
			<point x="653" y="0" type="curve"/>
			<point x="761" y="0" type="line"/>
			<point x="757" y="48"/>
			<point x="756" y="145"/>
			<point x="756" y="211" type="curve" smooth="yes"/>
			<point x="756" y="312" type="line" smooth="yes"/>
			<point x="756" y="424"/>
			<point x="713" y="468"/>
			<point x="637" y="468" type="curve" smooth="yes"/>
			<point x="565" y="468"/>
			<point x="504" y="420"/>
			<point x="460" y="357" type="curve"/>
			<point x="453" y="357" type="line"/>
			<point x="459" y="336" type="line"/>
			<point x="503" y="380"/>
			<point x="544" y="406"/>
			<point x="588" y="406" type="curve" smooth="yes"/>
			<point x="637" y="406"/>
			<point x="657" y="385"/>
			<point x="657" y="310" type="curve" smooth="yes"/>
			<point x="657" y="211" type="line" smooth="yes"/>
			<point x="657" y="145"/>
			<point x="657" y="48"/>
		</contour>
	</outline>
	<anchor name="aboveLC" x="425" y="475"/>
	<anchor name="belowLC" x="428" y="-20"/>
</glyph>
<glyph name="n" format="2">
	<unicode hex="006E"/>
	<advance width="563"/>
	<outline>
		<contour>
			<point x="30" y="0" type="line"/>
			<point x="254" y="0" type="line"/>
			<point x="254" y="19" type="line"/>
			<point x="165" y="32" type="line"/>
			<point x="121" y="32" type="line"/>
			<point x="30" y="19" type="line"/>
		</contour>
		<contour>
			<point x="91" y="0" type="curve"/>
			<point x="198" y="0" type="line"/>
			<point x="194" y="48"/>
			<point x="193" y="145"/>
			<point x="193" y="211" type="curve" smooth="yes"/>
			<point x="193" y="360" type="line"/>
			<point x="193" y="362" type="line"/>
			<point x="193" y="459" type="line"/>
			<point x="183" y="468" type="line"/>
			<point x="26" y="420" type="line"/>
			<point x="26" y="404" type="line"/>
			<point x="93" y="387" type="line"/>
			<point x="95" y="344"/>
			<point x="95" y="308"/>
			<point x="95" y="249" type="curve" smooth="yes"/>
			<point x="95" y="211" type="line" smooth="yes"/>
			<point x="95" y="145"/>
			<point x="95" y="48"/>
		</contour>
		<contour>
			<point x="315" y="0" type="line"/>
			<point x="538" y="0" type="line"/>
			<point x="538" y="19" type="line"/>
			<point x="449" y="32" type="line"/>
			<point x="405" y="32" type="line"/>
			<point x="315" y="19" type="line"/>
		</contour>
		<contour>
			<point x="374" y="0" type="curve"/>
			<point x="482" y="0" type="line"/>
			<point x="478" y="48"/>
			<point x="477" y="145"/>
			<point x="477" y="211" type="curve" smooth="yes"/>
			<point x="477" y="312" type="line" smooth="yes"/>
			<point x="477" y="424"/>
			<point x="433" y="468"/>
			<point x="357" y="468" type="curve" smooth="yes"/>
			<point x="285" y="468"/>
			<point x="223" y="420"/>
			<point x="179" y="357" type="curve"/>
			<point x="173" y="357" type="line"/>
			<point x="178" y="337" type="line"/>
			<point x="221" y="381"/>
			<point x="264" y="406"/>
			<point x="308" y="406" type="curve" smooth="yes"/>
			<point x="357" y="406"/>
			<point x="379" y="385"/>
			<point x="379" y="310" type="curve" smooth="yes"/>
			<point x="379" y="211" type="line" smooth="yes"/>
			<point x="379" y="145"/>
			<point x="378" y="48"/>
		</contour>
	</outline>
	<anchor name="aboveLC" x="290" y="475"/>
	<anchor name="belowLC" x="288" y="-20"/>
</glyph>
<glyph name="o" format="2">
	<unicode hex="006F"/>
	<advance width="514"/>
	<outline>
		<contour>
			<point x="257" y="-13" type="curve" smooth="yes"/>
			<point x="377" y="-13"/>
			<point x="475" y="78"/>
			<point x="475" y="229" type="curve" smooth="yes"/>
			<point x="475" y="381"/>
			<point x="383" y="468"/>
			<point x="257" y="468" type="curve" smooth="yes"/>
			<point x="135" y="468"/>
			<point x="39" y="377"/>
			<point x="39" y="226" type="curve" smooth="yes"/>
			<point x="39" y="75"/>
			<point x="130" y="-13"/>
		</contour>
		<contour>
			<point x="257" y="10" type="curve" smooth="yes"/>
			<point x="187" y="10"/>
			<point x="145" y="74"/>
			<point x="145" y="226" type="curve" smooth="yes"/>
			<point x="145" y="378"/>
			<point x="187" y="445"/>
			<point x="257" y="445" type="curve" smooth="yes"/>
			<point x="327" y="445"/>
			<point x="369" y="380"/>
			<point x="369" y="229" type="curve" smooth="yes"/>
			<point x="369" y="77"/>
			<point x="327" y="10"/>
		</contour>
	</outline>
	<anchor name="aboveLC" x="257" y="475"/>
	<anchor name="belowLC" x="259" y="-20"/>
	<anchor name="hornLC" x="374" y="364"/>
	<anchor name="ogonek" x="317" y="0"/>
</glyph>
<glyph name="p" format="2">
	<unicode hex="0070"/>
	<advance width="545"/>
	<outline>
		<contour>
			<point x="30" y="-253" type="line"/>
			<point x="265" y="-253" type="line"/>
			<point x="265" y="-234" type="line"/>
			<point x="164" y="-221" type="line"/>
			<point x="121" y="-221" type="line"/>
			<point x="30" y="-234" type="line"/>
		</contour>
		<contour>
			<point x="91" y="-253" type="curve"/>
			<point x="197" y="-253" type="line"/>
			<point x="193" y="-204"/>
			<point x="193" y="-108"/>
			<point x="193" y="-42" type="curve" smooth="yes"/>
			<point x="193" y="75" type="line"/>
			<point x="193" y="79" type="line"/>
			<point x="193" y="372" type="line"/>
			<point x="193" y="376" type="line"/>
			<point x="193" y="459" type="line"/>
			<point x="183" y="468" type="line"/>
			<point x="26" y="420" type="line"/>
			<point x="26" y="404" type="line"/>
			<point x="93" y="387" type="line"/>
			<point x="95" y="344"/>
			<point x="95" y="308"/>
			<point x="95" y="249" type="curve" smooth="yes"/>
			<point x="95" y="-42" type="line" smooth="yes"/>
			<point x="95" y="-108"/>
			<point x="95" y="-204"/>
		</contour>
		<contour>
			<point x="319" y="-13" type="curve" smooth="yes"/>
			<point x="426" y="-13"/>
			<point x="506" y="80"/>
			<point x="506" y="239" type="curve" smooth="yes"/>
			<point x="506" y="390"/>
			<point x="429" y="468"/>
			<point x="329" y="468" type="curve" smooth="yes"/>
			<point x="261" y="468"/>
			<point x="212" y="425"/>
			<point x="182" y="364" type="curve"/>
			<point x="171" y="364" type="line"/>
			<point x="177" y="339" type="line"/>
			<point x="208" y="385"/>
			<point x="243" y="417"/>
			<point x="288" y="417" type="curve" smooth="yes"/>
			<point x="354" y="417"/>
			<point x="403" y="363"/>
			<point x="403" y="233" type="curve" smooth="yes"/>
			<point x="403" y="100"/>
			<point x="353" y="39"/>
			<point x="290" y="39" type="curve" smooth="yes"/>
			<point x="244" y="39"/>
			<point x="215" y="56"/>
			<point x="174" y="106" type="curve"/>
			<point x="167" y="85" type="line"/>
			<point x="180" y="85" type="line"/>
			<point x="215" y="14"/>
			<point x="264" y="-13"/>
		</contour>
	</outline>
	<anchor name="aboveLC" x="277" y="475"/>
	<anchor name="belowLC" x="149" y="-273"/>
</glyph>
<glyph name="t" format="2">
	<unicode hex="0074"/>
	<advance width="316"/>
	<outline>
		<contour>
			<point x="131" y="428" type="line"/>
			<point x="292" y="428" type="line"/>
			<point x="292" y="455" type="line"/>
			<point x="131" y="455" type="line"/>
		</contour>
		<contour>
			<point x="193" y="-13" type="curve" smooth="yes"/>
			<point x="253" y="-13"/>
			<point x="286" y="12"/>
			<point x="308" y="56" type="curve"/>
			<point x="295" y="66" type="line"/>
			<point x="277" y="46"/>
			<point x="257" y="35"/>
			<point x="231" y="35" type="curve" smooth="yes"/>
			<point x="198" y="35"/>
			<point x="176" y="53"/>
			<point x="176" y="103" type="curve" smooth="yes"/>
			<point x="176" y="436" type="line"/>
			<point x="176" y="443" type="line"/>
			<point x="180" y="607" type="line"/>
			<point x="147" y="607" type="line"/>
			<point x="77" y="443" type="line"/>
			<point x="111" y="465" type="line"/>
			<point x="11" y="447" type="line"/>
			<point x="11" y="428" type="line"/>
			<point x="79" y="428" type="line"/>
			<point x="77" y="213" type="line" smooth="yes"/>
			<point x="77" y="165"/>
			<point x="77" y="139"/>
			<point x="77" y="99" type="curve" smooth="yes"/>
			<point x="77" y="23"/>
			<point x="121" y="-13"/>
		</contour>
	</outline>
	<anchor name="aboveLC" x="154" y="587"/>
	<anchor name="baseLC" x="190" y="0"/>
	<anchor name="belowLC" x="190" y="-20"/>
</glyph>
<glyph name="x" format="2">
	<unicode hex="0078"/>
	<advance width="476"/>
	<outline>
		<contour>
			<point x="8" y="0" type="line"/>
			<point x="155" y="0" type="line"/>
			<point x="155" y="18" type="line"/>
			<point x="87" y="28" type="line"/>
			<point x="74" y="28" type="line"/>
			<point x="8" y="19" type="line"/>
		</contour>
		<contour>
			<point x="46" y="0" type="line"/>
			<point x="79" y="0" type="line"/>
			<point x="158" y="117" type="line"/>
			<point x="237" y="235" type="line"/>
			<point x="228" y="241" type="line"/>
			<point x="219" y="249" type="line"/>
		</contour>
		<contour>
			<point x="246" y="0" type="line"/>
			<point x="467" y="0" type="line"/>
			<point x="467" y="19" type="line"/>
			<point x="389" y="32" type="line"/>
			<point x="333" y="32" type="line"/>
			<point x="246" y="18" type="line"/>
		</contour>
		<contour>
			<point x="245" y="206" type="line"/>
			<point x="418" y="455" type="line"/>
			<point x="386" y="455" type="line"/>
			<point x="307" y="337" type="line"/>
			<point x="228" y="220" type="line"/>
			<point x="237" y="213" type="line"/>
		</contour>
		<contour>
			<point x="320" y="0" type="line"/>
			<point x="436" y="0" type="line"/>
			<point x="277" y="253" type="line"/>
			<point x="158" y="455" type="line"/>
			<point x="43" y="455" type="line"/>
			<point x="195" y="211" type="line"/>
		</contour>
		<contour>
			<point x="13" y="436" type="line"/>
			<point x="89" y="423" type="line"/>
			<point x="144" y="423" type="line"/>
			<point x="235" y="437" type="line"/>
			<point x="235" y="455" type="line"/>
			<point x="13" y="455" type="line"/>
		</contour>
		<contour>
			<point x="311" y="437" type="line"/>
			<point x="378" y="427" type="line"/>
			<point x="391" y="427" type="line"/>
			<point x="454" y="436" type="line"/>
			<point x="454" y="455" type="line"/>
			<point x="311" y="455" type="line"/>
		</contour>
	</outline>
	<anchor name="aboveLC" x="252" y="475"/>
	<anchor name="belowLC" x="220" y="-20"/>
</glyph>
<glyph name="z" format="2">
	<unicode hex="007A"/>
	<advance width="423"/>
	<outline>
		<contour>
			<point x="27" y="0" type="line"/>
			<point x="393" y="0" type="line"/>
			<point x="401" y="157" type="line"/>
			<point x="384" y="157" type="line"/>
			<point x="328" y="14" type="line"/>
			<point x="368" y="25" type="line"/>
			<point x="242" y="25" type="line"/>
			<point x="135" y="25" type="line"/>
			<point x="135" y="40" type="line"/>
			<point x="127" y="5" type="line"/>
			<point x="390" y="441" type="line"/>
			<point x="390" y="455" type="line"/>
			<point x="41" y="455" type="line"/>
			<point x="37" y="309" type="line"/>
			<point x="53" y="307" type="line"/>
			<point x="109" y="441" type="line"/>
			<point x="68" y="430" type="line"/>
			<point x="184" y="430" type="line"/>
			<point x="284" y="430" type="line"/>
			<point x="288" y="421" type="line"/>
			<point x="288" y="447" type="line"/>
			<point x="27" y="13" type="line"/>
		</contour>
	</outline>
	<anchor name="aboveLC" x="215" y="475"/>
	<anchor name="belowLC" x="221" y="-20"/>
</glyph>
<glyph name="bar" format="2">
	<unicode hex="007C"/>
	<advance width="284"/>
	<outline>
		<contour>
			<point x="116" y="-252" type="line"/>
			<point x="168" y="-252" type="line"/>
			<point x="168" y="748" type="line"/>
			<point x="116" y="748" type="line"/>
		</contour>
	</outline>
</glyph>
<glyph name="asciitilde" format="2">
	<unicode hex="007E"/>
	<advance width="504"/>
	<outline>
		<contour>
			<point x="262" y="357" type="curve" smooth="yes"/>
			<point x="233" y="382"/>
			<point x="204" y="407"/>
			<point x="161" y="407" type="curve" smooth="yes"/>
			<point x="101" y="407"/>
			<point x="63" y="362"/>
			<point x="54" y="285" type="curve"/>
			<point x="86" y="279" type="line"/>
			<point x="96" y="348"/>
			<point x="123" y="369"/>
			<point x="157" y="369" type="curve" smooth="yes"/>
			<point x="190" y="369"/>
			<point x="215" y="347"/>
			<point x="241" y="325" type="curve" smooth="yes"/>
			<point x="270" y="300"/>
			<point x="300" y="274"/>
			<point x="343" y="274" type="curve" smooth="yes"/>
			<point x="403" y="274"/>
			<point x="441" y="319"/>
			<point x="450" y="396" type="curve"/>
			<point x="419" y="401" type="line"/>
			<point x="408" y="333"/>
			<point x="381" y="312"/>
			<point x="347" y="312" type="curve" smooth="yes"/>
			<point x="313" y="312"/>
			<point x="288" y="335"/>
		</contour>
	</outline>
</glyph>
<glyph name="cent" format="2">
	<unicode hex="00A2"/>
	<advance width="488"/>
	<outline>
		<contour>
			<point x="289" y="-44" type="line"/>
			<point x="289" y="656" type="line"/>
			<point x="263" y="656" type="line"/>
			<point x="263" y="-44" type="line"/>
		</contour>
		<contour>
			<point x="286" y="529" type="curve" smooth="yes"/>
			<point x="319" y="529"/>
			<point x="340" y="525"/>
			<point x="367" y="506" type="curve"/>
			<point x="331" y="531" type="line"/>
			<point x="348" y="451" type="line" smooth="yes"/>
			<point x="355" y="409"/>
			<point x="379" y="395"/>
			<point x="403" y="395" type="curve" smooth="yes"/>
			<point x="427" y="395"/>
			<point x="442" y="409"/>
			<point x="445" y="432" type="curve"/>
			<point x="437" y="502"/>
			<point x="379" y="554"/>
			<point x="285" y="554" type="curve" smooth="yes"/>
			<point x="158" y="554"/>
			<point x="46" y="467"/>
			<point x="46" y="303" type="curve" smooth="yes"/>
			<point x="46" y="149"/>
			<point x="144" y="63"/>
			<point x="265" y="63" type="curve" smooth="yes"/>
			<point x="347" y="63"/>
			<point x="407" y="100"/>
			<point x="446" y="176" type="curve"/>
			<point x="430" y="187" type="line"/>
			<point x="397" y="149"/>
			<point x="359" y="124"/>
			<point x="303" y="124" type="curve" smooth="yes"/>
			<point x="200" y="124"/>
			<point x="148" y="210"/>
			<point x="148" y="323" type="curve" smooth="yes"/>
			<point x="148" y="450"/>
			<point x="203" y="529"/>
		</contour>
	</outline>
</glyph>
<glyph name="currency" format="2">
	<unicode hex="00A4"/>
	<advance width="488"/>
	<outline>
		<contour>
			<point x="345" y="425" type="line"/>
			<point x="388" y="454" type="line" smooth="yes"/>
			<point x="417" y="474"/>
			<point x="447" y="488"/>
			<point x="447" y="514" type="curve" smooth="yes"/>
			<point x="447" y="529"/>
			<point x="434" y="544"/>
			<point x="418" y="544" type="curve" smooth="yes"/>
			<point x="395" y="544"/>
			<point x="381" y="512"/>
			<point x="363" y="479" type="curve" smooth="yes"/>
			<point x="335" y="434" type="line"/>
		</contour>
		<contour>
			<point x="130" y="329" type="curve" smooth="yes"/>
			<point x="130" y="396"/>
			<point x="180" y="450"/>
			<point x="245" y="450" type="curve" smooth="yes"/>
			<point x="311" y="450"/>
			<point x="361" y="396"/>
			<point x="361" y="329" type="curve" smooth="yes"/>
			<point x="361" y="260"/>
			<point x="311" y="207"/>
			<point x="245" y="207" type="curve" smooth="yes"/>
			<point x="180" y="207"/>
			<point x="130" y="260"/>
		</contour>
		<contour>
			<point x="93" y="329" type="curve" smooth="yes"/>
			<point x="93" y="240"/>
			<point x="161" y="174"/>
			<point x="245" y="174" type="curve" smooth="yes"/>
			<point x="329" y="174"/>
			<point x="398" y="240"/>
			<point x="398" y="329" type="curve" smooth="yes"/>
			<point x="398" y="417"/>
			<point x="329" y="483"/>
			<point x="245" y="483" type="curve" smooth="yes"/>
			<point x="161" y="483"/>
			<point x="93" y="417"/>
		</contour>
		<contour>
			<point x="155" y="434" type="line"/>
			<point x="128" y="479" type="line" smooth="yes"/>
			<point x="109" y="512"/>
			<point x="96" y="544"/>
			<point x="72" y="544" type="curve" smooth="yes"/>
			<point x="56" y="544"/>
			<point x="43" y="529"/>
			<point x="43" y="514" type="curve" smooth="yes"/>
			<point x="43" y="488"/>
			<point x="73" y="474"/>
			<point x="102" y="454" type="curve" smooth="yes"/>
			<point x="146" y="425" type="line"/>
		</contour>
		<contour>
			<point x="146" y="231" type="line"/>
			<point x="102" y="203" type="line" smooth="yes"/>
			<point x="73" y="183"/>
			<point x="43" y="168"/>
			<point x="43" y="143" type="curve" smooth="yes"/>
			<point x="43" y="128"/>
			<point x="56" y="114"/>
			<point x="72" y="114" type="curve" smooth="yes"/>
			<point x="96" y="114"/>
			<point x="109" y="145"/>
			<point x="128" y="177" type="curve" smooth="yes"/>
			<point x="155" y="223" type="line"/>
		</contour>
		<contour>
			<point x="335" y="223" type="line"/>
			<point x="363" y="177" type="line" smooth="yes"/>
			<point x="381" y="145"/>
			<point x="395" y="114"/>
			<point x="418" y="114" type="curve" smooth="yes"/>
			<point x="434" y="114"/>
			<point x="447" y="128"/>
			<point x="447" y="143" type="curve" smooth="yes"/>
			<point x="447" y="168"/>
			<point x="417" y="183"/>
			<point x="388" y="203" type="curve" smooth="yes"/>
			<point x="345" y="231" type="line"/>
		</contour>
	</outline>
</glyph>
<glyph name="yen" format="2">
	<unicode hex="00A5"/>
	<advance width="488"/>
	<outline>
		<contour>
			<point x="262" y="202" type="line"/>
			<point x="448" y="639" type="line"/>
			<point x="417" y="639" type="line"/>
			<point x="281" y="306" type="line"/>
			<point x="279" y="300" type="line"/>
			<point x="289" y="300" type="line"/>
			<point x="144" y="639" type="line"/>
			<point x="33" y="639" type="line"/>
			<point x="225" y="202" type="line"/>
		</contour>
		<contour>
			<point x="75" y="607" type="line"/>
			<point x="127" y="607" type="line"/>
			<point x="235" y="621" type="line"/>
			<point x="235" y="639" type="line"/>
			<point x="-4" y="639" type="line"/>
			<point x="-4" y="621" type="line"/>
		</contour>
		<contour>
			<point x="220" y="32" type="line"/>
			<point x="108" y="19" type="line"/>
			<point x="108" y="0" type="line"/>
			<point x="381" y="0" type="line"/>
			<point x="381" y="19" type="line"/>
			<point x="269" y="32" type="line"/>
		</contour>
		<contour>
			<point x="194" y="180" type="line" smooth="yes"/>
			<point x="194" y="119"/>
			<point x="193" y="67"/>
			<point x="190" y="0" type="curve"/>
			<point x="298" y="0" type="line"/>
			<point x="296" y="67"/>
			<point x="295" y="119"/>
			<point x="295" y="180" type="curve" smooth="yes"/>
			<point x="295" y="295" type="line"/>
			<point x="194" y="295" type="line"/>
		</contour>
		<contour>
			<point x="406" y="611" type="line"/>
			<point x="427" y="611" type="line"/>
			<point x="490" y="621" type="line"/>
			<point x="490" y="639" type="line"/>
			<point x="324" y="639" type="line"/>
			<point x="324" y="621" type="line"/>
		</contour>
		<contour>
			<point x="55" y="168" type="line"/>
			<point x="439" y="168" type="line"/>
			<point x="439" y="191" type="line"/>
			<point x="55" y="191" type="line"/>
		</contour>
		<contour>
			<point x="55" y="267" type="line"/>
			<point x="439" y="267" type="line"/>
			<point x="439" y="289" type="line"/>
			<point x="55" y="289" type="line"/>
		</contour>
	</outline>
</glyph>
<glyph name="section" format="2">
	<unicode hex="00A7"/>
	<advance width="468"/>
	<outline>
		<contour>
			<point x="212" y="-104" type="curve" smooth="yes"/>
			<point x="336" y="-104"/>
			<point x="390" y="-31"/>
			<point x="390" y="41" type="curve" smooth="yes"/>
			<point x="390" y="95"/>
			<point x="361" y="130"/>
			<point x="323" y="158" type="curve"/>
			<point x="319" y="161" type="line"/>
			<point x="293" y="179"/>
			<point x="263" y="193"/>
			<point x="235" y="208" type="curve" smooth="yes"/>
			<point x="171" y="239"/>
			<point x="112" y="269"/>
			<point x="112" y="327" type="curve" smooth="yes"/>
			<point x="112" y="361"/>
			<point x="135" y="398"/>
			<point x="167" y="417" type="curve"/>
			<point x="155" y="439" type="line"/>
			<point x="155" y="429" type="line"/>
			<point x="92" y="399"/>
			<point x="43" y="355"/>
			<point x="43" y="285" type="curve" smooth="yes"/>
			<point x="43" y="196"/>
			<point x="119" y="159"/>
			<point x="190" y="125" type="curve" smooth="yes"/>
			<point x="253" y="94"/>
			<point x="313" y="66"/>
			<point x="313" y="9" type="curve" smooth="yes"/>
			<point x="313" y="-45"/>
			<point x="279" y="-81"/>
			<point x="209" y="-81" type="curve" smooth="yes"/>
			<point x="185" y="-81"/>
			<point x="162" y="-75"/>
			<point x="135" y="-63" type="curve"/>
			<point x="170" y="-85" type="line"/>
			<point x="144" y="-21" type="line" smooth="yes"/>
			<point x="129" y="17"/>
			<point x="113" y="27"/>
			<point x="92" y="27" type="curve" smooth="yes"/>
			<point x="76" y="27"/>
			<point x="57" y="17"/>
			<point x="53" y="-7" type="curve"/>
			<point x="54" y="-59"/>
			<point x="117" y="-104"/>
		</contour>
		<contour>
			<point x="251" y="680" type="curve" smooth="yes"/>
			<point x="131" y="680"/>
			<point x="77" y="607"/>
			<point x="77" y="535" type="curve" smooth="yes"/>
			<point x="77" y="481"/>
			<point x="106" y="444"/>
			<point x="145" y="416" type="curve"/>
			<point x="149" y="414" type="line"/>
			<point x="175" y="396"/>
			<point x="204" y="381"/>
			<point x="234" y="366" type="curve" smooth="yes"/>
			<point x="297" y="335"/>
			<point x="357" y="305"/>
			<point x="357" y="247" type="curve" smooth="yes"/>
			<point x="357" y="213"/>
			<point x="333" y="177"/>
			<point x="300" y="157" type="curve"/>
			<point x="314" y="137" type="line"/>
			<point x="314" y="145" type="line"/>
			<point x="376" y="176"/>
			<point x="425" y="221"/>
			<point x="425" y="291" type="curve" smooth="yes"/>
			<point x="425" y="381"/>
			<point x="348" y="416"/>
			<point x="276" y="450" type="curve" smooth="yes"/>
			<point x="214" y="481"/>
			<point x="155" y="510"/>
			<point x="155" y="567" type="curve" smooth="yes"/>
			<point x="155" y="621"/>
			<point x="189" y="657"/>
			<point x="253" y="657" type="curve" smooth="yes"/>
			<point x="277" y="657"/>
			<point x="296" y="652"/>
			<point x="324" y="640" type="curve"/>
			<point x="289" y="662" type="line"/>
			<point x="315" y="597" type="line" smooth="yes"/>
			<point x="330" y="560"/>
			<point x="345" y="550"/>
			<point x="366" y="550" type="curve" smooth="yes"/>
			<point x="382" y="550"/>
			<point x="401" y="560"/>
			<point x="405" y="584" type="curve"/>
			<point x="404" y="635"/>
			<point x="345" y="680"/>
		</contour>
	</outline>
</glyph>
<glyph name="logicalnot" format="2">
	<unicode hex="00AC"/>
	<advance width="504"/>
	<outline>
		<contour>
			<point x="32" y="349" type="line"/>
			<point x="454" y="349" type="line"/>
			<point x="433" y="375" type="line"/>
			<point x="433" y="169" type="line"/>
			<point x="472" y="169" type="line"/>
			<point x="472" y="387" type="line"/>
			<point x="32" y="387" type="line"/>
		</contour>
	</outline>
</glyph>
<glyph name="plusminus" format="2">
	<unicode hex="00B1"/>
	<advance width="502"/>
	<outline>
		<contour>
			<point x="231" y="111" type="line"/>
			<point x="271" y="111" type="line"/>
			<point x="271" y="556" type="line"/>
			<point x="231" y="556" type="line"/>
		</contour>
		<contour>
			<point x="471" y="319" type="line"/>
			<point x="471" y="357" type="line"/>
			<point x="31" y="357" type="line"/>
			<point x="31" y="319" type="line"/>
		</contour>
		<contour>
			<point x="471" y="0" type="line"/>
			<point x="471" y="38" type="line"/>
			<point x="31" y="38" type="line"/>
			<point x="31" y="0" type="line"/>
		</contour>
	</outline>
</glyph>
<glyph name="three.sups" format="2">
	<unicode hex="00B3"/>
	<advance width="341"/>
	<outline>
		<contour>
			<point x="152" y="413" type="curve" smooth="yes"/>
			<point x="260" y="413"/>
			<point x="316" y="465"/>
			<point x="316" y="531" type="curve" smooth="yes"/>
			<point x="316" y="593"/>
			<point x="264" y="630"/>
			<point x="170" y="633" type="curve"/>
			<point x="170" y="630" type="line"/>
			<point x="252" y="636"/>
			<point x="303" y="677"/>
			<point x="303" y="737" type="curve" smooth="yes"/>
			<point x="303" y="792"/>
			<point x="259" y="835"/>
			<point x="169" y="835" type="curve" smooth="yes"/>
			<point x="98" y="835"/>
			<point x="48" y="804"/>
			<point x="40" y="749" type="curve"/>
			<point x="45" y="732"/>
			<point x="57" y="726"/>
			<point x="71" y="726" type="curve" smooth="yes"/>
			<point x="92" y="726"/>
			<point x="102" y="736"/>
			<point x="110" y="769" type="curve" smooth="yes"/>
			<point x="122" y="824" type="line"/>
			<point x="96" y="808" type="line"/>
			<point x="115" y="817"/>
			<point x="133" y="820"/>
			<point x="151" y="820" type="curve" smooth="yes"/>
			<point x="200" y="820"/>
			<point x="224" y="779"/>
			<point x="224" y="734" type="curve" smooth="yes"/>
			<point x="224" y="683"/>
			<point x="200" y="639"/>
			<point x="133" y="639" type="curve" smooth="yes"/>
			<point x="112" y="639" type="line"/>
			<point x="112" y="621" type="line"/>
			<point x="137" y="621" type="line" smooth="yes"/>
			<point x="208" y="621"/>
			<point x="234" y="577"/>
			<point x="234" y="527" type="curve" smooth="yes"/>
			<point x="234" y="477"/>
			<point x="202" y="429"/>
			<point x="139" y="429" type="curve" smooth="yes"/>
			<point x="121" y="429"/>
			<point x="102" y="431"/>
			<point x="84" y="441" type="curve"/>
			<point x="110" y="424" type="line"/>
			<point x="99" y="483" type="line" smooth="yes"/>
			<point x="92" y="516"/>
			<point x="79" y="527"/>
			<point x="58" y="527" type="curve" smooth="yes"/>
			<point x="44" y="527"/>
			<point x="31" y="521"/>
			<point x="26" y="505" type="curve"/>
			<point x="34" y="444"/>
			<point x="80" y="413"/>
		</contour>
	</outline>
</glyph>
<glyph name="paragraph" format="2">
	<unicode hex="00B6"/>
	<advance width="590"/>
	<outline>
		<contour>
			<point x="315" y="140" type="curve"/>
			<point x="315" y="639" type="line"/>
			<point x="429" y="639" type="line"/>
			<point x="429" y="664" type="line"/>
			<point x="343" y="664" type="line" smooth="yes"/>
			<point x="160" y="664"/>
			<point x="23" y="574"/>
			<point x="23" y="403" type="curve" smooth="yes"/>
			<point x="23" y="236"/>
			<point x="141" y="142"/>
		</contour>
		<contour>
			<point x="374" y="-125" type="curve"/>
			<point x="469" y="-125" type="line"/>
			<point x="465" y="-45"/>
			<point x="464" y="83"/>
			<point x="464" y="188" type="curve" smooth="yes"/>
			<point x="464" y="357" type="line" smooth="yes"/>
			<point x="464" y="459"/>
			<point x="465" y="585"/>
			<point x="469" y="664" type="curve"/>
			<point x="379" y="664" type="line"/>
			<point x="379" y="188" type="line" smooth="yes"/>
			<point x="379" y="83"/>
			<point x="378" y="-45"/>
		</contour>
		<contour>
			<point x="409" y="631" type="line"/>
			<point x="437" y="631" type="line"/>
			<point x="551" y="645" type="line"/>
			<point x="551" y="664" type="line"/>
			<point x="409" y="664" type="line"/>
		</contour>
	</outline>
</glyph>
<glyph name="one.sups" format="2">
	<unicode hex="00B9"/>
	<advance width="341"/>
	<outline>
		<contour>
			<point x="51" y="422" type="line"/>
			<point x="300" y="422" type="line"/>
			<point x="300" y="436" type="line"/>
			<point x="195" y="449" type="line"/>
			<point x="155" y="449" type="line"/>
			<point x="51" y="436" type="line"/>
		</contour>
		<contour>
			<point x="137" y="422" type="line"/>
			<point x="215" y="422" type="line"/>
			<point x="215" y="825" type="line"/>
			<point x="207" y="832" type="line"/>
			<point x="61" y="789" type="line"/>
			<point x="61" y="777" type="line"/>
			<point x="137" y="784" type="line"/>
		</contour>
	</outline>
</glyph>
<glyph name="AE" format="2">
	<unicode hex="00C6"/>
	<advance width="849"/>
	<outline>
		<contour>
			<point x="418" y="0" type="curve"/>
			<point x="530" y="0" type="line"/>
			<point x="526" y="79"/>
			<point x="526" y="208"/>
			<point x="526" y="313" type="curve" smooth="yes"/>
			<point x="526" y="357" type="line" smooth="yes"/>
			<point x="526" y="459"/>
			<point x="526" y="585"/>
			<point x="530" y="664" type="curve"/>
			<point x="423" y="664" type="line"/>
			<point x="423" y="313" type="line" smooth="yes"/>
			<point x="423" y="208"/>
			<point x="422" y="79"/>
		</contour>
		<contour>
			<point x="12" y="0" type="line"/>
			<point x="196" y="0" type="line"/>
			<point x="196" y="19" type="line"/>
			<point x="104" y="29" type="line"/>
			<point x="85" y="29" type="line"/>
			<point x="12" y="19" type="line"/>
		</contour>
		<contour>
			<point x="674" y="228" type="line"/>
			<point x="692" y="228" type="line"/>
			<point x="692" y="449" type="line"/>
			<point x="674" y="449" type="line"/>
			<point x="641" y="348" type="line"/>
			<point x="641" y="329" type="line"/>
		</contour>
		<contour>
			<point x="778" y="486" type="line"/>
			<point x="797" y="486" type="line"/>
			<point x="785" y="664" type="line"/>
			<point x="467" y="664" type="line"/>
			<point x="467" y="639" type="line"/>
			<point x="715" y="639" type="line"/>
		</contour>
		<contour>
			<point x="475" y="0" type="line"/>
			<point x="801" y="0" type="line"/>
			<point x="813" y="188" type="line"/>
			<point x="794" y="188" type="line"/>
			<point x="731" y="25" type="line"/>
			<point x="475" y="25" type="line"/>
		</contour>
		<contour>
			<point x="312" y="645" type="line"/>
			<point x="416" y="632" type="line"/>
			<point x="463" y="632" type="line"/>
			<point x="463" y="664" type="line"/>
			<point x="312" y="664" type="line"/>
		</contour>
		<contour>
			<point x="345" y="0" type="line"/>
			<point x="497" y="0" type="line"/>
			<point x="497" y="32" type="line"/>
			<point x="449" y="32" type="line"/>
			<point x="345" y="19" type="line"/>
		</contour>
		<contour>
			<point x="62" y="0" type="line"/>
			<point x="95" y="0" type="line"/>
			<point x="211" y="228" type="line"/>
			<point x="432" y="664" type="line"/>
			<point x="401" y="664" type="line"/>
		</contour>
		<contour>
			<point x="194" y="215" type="line"/>
			<point x="475" y="215" type="line"/>
			<point x="475" y="242" type="line"/>
			<point x="194" y="242" type="line"/>
		</contour>
		<contour>
			<point x="475" y="326" type="line"/>
			<point x="655" y="326" type="line"/>
			<point x="655" y="352" type="line"/>
			<point x="475" y="352" type="line"/>
		</contour>
	</outline>
	<anchor name="aboveUC" x="549" y="684"/>
</glyph>
<glyph name="Eth" format="2">
	<unicode hex="00D0"/>
	<advance width="638"/>
	<outline>
		<contour>
			<point x="374" y="328" type="line"/>
			<point x="374" y="352" type="line"/>
			<point x="43" y="352" type="line"/>
			<point x="43" y="328" type="line"/>
		</contour>
		<component base="D"/>
	</outline>
</glyph>
<glyph name="Oslash" format="2">
	<unicode hex="00D8"/>
	<advance width="643"/>
	<outline>
		<contour>
			<point x="592" y="667" type="line"/>
			<point x="573" y="681" type="line"/>
			<point x="51" y="-2" type="line"/>
			<point x="69" y="-16" type="line"/>
		</contour>
		<contour>
			<point x="150" y="333" type="curve" smooth="yes"/>
			<point x="150" y="521"/>
			<point x="202" y="656"/>
			<point x="321" y="656" type="curve" smooth="yes"/>
			<point x="440" y="656"/>
			<point x="493" y="517"/>
			<point x="493" y="330" type="curve" smooth="yes"/>
			<point x="493" y="142"/>
			<point x="440" y="8"/>
			<point x="321" y="8" type="curve" smooth="yes"/>
			<point x="202" y="8"/>
			<point x="150" y="145"/>
		</contour>
		<contour>
			<point x="321" y="680" type="curve" smooth="yes"/>
			<point x="174" y="680"/>
			<point x="42" y="557"/>
			<point x="42" y="333" type="curve" smooth="yes"/>
			<point x="42" y="102"/>
			<point x="173" y="-16"/>
			<point x="321" y="-16" type="curve" smooth="yes"/>
			<point x="469" y="-16"/>
			<point x="601" y="105"/>
			<point x="601" y="330" type="curve" smooth="yes"/>
			<point x="601" y="560"/>
			<point x="469" y="680"/>
		</contour>
	</outline>
	<anchor name="aboveUC" x="321" y="684"/>
</glyph>
<glyph name="eth" format="2">
	<unicode hex="00F0"/>
	<advance width="514"/>
	<outline>
		<contour>
			<point x="257" y="-13" type="curve" smooth="yes"/>
			<point x="395" y="-13"/>
			<point x="475" y="96"/>
			<point x="475" y="276" type="curve" smooth="yes"/>
			<point x="475" y="512"/>
			<point x="349" y="670"/>
			<point x="153" y="748" type="curve"/>
			<point x="142" y="730" type="line"/>
			<point x="282" y="649"/>
			<point x="340" y="559"/>
			<point x="378" y="389" type="curve"/>
			<point x="387" y="383" type="line"/>
			<point x="368" y="434"/>
			<point x="328" y="468"/>
			<point x="257" y="468" type="curve" smooth="yes"/>
			<point x="135" y="468"/>
			<point x="39" y="377"/>
			<point x="39" y="226" type="curve" smooth="yes"/>
			<point x="39" y="75"/>
			<point x="130" y="-13"/>
		</contour>
		<contour>
			<point x="257" y="10" type="curve" smooth="yes"/>
			<point x="187" y="10"/>
			<point x="145" y="74"/>
			<point x="145" y="226" type="curve" smooth="yes"/>
			<point x="145" y="378"/>
			<point x="187" y="445"/>
			<point x="257" y="445" type="curve" smooth="yes"/>
			<point x="327" y="445"/>
			<point x="369" y="380"/>
			<point x="369" y="229" type="curve" smooth="yes"/>
			<point x="369" y="77"/>
			<point x="327" y="10"/>
		</contour>
		<contour>
			<point x="145" y="535" type="line"/>
			<point x="470" y="702" type="line"/>
			<point x="459" y="724" type="line"/>
			<point x="135" y="556" type="line"/>
		</contour>
	</outline>
</glyph>
<glyph name="thorn" format="2">
	<unicode hex="00FE"/>
	<advance width="541"/>
	<outline>
		<contour>
			<point x="87" y="-253" type="curve"/>
			<point x="190" y="-253" type="line"/>
			<point x="188" y="-188"/>
			<point x="187" y="-112"/>
			<point x="187" y="-42" type="curve" smooth="yes"/>
			<point x="187" y="72" type="line"/>
			<point x="188" y="75" type="line"/>
			<point x="188" y="376" type="line"/>
			<point x="187" y="378" type="line"/>
			<point x="187" y="528" type="line"/>
			<point x="191" y="728" type="line"/>
			<point x="181" y="738" type="line"/>
			<point x="21" y="696" type="line"/>
			<point x="21" y="680" type="line"/>
			<point x="90" y="664" type="line"/>
			<point x="90" y="-42" type="line" smooth="yes"/>
			<point x="90" y="-108"/>
			<point x="89" y="-204"/>
		</contour>
		<contour>
			<point x="316" y="-13" type="curve" smooth="yes"/>
			<point x="422" y="-13"/>
			<point x="502" y="80"/>
			<point x="502" y="239" type="curve" smooth="yes"/>
			<point x="502" y="390"/>
			<point x="425" y="468"/>
			<point x="325" y="468" type="curve" smooth="yes"/>
			<point x="257" y="468"/>
			<point x="206" y="425"/>
			<point x="177" y="364" type="curve"/>
			<point x="165" y="364" type="line"/>
			<point x="172" y="339" type="line"/>
			<point x="202" y="385"/>
			<point x="238" y="417"/>
			<point x="283" y="417" type="curve" smooth="yes"/>
			<point x="350" y="417"/>
			<point x="399" y="363"/>
			<point x="399" y="233" type="curve" smooth="yes"/>
			<point x="399" y="100"/>
			<point x="349" y="39"/>
			<point x="286" y="39" type="curve" smooth="yes"/>
			<point x="239" y="39"/>
			<point x="210" y="56"/>
			<point x="169" y="106" type="curve"/>
			<point x="161" y="85" type="line"/>
			<point x="174" y="85" type="line"/>
			<point x="209" y="14"/>
			<point x="261" y="-13"/>
		</contour>
		<contour>
			<point x="25" y="-253" type="line"/>
			<point x="259" y="-253" type="line"/>
			<point x="259" y="-234" type="line"/>
			<point x="158" y="-221" type="line"/>
			<point x="115" y="-221" type="line"/>
			<point x="25" y="-234" type="line"/>
		</contour>
	</outline>
	<anchor name="aboveLC" x="142" y="738"/>
	<anchor name="belowLC" x="373" y="-20"/>
</glyph>
<glyph name="eogonek" format="2">
	<unicode hex="0119"/>
	<advance width="463"/>
	<outline>
		<contour>
			<point x="281" y="-229" type="curve" smooth="yes"/>
			<point x="325" y="-229"/>
			<point x="357" y="-210"/>
			<point x="384" y="-179" type="curve"/>
			<point x="377" y="-165" type="line"/>
			<point x="357" y="-173"/>
			<point x="338" y="-176"/>
			<point x="319" y="-176" type="curve" smooth="yes"/>
			<point x="282" y="-176"/>
			<point x="261" y="-154"/>
			<point x="261" y="-112" type="curve" smooth="yes"/>
			<point x="261" y="-63"/>
			<point x="302" y="-19"/>
			<point x="344" y="9" type="curve" smooth="yes"/>
			<point x="375" y="30"/>
			<point x="403" y="56"/>
			<point x="423" y="98" type="curve"/>
			<point x="409" y="108" type="line"/>
			<point x="379" y="71"/>
			<point x="340" y="47"/>
			<point x="286" y="47" type="curve" smooth="yes"/>
			<point x="202" y="47"/>
			<point x="140" y="118"/>
			<point x="140" y="239" type="curve" smooth="yes"/>
			<point x="140" y="390"/>
			<point x="193" y="444"/>
			<point x="248" y="444" type="curve" smooth="yes"/>
			<point x="299" y="444"/>
			<point x="333" y="404"/>
			<point x="333" y="329" type="curve" smooth="yes"/>
			<point x="333" y="285"/>
			<point x="318" y="270"/>
			<point x="272" y="270" type="curve" smooth="yes"/>
			<point x="77" y="270" type="line"/>
			<point x="77" y="247" type="line"/>
			<point x="415" y="247" type="line"/>
			<point x="419" y="261"/>
			<point x="421" y="273"/>
			<point x="421" y="295" type="curve" smooth="yes"/>
			<point x="421" y="399"/>
			<point x="349" y="468"/>
			<point x="247" y="468" type="curve" smooth="yes"/>
			<point x="136" y="468"/>
			<point x="38" y="375"/>
			<point x="38" y="219" type="curve" smooth="yes"/>
			<point x="38" y="72"/>
			<point x="131" y="-13"/>
			<point x="249" y="-13" type="curve" smooth="yes"/>
			<point x="269" y="-13"/>
			<point x="289" y="-10"/>
			<point x="307" y="-6" type="curve"/>
			<point x="324" y="7" type="line"/>
			<point x="261" y="-19"/>
			<point x="192" y="-68"/>
			<point x="192" y="-141" type="curve" smooth="yes"/>
			<point x="192" y="-193"/>
			<point x="226" y="-229"/>
		</contour>
	</outline>
	<anchor name="aboveLC" x="247" y="475"/>
</glyph>
<glyph name="Hbar" format="2">
	<unicode hex="0126"/>
	<advance width="696"/>
	<outline>
		<contour>
			<point x="107" y="0" type="curve"/>
			<point x="219" y="0" type="line"/>
			<point x="215" y="79"/>
			<point x="214" y="208"/>
			<point x="214" y="313" type="curve" smooth="yes"/>
			<point x="214" y="357" type="line" smooth="yes"/>
			<point x="214" y="459"/>
			<point x="215" y="585"/>
			<point x="219" y="664" type="curve"/>
			<point x="107" y="664" type="line"/>
			<point x="111" y="585"/>
			<point x="111" y="459"/>
			<point x="111" y="357" type="curve" smooth="yes"/>
			<point x="111" y="313" type="line" smooth="yes"/>
			<point x="111" y="208"/>
			<point x="111" y="79"/>
		</contour>
		<contour>
			<point x="477" y="0" type="curve"/>
			<point x="589" y="0" type="line"/>
			<point x="585" y="79"/>
			<point x="585" y="208"/>
			<point x="585" y="313" type="curve" smooth="yes"/>
			<point x="585" y="357" type="line" smooth="yes"/>
			<point x="585" y="459"/>
			<point x="585" y="585"/>
			<point x="589" y="664" type="curve"/>
			<point x="477" y="664" type="line"/>
			<point x="481" y="585"/>
			<point x="481" y="459"/>
			<point x="481" y="357" type="curve" smooth="yes"/>
			<point x="481" y="313" type="line" smooth="yes"/>
			<point x="481" y="208"/>
			<point x="481" y="79"/>
		</contour>
		<contour>
			<point x="34" y="0" type="line"/>
			<point x="291" y="0" type="line"/>
			<point x="291" y="19" type="line"/>
			<point x="187" y="32" type="line"/>
			<point x="138" y="32" type="line"/>
			<point x="34" y="19" type="line"/>
		</contour>
		<contour>
			<point x="34" y="645" type="line"/>
			<point x="138" y="632" type="line"/>
			<point x="187" y="632" type="line"/>
			<point x="291" y="645" type="line"/>
			<point x="291" y="664" type="line"/>
			<point x="34" y="664" type="line"/>
		</contour>
		<contour>
			<point x="404" y="0" type="line"/>
			<point x="661" y="0" type="line"/>
			<point x="661" y="19" type="line"/>
			<point x="557" y="32" type="line"/>
			<point x="508" y="32" type="line"/>
			<point x="404" y="19" type="line"/>
		</contour>
		<contour>
			<point x="404" y="645" type="line"/>
			<point x="508" y="632" type="line"/>
			<point x="557" y="632" type="line"/>
			<point x="661" y="645" type="line"/>
			<point x="661" y="664" type="line"/>
			<point x="404" y="664" type="line"/>
		</contour>
		<contour>
			<point x="30" y="474" type="line"/>
			<point x="666" y="474" type="line"/>
			<point x="666" y="497" type="line"/>
			<point x="30" y="497" type="line"/>
		</contour>
		<contour>
			<point x="158" y="313" type="line"/>
			<point x="539" y="313" type="line"/>
			<point x="539" y="339" type="line"/>
			<point x="158" y="339" type="line"/>
		</contour>
	</outline>
</glyph>
<glyph name="hbar" format="2">
	<unicode hex="0127"/>
	<advance width="563"/>
	<outline>
		<contour>
			<point x="91" y="0" type="curve"/>
			<point x="198" y="0" type="line"/>
			<point x="194" y="48"/>
			<point x="193" y="145"/>
			<point x="193" y="211" type="curve" smooth="yes"/>
			<point x="193" y="341" type="line"/>
			<point x="193" y="346" type="line"/>
			<point x="193" y="528" type="line"/>
			<point x="197" y="728" type="line"/>
			<point x="187" y="738" type="line"/>
			<point x="26" y="696" type="line"/>
			<point x="26" y="680" type="line"/>
			<point x="95" y="664" type="line"/>
			<point x="95" y="211" type="line" smooth="yes"/>
			<point x="95" y="145"/>
			<point x="95" y="48"/>
		</contour>
		<contour>
			<point x="30" y="0" type="line"/>
			<point x="254" y="0" type="line"/>
			<point x="254" y="19" type="line"/>
			<point x="165" y="32" type="line"/>
			<point x="121" y="32" type="line"/>
			<point x="30" y="19" type="line"/>
		</contour>
		<contour>
			<point x="315" y="0" type="line"/>
			<point x="538" y="0" type="line"/>
			<point x="538" y="19" type="line"/>
			<point x="449" y="32" type="line"/>
			<point x="405" y="32" type="line"/>
			<point x="315" y="19" type="line"/>
		</contour>
		<contour>
			<point x="25" y="551" type="line"/>
			<point x="357" y="551" type="line"/>
			<point x="357" y="575" type="line"/>
			<point x="25" y="575" type="line"/>
		</contour>
		<contour>
			<point x="374" y="0" type="curve"/>
			<point x="482" y="0" type="line"/>
			<point x="478" y="48"/>
			<point x="477" y="145"/>
			<point x="477" y="211" type="curve" smooth="yes"/>
			<point x="477" y="296" type="line" smooth="yes"/>
			<point x="477" y="408"/>
			<point x="433" y="452"/>
			<point x="357" y="452" type="curve" smooth="yes"/>
			<point x="285" y="452"/>
			<point x="223" y="404"/>
			<point x="179" y="341" type="curve"/>
			<point x="173" y="341" type="line"/>
			<point x="178" y="321" type="line"/>
			<point x="221" y="365"/>
			<point x="264" y="390"/>
			<point x="308" y="390" type="curve" smooth="yes"/>
			<point x="357" y="390"/>
			<point x="379" y="369"/>
			<point x="379" y="294" type="curve" smooth="yes"/>
			<point x="379" y="211" type="line" smooth="yes"/>
			<point x="379" y="145"/>
			<point x="378" y="48"/>
		</contour>
	</outline>
</glyph>
<glyph name="Eng" format="2">
	<unicode hex="014A"/>
	<advance width="654"/>
	<outline>
		<contour>
			<point x="33" y="0" type="line"/>
			<point x="227" y="0" type="line"/>
			<point x="227" y="19" type="line"/>
			<point x="136" y="29" type="line"/>
			<point x="118" y="29" type="line"/>
			<point x="33" y="19" type="line"/>
		</contour>
		<contour>
			<point x="112" y="0" type="line"/>
			<point x="141" y="0" type="line"/>
			<point x="141" y="654" type="line"/>
			<point x="112" y="654" type="line"/>
		</contour>
		<contour>
			<point x="373" y="-138" type="curve" smooth="yes"/>
			<point x="421" y="-138"/>
			<point x="455" y="-118"/>
			<point x="493" y="-69" type="curve" smooth="yes"/>
			<point x="536" y="-15"/>
			<point x="549" y="42"/>
			<point x="549" y="136" type="curve" smooth="yes"/>
			<point x="549" y="663" type="line"/>
			<point x="520" y="663" type="line"/>
			<point x="520" y="124" type="line" smooth="yes"/>
			<point x="520" y="16"/>
			<point x="492" y="-50"/>
			<point x="423" y="-103" type="curve"/>
			<point x="423" y="-114" type="line"/>
			<point x="442" y="-114" type="line"/>
			<point x="442" y="-99" type="line"/>
			<point x="408" y="-72" type="line" smooth="yes"/>
			<point x="380" y="-49"/>
			<point x="367" y="-42"/>
			<point x="342" y="-42" type="curve" smooth="yes"/>
			<point x="314" y="-42"/>
			<point x="294" y="-60"/>
			<point x="289" y="-85" type="curve"/>
			<point x="295" y="-121"/>
			<point x="327" y="-138"/>
		</contour>
		<contour>
			<point x="509" y="0" type="line"/>
			<point x="526" y="0" type="line"/>
			<point x="533" y="162" type="line"/>
			<point x="527" y="162" type="line"/>
			<point x="197" y="663" type="line"/>
			<point x="33" y="663" type="line"/>
			<point x="33" y="644" type="line"/>
			<point x="91" y="637" type="line"/>
			<point x="133" y="570" type="line"/>
			<point x="136" y="570" type="line"/>
		</contour>
		<contour>
			<point x="525" y="634" type="line"/>
			<point x="543" y="634" type="line"/>
			<point x="620" y="644" type="line"/>
			<point x="620" y="663" type="line"/>
			<point x="430" y="663" type="line"/>
			<point x="430" y="644" type="line"/>
		</contour>
	</outline>
</glyph>
<glyph name="eng" format="2">
	<unicode hex="014B"/>
	<advance width="549"/>
	<outline>
		<contour>
			<point x="30" y="0" type="line"/>
			<point x="254" y="0" type="line"/>
			<point x="254" y="19" type="line"/>
			<point x="165" y="32" type="line"/>
			<point x="121" y="32" type="line"/>
			<point x="30" y="19" type="line"/>
		</contour>
		<contour>
			<point x="91" y="0" type="curve"/>
			<point x="198" y="0" type="line"/>
			<point x="194" y="48"/>
			<point x="193" y="145"/>
			<point x="193" y="211" type="curve" smooth="yes"/>
			<point x="193" y="360" type="line"/>
			<point x="193" y="363" type="line"/>
			<point x="193" y="459" type="line"/>
			<point x="183" y="468" type="line"/>
			<point x="26" y="420" type="line"/>
			<point x="26" y="404" type="line"/>
			<point x="93" y="387" type="line"/>
			<point x="95" y="344"/>
			<point x="95" y="308"/>
			<point x="95" y="249" type="curve" smooth="yes"/>
			<point x="95" y="211" type="line" smooth="yes"/>
			<point x="95" y="145"/>
			<point x="95" y="48"/>
		</contour>
		<contour>
			<point x="308" y="-253" type="curve" smooth="yes"/>
			<point x="348" y="-253"/>
			<point x="388" y="-239"/>
			<point x="423" y="-202" type="curve" smooth="yes"/>
			<point x="464" y="-159"/>
			<point x="477" y="-102"/>
			<point x="477" y="19" type="curve" smooth="yes"/>
			<point x="477" y="312" type="line" smooth="yes"/>
			<point x="477" y="424"/>
			<point x="433" y="468"/>
			<point x="357" y="468" type="curve" smooth="yes"/>
			<point x="285" y="468"/>
			<point x="223" y="420"/>
			<point x="179" y="357" type="curve"/>
			<point x="173" y="357" type="line"/>
			<point x="178" y="337" type="line"/>
			<point x="221" y="381"/>
			<point x="264" y="406"/>
			<point x="308" y="406" type="curve" smooth="yes"/>
			<point x="357" y="406"/>
			<point x="379" y="385"/>
			<point x="379" y="310" type="curve" smooth="yes"/>
			<point x="379" y="51" type="line" smooth="yes"/>
			<point x="379" y="-60"/>
			<point x="385" y="-137"/>
			<point x="371" y="-192" type="curve" smooth="yes"/>
			<point x="365" y="-211"/>
			<point x="359" y="-221"/>
			<point x="348" y="-228" type="curve"/>
			<point x="348" y="-236" type="line"/>
			<point x="368" y="-236" type="line"/>
			<point x="368" y="-228" type="line"/>
			<point x="340" y="-195" type="line" smooth="yes"/>
			<point x="319" y="-168"/>
			<point x="300" y="-160"/>
			<point x="275" y="-160" type="curve" smooth="yes"/>
			<point x="244" y="-160"/>
			<point x="222" y="-176"/>
			<point x="219" y="-203" type="curve"/>
			<point x="229" y="-238"/>
			<point x="262" y="-253"/>
		</contour>
	</outline>
</glyph>
<glyph name="OE" format="2">
	<unicode hex="0152"/>
	<advance width="860"/>
	<outline>
		<contour>
			<point x="154" y="331" type="curve" smooth="yes"/>
			<point x="154" y="548"/>
			<point x="245" y="657"/>
			<point x="352" y="657" type="curve" smooth="yes"/>
			<point x="392" y="657"/>
			<point x="424" y="650"/>
			<point x="462" y="626" type="curve"/>
			<point x="474" y="653" type="line"/>
			<point x="432" y="673"/>
			<point x="386" y="680"/>
			<point x="348" y="680" type="curve" smooth="yes"/>
			<point x="184" y="680"/>
			<point x="42" y="549"/>
			<point x="42" y="332" type="curve" smooth="yes"/>
			<point x="42" y="113"/>
			<point x="175" y="-16"/>
			<point x="347" y="-16" type="curve" smooth="yes"/>
			<point x="391" y="-16"/>
			<point x="439" y="-7"/>
			<point x="480" y="11" type="curve"/>
			<point x="468" y="41" type="line"/>
			<point x="427" y="15"/>
			<point x="390" y="7"/>
			<point x="350" y="7" type="curve" smooth="yes"/>
			<point x="239" y="7"/>
			<point x="154" y="113"/>
		</contour>
		<contour>
			<point x="428" y="0" type="curve"/>
			<point x="541" y="0" type="line"/>
			<point x="537" y="79"/>
			<point x="536" y="208"/>
			<point x="536" y="313" type="curve" smooth="yes"/>
			<point x="536" y="357" type="line" smooth="yes"/>
			<point x="536" y="459"/>
			<point x="537" y="585"/>
			<point x="541" y="664" type="curve"/>
			<point x="428" y="664" type="line"/>
			<point x="432" y="585"/>
			<point x="433" y="459"/>
			<point x="433" y="357" type="curve" smooth="yes"/>
			<point x="433" y="313" type="line" smooth="yes"/>
			<point x="433" y="208"/>
			<point x="432" y="79"/>
		</contour>
		<contour>
			<point x="684" y="228" type="line"/>
			<point x="703" y="228" type="line"/>
			<point x="703" y="449" type="line"/>
			<point x="684" y="449" type="line"/>
			<point x="651" y="348" type="line"/>
			<point x="651" y="329" type="line"/>
		</contour>
		<contour>
			<point x="485" y="326" type="line"/>
			<point x="665" y="326" type="line"/>
			<point x="665" y="352" type="line"/>
			<point x="485" y="352" type="line"/>
		</contour>
		<contour>
			<point x="788" y="486" type="line"/>
			<point x="807" y="486" type="line"/>
			<point x="795" y="664" type="line"/>
			<point x="477" y="664" type="line"/>
			<point x="477" y="639" type="line"/>
			<point x="726" y="639" type="line"/>
		</contour>
		<contour>
			<point x="804" y="188" type="line"/>
			<point x="742" y="25" type="line"/>
			<point x="485" y="25" type="line"/>
			<point x="485" y="0" type="line"/>
			<point x="811" y="0" type="line"/>
			<point x="823" y="188" type="line"/>
		</contour>
	</outline>
	<anchor name="aboveUC" x="481" y="684"/>
</glyph>
<glyph name="Tbar" format="2">
	<unicode hex="0166"/>
	<advance width="574"/>
	<outline>
		<contour>
			<point x="83" y="329" type="line"/>
			<point x="491" y="329" type="line"/>
			<point x="491" y="352" type="line"/>
			<point x="83" y="352" type="line"/>
		</contour>
		<component base="T"/>
	</outline>
</glyph>
<glyph name="Uogonek" format="2">
	<unicode hex="0172"/>
	<advance width="651"/>
	<outline>
		<contour>
			<point x="132" y="632" type="line"/>
			<point x="181" y="632" type="line"/>
			<point x="283" y="645" type="line"/>
			<point x="283" y="664" type="line"/>
			<point x="34" y="664" type="line"/>
			<point x="34" y="645" type="line"/>
		</contour>
		<contour>
			<point x="383" y="-229" type="curve" smooth="yes"/>
			<point x="428" y="-229"/>
			<point x="460" y="-210"/>
			<point x="487" y="-179" type="curve"/>
			<point x="480" y="-165" type="line"/>
			<point x="460" y="-173"/>
			<point x="441" y="-176"/>
			<point x="422" y="-176" type="curve" smooth="yes"/>
			<point x="385" y="-176"/>
			<point x="363" y="-154"/>
			<point x="363" y="-112" type="curve" smooth="yes"/>
			<point x="363" y="-61"/>
			<point x="404" y="-16"/>
			<point x="447" y="10" type="curve" smooth="yes"/>
			<point x="511" y="49"/>
			<point x="547" y="121"/>
			<point x="547" y="250" type="curve" smooth="yes"/>
			<point x="547" y="664" type="line"/>
			<point x="518" y="664" type="line"/>
			<point x="518" y="246" type="line" smooth="yes"/>
			<point x="518" y="89"/>
			<point x="454" y="40"/>
			<point x="357" y="40" type="curve" smooth="yes"/>
			<point x="266" y="40"/>
			<point x="208" y="93"/>
			<point x="208" y="240" type="curve" smooth="yes"/>
			<point x="208" y="356" type="line" smooth="yes"/>
			<point x="208" y="459"/>
			<point x="208" y="585"/>
			<point x="212" y="664" type="curve"/>
			<point x="100" y="664" type="line"/>
			<point x="104" y="585"/>
			<point x="105" y="459"/>
			<point x="105" y="356" type="curve" smooth="yes"/>
			<point x="105" y="221" type="line" smooth="yes"/>
			<point x="105" y="47"/>
			<point x="204" y="-16"/>
			<point x="331" y="-16" type="curve" smooth="yes"/>
			<point x="360" y="-16"/>
			<point x="386" y="-12"/>
			<point x="409" y="-5" type="curve"/>
			<point x="426" y="7" type="line"/>
			<point x="363" y="-21"/>
			<point x="295" y="-67"/>
			<point x="295" y="-141" type="curve" smooth="yes"/>
			<point x="295" y="-193"/>
			<point x="328" y="-229"/>
		</contour>
		<contour>
			<point x="525" y="635" type="line"/>
			<point x="539" y="635" type="line"/>
			<point x="616" y="645" type="line"/>
			<point x="616" y="664" type="line"/>
			<point x="440" y="664" type="line"/>
			<point x="440" y="645" type="line"/>
		</contour>
	</outline>
	<anchor name="aboveUC" x="353" y="684"/>
</glyph>
<glyph name="uogonek" format="2">
	<unicode hex="0173"/>
	<advance width="549"/>
	<outline>
		<contour>
			<point x="431" y="-229" type="curve" smooth="yes"/>
			<point x="476" y="-229"/>
			<point x="508" y="-210"/>
			<point x="535" y="-179" type="curve"/>
			<point x="528" y="-165" type="line"/>
			<point x="508" y="-173"/>
			<point x="489" y="-176"/>
			<point x="470" y="-176" type="curve" smooth="yes"/>
			<point x="433" y="-176"/>
			<point x="411" y="-154"/>
			<point x="411" y="-112" type="curve" smooth="yes"/>
			<point x="411" y="-67"/>
			<point x="433" y="-24"/>
			<point x="474" y="5" type="curve"/>
			<point x="459" y="13" type="line"/>
			<point x="459" y="5" type="line"/>
			<point x="397" y="-23"/>
			<point x="343" y="-77"/>
			<point x="343" y="-141" type="curve" smooth="yes"/>
			<point x="343" y="-193"/>
			<point x="376" y="-229"/>
		</contour>
		<component base="u"/>
	</outline>
	<anchor name="aboveLC" x="271" y="475"/>
</glyph>
<glyph name="longs" format="2">
	<unicode hex="017F"/>
	<advance width="325"/>
	<outline>
		<contour>
			<point x="30" y="0" type="line"/>
			<point x="281" y="0" type="line"/>
			<point x="281" y="19" type="line"/>
			<point x="175" y="32" type="line"/>
			<point x="121" y="32" type="line"/>
			<point x="30" y="19" type="line"/>
		</contour>
		<contour>
			<point x="91" y="0" type="curve"/>
			<point x="196" y="0" type="line"/>
			<point x="194" y="48"/>
			<point x="193" y="145"/>
			<point x="193" y="211" type="curve" smooth="yes"/>
			<point x="193" y="444" type="line" smooth="yes"/>
			<point x="193" y="579"/>
			<point x="202" y="651"/>
			<point x="234" y="695" type="curve" smooth="yes"/>
			<point x="249" y="713"/>
			<point x="271" y="723"/>
			<point x="284" y="726" type="curve"/>
			<point x="274" y="732" type="line"/>
			<point x="255" y="732" type="line"/>
			<point x="247" y="728" type="line"/>
			<point x="279" y="695" type="line" smooth="yes"/>
			<point x="305" y="663"/>
			<point x="325" y="651"/>
			<point x="353" y="651" type="curve" smooth="yes"/>
			<point x="381" y="651"/>
			<point x="404" y="667"/>
			<point x="406" y="694" type="curve"/>
			<point x="397" y="728"/>
			<point x="352" y="748"/>
			<point x="311" y="748" type="curve" smooth="yes"/>
			<point x="264" y="748"/>
			<point x="216" y="732"/>
			<point x="179" y="695" type="curve" smooth="yes"/>
			<point x="135" y="650"/>
			<point x="95" y="582"/>
			<point x="95" y="429" type="curve" smooth="yes"/>
			<point x="95" y="211" type="line" smooth="yes"/>
			<point x="95" y="145"/>
			<point x="95" y="49"/>
		</contour>
	</outline>
</glyph>
<glyph name="Schwa" format="2">
	<unicode hex="018F"/>
	<advance width="584"/>
	<outline>
		<contour>
			<point x="37" y="272" type="curve" smooth="yes"/>
			<point x="37" y="125"/>
			<point x="112" y="-16"/>
			<point x="288" y="-16" type="curve" smooth="yes"/>
			<point x="430" y="-16"/>
			<point x="545" y="106"/>
			<point x="545" y="336" type="curve" smooth="yes"/>
			<point x="545" y="552"/>
			<point x="432" y="680"/>
			<point x="281" y="680" type="curve" smooth="yes"/>
			<point x="195" y="680"/>
			<point x="131" y="645"/>
			<point x="77" y="577" type="curve"/>
			<point x="89" y="564" type="line"/>
			<point x="140" y="604"/>
			<point x="190" y="623"/>
			<point x="253" y="623" type="curve" smooth="yes"/>
			<point x="355" y="623"/>
			<point x="432" y="535"/>
			<point x="432" y="325" type="curve" smooth="yes"/>
			<point x="432" y="107"/>
			<point x="381" y="8"/>
			<point x="288" y="8" type="curve" smooth="yes"/>
			<point x="176" y="8"/>
			<point x="143" y="143"/>
			<point x="143" y="262" type="curve" smooth="yes"/>
			<point x="143" y="284"/>
			<point x="144" y="306"/>
			<point x="147" y="326" type="curve"/>
			<point x="489" y="326" type="line"/>
			<point x="489" y="352" type="line"/>
			<point x="45" y="352" type="line"/>
			<point x="39" y="326"/>
			<point x="37" y="306"/>
		</contour>
	</outline>
	<anchor name="aboveUC" x="285" y="684"/>
	<anchor name="belowLC" x="290" y="-20"/>
</glyph>
<glyph name="Uhorn" format="2">
	<unicode hex="01AF"/>
	<advance width="648"/>
	<outline>
		<contour>
			<point x="331" y="-16" type="curve" smooth="yes"/>
			<point x="464" y="-16"/>
			<point x="547" y="56"/>
			<point x="547" y="250" type="curve" smooth="yes"/>
			<point x="547" y="664" type="line"/>
			<point x="518" y="664" type="line"/>
			<point x="518" y="249" type="line" smooth="yes"/>
			<point x="518" y="93"/>
			<point x="454" y="43"/>
			<point x="357" y="43" type="curve" smooth="yes"/>
			<point x="266" y="43"/>
			<point x="208" y="96"/>
			<point x="208" y="243" type="curve" smooth="yes"/>
			<point x="208" y="356" type="line" smooth="yes"/>
			<point x="208" y="459"/>
			<point x="208" y="585"/>
			<point x="212" y="664" type="curve"/>
			<point x="100" y="664" type="line"/>
			<point x="104" y="585"/>
			<point x="105" y="459"/>
			<point x="105" y="356" type="curve" smooth="yes"/>
			<point x="105" y="221" type="line" smooth="yes"/>
			<point x="105" y="47"/>
			<point x="204" y="-16"/>
		</contour>
		<contour>
			<point x="535" y="636" type="line"/>
			<point x="613" y="638"/>
			<point x="668" y="658"/>
			<point x="668" y="733" type="curve" smooth="yes"/>
			<point x="668" y="751"/>
			<point x="665" y="776"/>
			<point x="657" y="790" type="curve"/>
			<point x="649" y="798"/>
			<point x="638" y="802"/>
			<point x="624" y="802" type="curve" smooth="yes"/>
			<point x="604" y="802"/>
			<point x="586" y="787"/>
			<point x="586" y="764" type="curve" smooth="yes"/>
			<point x="586" y="734"/>
			<point x="620" y="713"/>
			<point x="620" y="691" type="curve" smooth="yes"/>
			<point x="620" y="671"/>
			<point x="594" y="664"/>
			<point x="535" y="664" type="curve"/>
		</contour>
		<contour>
			<point x="34" y="645" type="line"/>
			<point x="132" y="632" type="line"/>
			<point x="181" y="632" type="line"/>
			<point x="283" y="645" type="line"/>
			<point x="283" y="664" type="line"/>
			<point x="34" y="664" type="line"/>
		</contour>
		<contour>
			<point x="440" y="645" type="line"/>
			<point x="525" y="635" type="line"/>
			<point x="539" y="635" type="line"/>
			<point x="539" y="664" type="line"/>
			<point x="440" y="664" type="line"/>
		</contour>
	</outline>
	<anchor name="aboveUC" x="352" y="684"/>
	<anchor name="belowLC" x="337" y="-20"/>
</glyph>
<glyph name="schwa" format="2">
	<unicode hex="0259"/>
	<advance width="471"/>
	<outline>
		<contour>
			<point x="225" y="-13" type="curve" smooth="yes"/>
			<point x="342" y="-13"/>
			<point x="433" y="70"/>
			<point x="433" y="226" type="curve" smooth="yes"/>
			<point x="433" y="379"/>
			<point x="343" y="468"/>
			<point x="233" y="468" type="curve" smooth="yes"/>
			<point x="157" y="468"/>
			<point x="95" y="434"/>
			<point x="59" y="357" type="curve"/>
			<point x="73" y="345" type="line"/>
			<point x="103" y="384"/>
			<point x="141" y="407"/>
			<point x="195" y="407" type="curve" smooth="yes"/>
			<point x="277" y="407"/>
			<point x="331" y="342"/>
			<point x="331" y="216" type="curve" smooth="yes"/>
			<point x="331" y="66"/>
			<point x="281" y="11"/>
			<point x="226" y="11" type="curve" smooth="yes"/>
			<point x="169" y="11"/>
			<point x="129" y="48"/>
			<point x="129" y="147" type="curve" smooth="yes"/>
			<point x="129" y="196"/>
			<point x="144" y="211"/>
			<point x="189" y="211" type="curve" smooth="yes"/>
			<point x="395" y="211" type="line"/>
			<point x="395" y="235" type="line"/>
			<point x="43" y="235" type="line"/>
			<point x="39" y="221"/>
			<point x="38" y="209"/>
			<point x="38" y="187" type="curve" smooth="yes"/>
			<point x="38" y="56"/>
			<point x="111" y="-13"/>
		</contour>
	</outline>
	<anchor name="aboveLC" x="230" y="475"/>
	<anchor name="belowLC" x="233" y="-20"/>
</glyph>
<glyph name="j.sups" format="2">
	<unicode hex="02B2"/>
	<advance width="189"/>
	<outline>
		<contour>
			<point x="16" y="263" type="curve" smooth="yes"/>
			<point x="43" y="263"/>
			<point x="75" y="271"/>
			<point x="102" y="296" type="curve" smooth="yes"/>
			<point x="129" y="323"/>
			<point x="139" y="356"/>
			<point x="139" y="427" type="curve" smooth="yes"/>
			<point x="139" y="713" type="line"/>
			<point x="130" y="720" type="line"/>
			<point x="17" y="688" type="line"/>
			<point x="17" y="677" type="line"/>
			<point x="60" y="667" type="line"/>
			<point x="60" y="439" type="line" smooth="yes"/>
			<point x="60" y="381"/>
			<point x="65" y="327"/>
			<point x="58" y="298" type="curve" smooth="yes"/>
			<point x="54" y="281"/>
			<point x="43" y="278"/>
			<point x="26" y="278" type="curve"/>
			<point x="26" y="271" type="line"/>
			<point x="58" y="271" type="line"/>
			<point x="59" y="280" type="line"/>
			<point x="39" y="301" type="line" smooth="yes"/>
			<point x="21" y="320"/>
			<point x="6" y="327"/>
			<point x="-14" y="327" type="curve" smooth="yes"/>
			<point x="-36" y="327"/>
			<point x="-52" y="315"/>
			<point x="-54" y="297" type="curve"/>
			<point x="-46" y="272"/>
			<point x="-17" y="263"/>
		</contour>
		<contour>
			<point x="98" y="791" type="curve" smooth="yes"/>
			<point x="125" y="791"/>
			<point x="146" y="808"/>
			<point x="146" y="834" type="curve" smooth="yes"/>
			<point x="146" y="860"/>
			<point x="125" y="878"/>
			<point x="98" y="878" type="curve" smooth="yes"/>
			<point x="72" y="878"/>
			<point x="50" y="860"/>
			<point x="50" y="834" type="curve" smooth="yes"/>
			<point x="50" y="808"/>
			<point x="72" y="791"/>
		</contour>
	</outline>
</glyph>
<glyph name="r.sups" format="2">
	<unicode hex="02B3"/>
	<advance width="294"/>
	<outline>
		<contour>
			<point x="60" y="422" type="line"/>
			<point x="139" y="422" type="line"/>
			<point x="139" y="623" type="line"/>
			<point x="139" y="624" type="line"/>
			<point x="139" y="715" type="line"/>
			<point x="130" y="722" type="line"/>
			<point x="17" y="690" type="line"/>
			<point x="17" y="678" type="line"/>
			<point x="60" y="668" type="line"/>
		</contour>
		<contour>
			<point x="135" y="593" type="line"/>
			<point x="146" y="638"/>
			<point x="175" y="675"/>
			<point x="198" y="689" type="curve"/>
			<point x="177" y="689" type="line"/>
			<point x="190" y="671" type="line" smooth="yes"/>
			<point x="203" y="651"/>
			<point x="220" y="643"/>
			<point x="239" y="643" type="curve" smooth="yes"/>
			<point x="262" y="643"/>
			<point x="282" y="657"/>
			<point x="284" y="684" type="curve"/>
			<point x="279" y="710"/>
			<point x="258" y="722"/>
			<point x="234" y="722" type="curve" smooth="yes"/>
			<point x="192" y="722"/>
			<point x="157" y="690"/>
			<point x="135" y="625" type="curve"/>
			<point x="126" y="625" type="line"/>
		</contour>
		<contour>
			<point x="19" y="422" type="line"/>
			<point x="186" y="422" type="line"/>
			<point x="186" y="436" type="line"/>
			<point x="119" y="445" type="line"/>
			<point x="79" y="445" type="line"/>
			<point x="19" y="436" type="line"/>
		</contour>
	</outline>
</glyph>
<glyph name="ringhalfrightmod" format="2">
	<unicode hex="02BE"/>
	<advance width="151"/>
	<outline>
		<contour>
			<point x="20" y="535" type="line"/>
			<point x="83" y="537"/>
			<point x="131" y="572"/>
			<point x="131" y="634" type="curve" smooth="yes"/>
			<point x="131" y="696"/>
			<point x="83" y="731"/>
			<point x="20" y="733" type="curve"/>
			<point x="20" y="695" type="line"/>
			<point x="55" y="692"/>
			<point x="81" y="671"/>
			<point x="81" y="634" type="curve" smooth="yes"/>
			<point x="81" y="597"/>
			<point x="55" y="576"/>
			<point x="20" y="573" type="curve"/>
		</contour>
	</outline>
</glyph>
<glyph name="ringhalfleftmod" format="2">
	<unicode hex="02BF"/>
	<advance width="173"/>
	<outline>
		<contour>
			<point x="34" y="634" type="curve" smooth="yes"/>
			<point x="34" y="572"/>
			<point x="82" y="537"/>
			<point x="145" y="535" type="curve"/>
			<point x="145" y="573" type="line"/>
			<point x="110" y="576"/>
			<point x="84" y="597"/>
			<point x="84" y="634" type="curve" smooth="yes"/>
			<point x="84" y="671"/>
			<point x="110" y="692"/>
			<point x="145" y="695" type="curve"/>
			<point x="145" y="733" type="line"/>
			<point x="82" y="731"/>
			<point x="34" y="696"/>
		</contour>
	</outline>
</glyph>
<glyph name="verticallinemod" format="2">
	<unicode hex="02C8"/>
	<advance width="191"/>
	<outline>
		<contour>
			<point x="66" y="542" type="line"/>
			<point x="126" y="542" type="line"/>
			<point x="134" y="729" type="line"/>
			<point x="58" y="729" type="line"/>
		</contour>
	</outline>
</glyph>
<glyph name="colontriangularmod" format="2">
	<unicode hex="02D0"/>
	<advance width="270"/>
	<outline>
		<contour>
			<point x="61" y="485" type="line"/>
			<point x="131" y="363" type="line"/>
			<point x="139" y="363" type="line"/>
			<point x="209" y="485" type="line"/>
			<point x="205" y="493" type="line"/>
			<point x="65" y="493" type="line"/>
		</contour>
		<contour>
			<point x="61" y="8" type="line"/>
			<point x="65" y="0" type="line"/>
			<point x="205" y="0" type="line"/>
			<point x="209" y="8" type="line"/>
			<point x="139" y="129" type="line"/>
			<point x="131" y="129" type="line"/>
		</contour>
	</outline>
</glyph>
<glyph name="l.sups" format="2">
	<unicode hex="02E1"/>
	<advance width="194"/>
	<outline>
		<contour>
			<point x="19" y="422" type="line"/>
			<point x="178" y="422" type="line"/>
			<point x="178" y="436" type="line"/>
			<point x="119" y="445" type="line"/>
			<point x="79" y="445" type="line"/>
			<point x="19" y="436" type="line"/>
		</contour>
		<contour>
			<point x="60" y="422" type="line"/>
			<point x="139" y="422" type="line"/>
			<point x="139" y="880" type="line"/>
			<point x="130" y="886" type="line"/>
			<point x="17" y="858" type="line"/>
			<point x="17" y="848" type="line"/>
			<point x="60" y="837" type="line"/>
		</contour>
	</outline>
</glyph>
<glyph name="s.sups" format="2">
	<unicode hex="02E2"/>
	<advance width="273"/>
	<outline>
		<contour>
			<point x="127" y="413" type="curve" smooth="yes"/>
			<point x="204" y="413"/>
			<point x="249" y="450"/>
			<point x="249" y="508" type="curve" smooth="yes"/>
			<point x="249" y="561"/>
			<point x="208" y="580"/>
			<point x="168" y="596" type="curve" smooth="yes"/>
			<point x="149" y="603" type="line" smooth="yes"/>
			<point x="116" y="617"/>
			<point x="87" y="630"/>
			<point x="87" y="661" type="curve" smooth="yes"/>
			<point x="87" y="689"/>
			<point x="108" y="707"/>
			<point x="144" y="707" type="curve" smooth="yes"/>
			<point x="164" y="707"/>
			<point x="179" y="704"/>
			<point x="193" y="696" type="curve"/>
			<point x="193" y="705" type="line"/>
			<point x="183" y="705" type="line"/>
			<point x="217" y="625" type="line"/>
			<point x="230" y="625" type="line"/>
			<point x="232" y="699" type="line"/>
			<point x="205" y="714"/>
			<point x="179" y="722"/>
			<point x="144" y="722" type="curve" smooth="yes"/>
			<point x="68" y="722"/>
			<point x="30" y="682"/>
			<point x="30" y="631" type="curve" smooth="yes"/>
			<point x="30" y="579"/>
			<point x="69" y="559"/>
			<point x="108" y="544" type="curve" smooth="yes"/>
			<point x="127" y="536" type="line" smooth="yes"/>
			<point x="161" y="523"/>
			<point x="189" y="510"/>
			<point x="189" y="478" type="curve" smooth="yes"/>
			<point x="189" y="448"/>
			<point x="166" y="428"/>
			<point x="127" y="428" type="curve" smooth="yes"/>
			<point x="102" y="428"/>
			<point x="85" y="432"/>
			<point x="67" y="440" type="curve"/>
			<point x="67" y="433" type="line"/>
			<point x="78" y="433" type="line"/>
			<point x="43" y="518" type="line"/>
			<point x="31" y="518" type="line"/>
			<point x="28" y="438" type="line"/>
			<point x="59" y="423"/>
			<point x="89" y="413"/>
		</contour>
	</outline>
</glyph>
<glyph name="x.sups" format="2">
	<unicode hex="02E3"/>
	<advance width="333"/>
	<outline>
		<contour>
			<point x="7" y="422" type="line"/>
			<point x="109" y="422" type="line"/>
			<point x="109" y="436" type="line"/>
			<point x="60" y="442" type="line"/>
			<point x="52" y="442" type="line"/>
			<point x="7" y="436" type="line"/>
		</contour>
		<contour>
			<point x="10" y="700" type="line"/>
			<point x="61" y="691" type="line"/>
			<point x="111" y="691" type="line"/>
			<point x="172" y="700" type="line"/>
			<point x="172" y="713" type="line"/>
			<point x="10" y="713" type="line"/>
		</contour>
		<contour>
			<point x="214" y="422" type="line"/>
			<point x="306" y="422" type="line"/>
			<point x="199" y="584" type="line"/>
			<point x="120" y="713" type="line"/>
			<point x="29" y="713" type="line"/>
			<point x="133" y="555" type="line"/>
		</contour>
		<contour>
			<point x="164" y="422" type="line"/>
			<point x="326" y="422" type="line"/>
			<point x="326" y="436" type="line"/>
			<point x="274" y="445" type="line"/>
			<point x="223" y="445" type="line"/>
			<point x="164" y="436" type="line"/>
		</contour>
		<contour>
			<point x="218" y="700" type="line"/>
			<point x="265" y="694" type="line"/>
			<point x="273" y="694" type="line"/>
			<point x="317" y="700" type="line"/>
			<point x="317" y="713" type="line"/>
			<point x="218" y="713" type="line"/>
		</contour>
		<contour>
			<point x="31" y="422" type="line"/>
			<point x="55" y="422" type="line"/>
			<point x="154" y="559" type="line"/>
			<point x="164" y="559" type="line"/>
			<point x="152" y="583" type="line"/>
		</contour>
		<contour>
			<point x="174" y="552" type="line"/>
			<point x="294" y="713" type="line"/>
			<point x="271" y="713" type="line"/>
			<point x="173" y="578" type="line"/>
			<point x="164" y="578" type="line"/>
		</contour>
	</outline>
</glyph>
<glyph name="gravecmb" format="2">
	<unicode hex="0300"/>
	<outline>
		<contour>
			<point x="43" y="543" type="line"/>
			<point x="21" y="579"/>
			<point x="-8" y="625"/>
			<point x="-41" y="680" type="curve" smooth="yes"/>
			<point x="-61" y="714"/>
			<point x="-79" y="729"/>
			<point x="-99" y="729" type="curve" smooth="yes"/>
			<point x="-119" y="729"/>
			<point x="-138" y="716"/>
			<point x="-138" y="690" type="curve" smooth="yes"/>
			<point x="-138" y="671"/>
			<point x="-123" y="653"/>
			<point x="-92" y="627" type="curve" smooth="yes"/>
			<point x="-43" y="587"/>
			<point x="-6" y="559"/>
			<point x="28" y="531" type="curve"/>
		</contour>
	</outline>
	<anchor name="_aboveLC" x="0" y="475"/>
	<anchor name="aboveLC" x="0" y="729"/>
</glyph>
<glyph name="brevecmb" format="2">
	<unicode hex="0306"/>
	<outline>
		<contour>
			<point x="0" y="538" type="curve" smooth="yes"/>
			<point x="88" y="538"/>
			<point x="131" y="606"/>
			<point x="140" y="674" type="curve"/>
			<point x="118" y="681" type="line"/>
			<point x="97" y="631"/>
			<point x="61" y="597"/>
			<point x="0" y="597" type="curve" smooth="yes"/>
			<point x="-61" y="597"/>
			<point x="-97" y="631"/>
			<point x="-118" y="681" type="curve"/>
			<point x="-140" y="673" type="line"/>
			<point x="-131" y="604"/>
			<point x="-89" y="538"/>
		</contour>
	</outline>
	<anchor name="_aboveLC" x="0" y="475"/>
	<anchor name="aboveLC" x="-3" y="681"/>
</glyph>
<glyph name="horncmb" format="2">
	<unicode hex="031B"/>
	<outline>
		<contour>
			<point x="0" y="455" type="line"/>
			<point x="69" y="461"/>
			<point x="115" y="515"/>
			<point x="115" y="596" type="curve" smooth="yes"/>
			<point x="115" y="622"/>
			<point x="111" y="641"/>
			<point x="103" y="657" type="curve"/>
			<point x="94" y="665"/>
			<point x="83" y="669"/>
			<point x="70" y="669" type="curve" smooth="yes"/>
			<point x="49" y="669"/>
			<point x="31" y="654"/>
			<point x="31" y="631" type="curve" smooth="yes"/>
			<point x="31" y="599"/>
			<point x="60" y="577"/>
			<point x="60" y="539" type="curve" smooth="yes"/>
			<point x="60" y="498"/>
			<point x="40" y="481"/>
			<point x="0" y="475" type="curve"/>
		</contour>
	</outline>
	<anchor name="_hornLC" x="0" y="455"/>
</glyph>
<glyph name="cedillacmb" format="2">
	<unicode hex="0327"/>
	<outline>
		<contour>
			<point x="-27" y="-87" type="line"/>
			<point x="17" y="-94"/>
			<point x="40" y="-109"/>
			<point x="40" y="-140" type="curve" smooth="yes"/>
			<point x="40" y="-170"/>
			<point x="20" y="-187"/>
			<point x="-23" y="-187" type="curve" smooth="yes"/>
			<point x="-38" y="-187"/>
			<point x="-53" y="-185"/>
			<point x="-67" y="-181" type="curve"/>
			<point x="-73" y="-209" type="line"/>
			<point x="-57" y="-215"/>
			<point x="-37" y="-220"/>
			<point x="-10" y="-220" type="curve" smooth="yes"/>
			<point x="64" y="-220"/>
			<point x="98" y="-185"/>
			<point x="98" y="-137" type="curve" smooth="yes"/>
			<point x="98" y="-88"/>
			<point x="58" y="-58"/>
			<point x="-13" y="-52" type="curve"/>
			<point x="5" y="-64" type="line"/>
			<point x="16" y="2" type="line"/>
			<point x="-12" y="2" type="line"/>
		</contour>
	</outline>
	<anchor name="_baseLC" x="0" y="0"/>
</glyph>
<glyph name="ogonekcmb" format="2">
	<unicode hex="0328"/>
	<outline>
		<contour>
			<point x="-103" y="-134" type="curve" smooth="yes"/>
			<point x="-103" y="-187"/>
			<point x="-65" y="-223"/>
			<point x="-8" y="-223" type="curve" smooth="yes"/>
			<point x="34" y="-223"/>
			<point x="77" y="-204"/>
			<point x="100" y="-169" type="curve"/>
			<point x="91" y="-157" type="line"/>
			<point x="73" y="-165"/>
			<point x="55" y="-169"/>
			<point x="38" y="-169" type="curve" smooth="yes"/>
			<point x="-4" y="-169"/>
			<point x="-34" y="-144"/>
			<point x="-34" y="-100" type="curve" smooth="yes"/>
			<point x="-34" y="-63"/>
			<point x="-12" y="-24"/>
			<point x="29" y="5" type="curve"/>
			<point x="14" y="13" type="line"/>
			<point x="14" y="5" type="line"/>
			<point x="-47" y="-23"/>
			<point x="-103" y="-73"/>
		</contour>
	</outline>
	<anchor name="_ogonek" x="0" y="0"/>
</glyph>
<glyph name="Theta" format="2">
	<unicode hex="0398"/>
	<advance width="651"/>
	<outline>
		<contour>
			<point x="215" y="239" type="line"/>
			<point x="232" y="239" type="line"/>
			<point x="266" y="328" type="line"/>
			<point x="266" y="346" type="line"/>
			<point x="232" y="435" type="line"/>
			<point x="215" y="435" type="line"/>
		</contour>
		<contour>
			<point x="421" y="239" type="line"/>
			<point x="438" y="239" type="line"/>
			<point x="438" y="435" type="line"/>
			<point x="421" y="435" type="line"/>
			<point x="386" y="346" type="line"/>
			<point x="386" y="328" type="line"/>
		</contour>
		<contour>
			<point x="326" y="-16" type="curve" smooth="yes"/>
			<point x="479" y="-16"/>
			<point x="612" y="105"/>
			<point x="612" y="330" type="curve" smooth="yes"/>
			<point x="612" y="560"/>
			<point x="479" y="680"/>
			<point x="326" y="680" type="curve" smooth="yes"/>
			<point x="173" y="680"/>
			<point x="39" y="557"/>
			<point x="39" y="333" type="curve" smooth="yes"/>
			<point x="39" y="102"/>
			<point x="172" y="-16"/>
		</contour>
		<contour>
			<point x="326" y="8" type="curve" smooth="yes"/>
			<point x="205" y="8"/>
			<point x="152" y="148"/>
			<point x="152" y="333" type="curve" smooth="yes"/>
			<point x="152" y="519"/>
			<point x="205" y="656"/>
			<point x="326" y="656" type="curve" smooth="yes"/>
			<point x="446" y="656"/>
			<point x="499" y="515"/>
			<point x="499" y="330" type="curve" smooth="yes"/>
			<point x="499" y="145"/>
			<point x="446" y="8"/>
		</contour>
		<contour>
			<point x="246" y="305" type="line"/>
			<point x="407" y="305" type="line"/>
			<point x="407" y="369" type="line"/>
			<point x="246" y="369" type="line"/>
		</contour>
	</outline>
</glyph>
<glyph name="Phi" format="2">
	<unicode hex="03A6"/>
	<advance width="708"/>
	<outline>
		<contour>
			<point x="34" y="340" type="curve" smooth="yes"/>
			<point x="34" y="183"/>
			<point x="154" y="106"/>
			<point x="321" y="106" type="curve" smooth="yes"/>
			<point x="351" y="106" type="line"/>
			<point x="351" y="129" type="line"/>
			<point x="314" y="129" type="line" smooth="yes"/>
			<point x="198" y="129"/>
			<point x="139" y="218"/>
			<point x="139" y="340" type="curve" smooth="yes"/>
			<point x="139" y="461"/>
			<point x="195" y="555"/>
			<point x="314" y="555" type="curve" smooth="yes"/>
			<point x="351" y="555" type="line"/>
			<point x="351" y="578" type="line"/>
			<point x="320" y="578" type="line"/>
			<point x="150" y="578"/>
			<point x="34" y="486"/>
		</contour>
		<contour>
			<point x="357" y="106" type="line"/>
			<point x="386" y="106" type="line" smooth="yes"/>
			<point x="553" y="106"/>
			<point x="673" y="191"/>
			<point x="673" y="343" type="curve" smooth="yes"/>
			<point x="673" y="494"/>
			<point x="557" y="578"/>
			<point x="388" y="578" type="curve"/>
			<point x="357" y="578" type="line"/>
			<point x="357" y="555" type="line"/>
			<point x="393" y="555" type="line" smooth="yes"/>
			<point x="513" y="555"/>
			<point x="569" y="464"/>
			<point x="569" y="343" type="curve" smooth="yes"/>
			<point x="569" y="221"/>
			<point x="509" y="129"/>
			<point x="393" y="129" type="curve" smooth="yes"/>
			<point x="357" y="129" type="line"/>
		</contour>
		<contour>
			<point x="305" y="0" type="curve"/>
			<point x="403" y="0" type="line"/>
			<point x="403" y="106"/>
			<point x="403" y="213"/>
			<point x="403" y="319" type="curve" smooth="yes"/>
			<point x="403" y="357" type="line" smooth="yes"/>
			<point x="403" y="460"/>
			<point x="403" y="569"/>
			<point x="403" y="673" type="curve"/>
			<point x="305" y="673" type="line"/>
			<point x="305" y="569"/>
			<point x="305" y="460"/>
			<point x="305" y="357" type="curve" smooth="yes"/>
			<point x="305" y="319" type="line" smooth="yes"/>
			<point x="305" y="213"/>
			<point x="305" y="106"/>
		</contour>
		<contour>
			<point x="228" y="654" type="line"/>
			<point x="332" y="640" type="line"/>
			<point x="376" y="640" type="line"/>
			<point x="480" y="654" type="line"/>
			<point x="480" y="673" type="line"/>
			<point x="228" y="673" type="line"/>
		</contour>
		<contour>
			<point x="228" y="0" type="line"/>
			<point x="480" y="0" type="line"/>
			<point x="480" y="19" type="line"/>
			<point x="376" y="32" type="line"/>
			<point x="332" y="32" type="line"/>
			<point x="228" y="19" type="line"/>
		</contour>
	</outline>
</glyph>
<glyph name="Psi" format="2">
	<unicode hex="03A8"/>
	<advance width="754"/>
	<outline>
		<contour>
			<point x="377" y="235" type="curve" smooth="yes"/>
			<point x="575" y="235"/>
			<point x="636" y="298"/>
			<point x="663" y="495" type="curve" smooth="yes"/>
			<point x="674" y="569" type="line" smooth="yes"/>
			<point x="680" y="617"/>
			<point x="689" y="638"/>
			<point x="718" y="642" type="curve" smooth="yes"/>
			<point x="742" y="645" type="line"/>
			<point x="742" y="664" type="line"/>
			<point x="701" y="664" type="line" smooth="yes"/>
			<point x="605" y="664"/>
			<point x="574" y="635"/>
			<point x="565" y="555" type="curve" smooth="yes"/>
			<point x="557" y="484" type="line" smooth="yes"/>
			<point x="539" y="331"/>
			<point x="522" y="262"/>
			<point x="377" y="262" type="curve" smooth="yes"/>
			<point x="232" y="262"/>
			<point x="215" y="331"/>
			<point x="197" y="484" type="curve" smooth="yes"/>
			<point x="189" y="555" type="line" smooth="yes"/>
			<point x="181" y="635"/>
			<point x="149" y="664"/>
			<point x="53" y="664" type="curve" smooth="yes"/>
			<point x="12" y="664" type="line"/>
			<point x="12" y="645" type="line"/>
			<point x="36" y="642" type="line" smooth="yes"/>
			<point x="65" y="638"/>
			<point x="74" y="617"/>
			<point x="80" y="569" type="curve" smooth="yes"/>
			<point x="91" y="495" type="line" smooth="yes"/>
			<point x="118" y="298"/>
			<point x="180" y="235"/>
		</contour>
		<contour>
			<point x="322" y="0" type="curve"/>
			<point x="431" y="0" type="line"/>
			<point x="427" y="79"/>
			<point x="427" y="208"/>
			<point x="427" y="313" type="curve" smooth="yes"/>
			<point x="427" y="357" type="line" smooth="yes"/>
			<point x="427" y="459"/>
			<point x="428" y="585"/>
			<point x="432" y="664" type="curve"/>
			<point x="322" y="664" type="line"/>
			<point x="326" y="585"/>
			<point x="327" y="459"/>
			<point x="327" y="357" type="curve" smooth="yes"/>
			<point x="327" y="313" type="line" smooth="yes"/>
			<point x="327" y="208"/>
			<point x="326" y="79"/>
		</contour>
		<contour>
			<point x="250" y="0" type="line"/>
			<point x="504" y="0" type="line"/>
			<point x="504" y="19" type="line"/>
			<point x="400" y="32" type="line"/>
			<point x="354" y="32" type="line"/>
			<point x="250" y="19" type="line"/>
		</contour>
		<contour>
			<point x="250" y="645" type="line"/>
			<point x="354" y="632" type="line"/>
			<point x="400" y="632" type="line"/>
			<point x="504" y="645" type="line"/>
			<point x="504" y="664" type="line"/>
			<point x="250" y="664" type="line"/>
		</contour>
	</outline>
</glyph>
<glyph name="alpha" format="2">
	<unicode hex="03B1"/>
	<advance width="533"/>
	<outline>
		<contour>
			<point x="207" y="-13" type="curve" smooth="yes"/>
			<point x="273" y="-13"/>
			<point x="340" y="25"/>
			<point x="360" y="137" type="curve"/>
			<point x="349" y="132" type="line"/>
			<point x="348" y="18"/>
			<point x="381" y="-13"/>
			<point x="440" y="-13" type="curve" smooth="yes"/>
			<point x="486" y="-13"/>
			<point x="523" y="19"/>
			<point x="539" y="62" type="curve"/>
			<point x="528" y="73" type="line"/>
			<point x="515" y="60"/>
			<point x="498" y="53"/>
			<point x="481" y="53" type="curve" smooth="yes"/>
			<point x="452" y="53"/>
			<point x="436" y="65"/>
			<point x="436" y="126" type="curve" smooth="yes"/>
			<point x="436" y="195"/>
			<point x="447" y="338"/>
			<point x="466" y="459" type="curve"/>
			<point x="455" y="468" type="line"/>
			<point x="359" y="445" type="line"/>
			<point x="355" y="366" type="line"/>
			<point x="348" y="176" type="line"/>
			<point x="343" y="82"/>
			<point x="293" y="38"/>
			<point x="243" y="38" type="curve" smooth="yes"/>
			<point x="173" y="38"/>
			<point x="142" y="99"/>
			<point x="142" y="227" type="curve" smooth="yes"/>
			<point x="142" y="339"/>
			<point x="179" y="418"/>
			<point x="259" y="418" type="curve" smooth="yes"/>
			<point x="308" y="418"/>
			<point x="338" y="387"/>
			<point x="370" y="330" type="curve"/>
			<point x="379" y="361" type="line"/>
			<point x="367" y="361" type="line"/>
			<point x="342" y="423"/>
			<point x="300" y="468"/>
			<point x="227" y="468" type="curve" smooth="yes"/>
			<point x="115" y="468"/>
			<point x="39" y="373"/>
			<point x="39" y="208" type="curve" smooth="yes"/>
			<point x="39" y="71"/>
			<point x="101" y="-13"/>
		</contour>
	</outline>
	<anchor name="aboveLC" x="269" y="475"/>
	<anchor name="belowLC" x="276" y="-20"/>
</glyph>
<glyph name="beta" format="2">
	<unicode hex="03B2"/>
	<advance width="547"/>
	<outline>
		<contour>
			<point x="74" y="-203" type="line"/>
			<point x="84" y="-212" type="line"/>
			<point x="188" y="-192" type="line"/>
			<point x="176" y="68" type="line"/>
			<point x="179" y="74" type="line"/>
			<point x="179" y="529" type="line" smooth="yes"/>
			<point x="179" y="657"/>
			<point x="220" y="711"/>
			<point x="280" y="711" type="curve" smooth="yes"/>
			<point x="336" y="711"/>
			<point x="369" y="661"/>
			<point x="369" y="569" type="curve" smooth="yes"/>
			<point x="369" y="481"/>
			<point x="318" y="412"/>
			<point x="227" y="388" type="curve"/>
			<point x="229" y="369" type="line"/>
			<point x="359" y="370"/>
			<point x="408" y="285"/>
			<point x="408" y="200" type="curve" smooth="yes"/>
			<point x="408" y="100"/>
			<point x="362" y="36"/>
			<point x="280" y="36" type="curve" smooth="yes"/>
			<point x="234" y="36"/>
			<point x="199" y="54"/>
			<point x="160" y="103" type="curve"/>
			<point x="163" y="89" type="line"/>
			<point x="165" y="82" type="line"/>
			<point x="196" y="15"/>
			<point x="247" y="-13"/>
			<point x="313" y="-13" type="curve" smooth="yes"/>
			<point x="417" y="-13"/>
			<point x="508" y="61"/>
			<point x="508" y="192" type="curve" smooth="yes"/>
			<point x="508" y="335"/>
			<point x="383" y="392"/>
			<point x="248" y="389" type="curve"/>
			<point x="253" y="379" type="line"/>
			<point x="401" y="407"/>
			<point x="460" y="489"/>
			<point x="460" y="576" type="curve" smooth="yes"/>
			<point x="460" y="674"/>
			<point x="392" y="734"/>
			<point x="291" y="734" type="curve" smooth="yes"/>
			<point x="160" y="734"/>
			<point x="81" y="642"/>
			<point x="79" y="473" type="curve" smooth="yes"/>
			<point x="76" y="28" type="line"/>
		</contour>
	</outline>
</glyph>
<glyph name="delta" format="2">
	<unicode hex="03B4"/>
	<advance width="505"/>
	<outline>
		<contour>
			<point x="253" y="-13" type="curve" smooth="yes"/>
			<point x="367" y="-13"/>
			<point x="467" y="76"/>
			<point x="467" y="210" type="curve" smooth="yes"/>
			<point x="467" y="345"/>
			<point x="383" y="411"/>
			<point x="300" y="465" type="curve" smooth="yes"/>
			<point x="227" y="514"/>
			<point x="163" y="556"/>
			<point x="163" y="616" type="curve" smooth="yes"/>
			<point x="163" y="671"/>
			<point x="207" y="711"/>
			<point x="272" y="711" type="curve" smooth="yes"/>
			<point x="297" y="711"/>
			<point x="315" y="703"/>
			<point x="330" y="692" type="curve"/>
			<point x="327" y="715" type="line"/>
			<point x="265" y="718" type="line"/>
			<point x="324" y="651" type="line" smooth="yes"/>
			<point x="351" y="620"/>
			<point x="366" y="613"/>
			<point x="389" y="613" type="curve" smooth="yes"/>
			<point x="413" y="613"/>
			<point x="432" y="630"/>
			<point x="434" y="660" type="curve"/>
			<point x="416" y="699"/>
			<point x="352" y="732"/>
			<point x="272" y="732" type="curve" smooth="yes"/>
			<point x="153" y="732"/>
			<point x="82" y="669"/>
			<point x="82" y="582" type="curve" smooth="yes"/>
			<point x="82" y="497"/>
			<point x="154" y="449"/>
			<point x="229" y="399" type="curve" smooth="yes"/>
			<point x="296" y="355"/>
			<point x="361" y="308"/>
			<point x="361" y="194" type="curve" smooth="yes"/>
			<point x="361" y="81"/>
			<point x="321" y="10"/>
			<point x="253" y="10" type="curve" smooth="yes"/>
			<point x="182" y="10"/>
			<point x="144" y="79"/>
			<point x="144" y="196" type="curve" smooth="yes"/>
			<point x="144" y="300"/>
			<point x="183" y="377"/>
			<point x="263" y="409" type="curve"/>
			<point x="248" y="429" type="line"/>
			<point x="248" y="420" type="line"/>
			<point x="129" y="397"/>
			<point x="39" y="325"/>
			<point x="39" y="193" type="curve" smooth="yes"/>
			<point x="39" y="77"/>
			<point x="123" y="-13"/>
		</contour>
	</outline>
</glyph>
<glyph name="zeta" format="2">
	<unicode hex="03B6"/>
	<advance width="412"/>
	<outline>
		<contour>
			<point x="287" y="-204" type="curve"/>
			<point x="314" y="-204" type="line"/>
			<point x="358" y="-154"/>
			<point x="393" y="-94"/>
			<point x="393" y="-38" type="curve" smooth="yes"/>
			<point x="393" y="40"/>
			<point x="346" y="60"/>
			<point x="264" y="86" type="curve" smooth="yes"/>
			<point x="168" y="116"/>
			<point x="136" y="145"/>
			<point x="136" y="219" type="curve" smooth="yes"/>
			<point x="136" y="318"/>
			<point x="197" y="447"/>
			<point x="407" y="683" type="curve"/>
			<point x="407" y="728" type="line"/>
			<point x="59" y="746" type="line"/>
			<point x="59" y="665" type="line"/>
			<point x="369" y="674" type="line"/>
			<point x="369" y="667" type="line"/>
			<point x="379" y="690" type="line"/>
			<point x="136" y="464"/>
			<point x="39" y="311"/>
			<point x="39" y="188" type="curve" smooth="yes"/>
			<point x="39" y="75"/>
			<point x="110" y="29"/>
			<point x="215" y="-4" type="curve" smooth="yes"/>
			<point x="282" y="-25"/>
			<point x="321" y="-39"/>
			<point x="321" y="-80" type="curve" smooth="yes"/>
			<point x="321" y="-115"/>
			<point x="304" y="-158"/>
		</contour>
	</outline>
</glyph>
<glyph name="theta" format="2">
	<unicode hex="03B8"/>
	<advance width="514"/>
	<outline>
		<contour>
			<point x="254" y="-13" type="curve" smooth="yes"/>
			<point x="365" y="-13"/>
			<point x="472" y="88"/>
			<point x="472" y="373" type="curve" smooth="yes"/>
			<point x="472" y="637"/>
			<point x="378" y="734"/>
			<point x="260" y="734" type="curve" smooth="yes"/>
			<point x="149" y="734"/>
			<point x="42" y="627"/>
			<point x="42" y="343" type="curve" smooth="yes"/>
			<point x="42" y="79"/>
			<point x="136" y="-13"/>
		</contour>
		<contour>
			<point x="265" y="9" type="curve" smooth="yes"/>
			<point x="197" y="9"/>
			<point x="146" y="119"/>
			<point x="146" y="376" type="curve" smooth="yes"/>
			<point x="146" y="630"/>
			<point x="185" y="712"/>
			<point x="249" y="712" type="curve" smooth="yes"/>
			<point x="318" y="712"/>
			<point x="369" y="597"/>
			<point x="369" y="339" type="curve" smooth="yes"/>
			<point x="369" y="85"/>
			<point x="329" y="9"/>
		</contour>
		<contour>
			<point x="85" y="330" type="line"/>
			<point x="434" y="330" type="line"/>
			<point x="434" y="387" type="line"/>
			<point x="85" y="387" type="line"/>
		</contour>
	</outline>
</glyph>
<glyph name="mu" format="2">
	<unicode hex="03BC"/>
	<unicode hex="00B5"/>
	<advance width="546"/>
	<outline>
		<contour>
			<point x="73" y="-203" type="line"/>
			<point x="84" y="-212" type="line"/>
			<point x="183" y="-193" type="line"/>
			<point x="162" y="76" type="line"/>
			<point x="169" y="94" type="line"/>
			<point x="176" y="209"/>
			<point x="182" y="337"/>
			<point x="189" y="459" type="curve"/>
			<point x="177" y="468" type="line"/>
			<point x="78" y="441" type="line"/>
			<point x="93" y="98" type="line"/>
		</contour>
		<contour>
			<point x="452" y="-13" type="curve" smooth="yes"/>
			<point x="495" y="-13"/>
			<point x="526" y="13"/>
			<point x="545" y="59" type="curve"/>
			<point x="534" y="70" type="line"/>
			<point x="520" y="58"/>
			<point x="506" y="53"/>
			<point x="492" y="53" type="curve" smooth="yes"/>
			<point x="466" y="53"/>
			<point x="446" y="64"/>
			<point x="446" y="126" type="curve" smooth="yes"/>
			<point x="446" y="185"/>
			<point x="453" y="267"/>
			<point x="465" y="459" type="curve"/>
			<point x="453" y="468" type="line"/>
			<point x="354" y="441" type="line"/>
			<point x="364" y="130" type="line"/>
			<point x="365" y="108" type="line" smooth="yes"/>
			<point x="370" y="33"/>
			<point x="390" y="-13"/>
		</contour>
		<contour>
			<point x="248" y="-13" type="curve" smooth="yes"/>
			<point x="306" y="-13"/>
			<point x="351" y="30"/>
			<point x="379" y="125" type="curve"/>
			<point x="385" y="127" type="line"/>
			<point x="372" y="142" type="line"/>
			<point x="344" y="71"/>
			<point x="305" y="53"/>
			<point x="263" y="53" type="curve" smooth="yes"/>
			<point x="229" y="53"/>
			<point x="189" y="72"/>
			<point x="165" y="128" type="curve"/>
			<point x="150" y="101" type="line"/>
			<point x="139" y="82" type="line"/>
			<point x="159" y="18"/>
			<point x="202" y="-13"/>
		</contour>
	</outline>
</glyph>
<glyph name="nu" format="2">
	<unicode hex="03BD"/>
	<advance width="475"/>
	<outline>
		<contour>
			<point x="203" y="-4" type="curve"/>
			<point x="270" y="-4" type="line"/>
			<point x="349" y="128"/>
			<point x="445" y="307"/>
			<point x="445" y="411" type="curve" smooth="yes"/>
			<point x="445" y="431"/>
			<point x="441" y="445"/>
			<point x="436" y="457" type="curve"/>
			<point x="428" y="464"/>
			<point x="419" y="468"/>
			<point x="399" y="468" type="curve" smooth="yes"/>
			<point x="372" y="468"/>
			<point x="349" y="449"/>
			<point x="349" y="410" type="curve" smooth="yes"/>
			<point x="349" y="381"/>
			<point x="360" y="342"/>
			<point x="388" y="265" type="curve"/>
			<point x="399" y="328" type="line"/>
			<point x="370" y="226"/>
			<point x="323" y="136"/>
			<point x="266" y="37" type="curve"/>
			<point x="258" y="24" type="line"/>
			<point x="279" y="24" type="line"/>
			<point x="259" y="118"/>
			<point x="235" y="219"/>
			<point x="210" y="317" type="curve" smooth="yes"/>
			<point x="185" y="426"/>
			<point x="166" y="468"/>
			<point x="105" y="468" type="curve" smooth="yes"/>
			<point x="61" y="468"/>
			<point x="25" y="437"/>
			<point x="4" y="403" type="curve"/>
			<point x="13" y="390" type="line"/>
			<point x="26" y="399"/>
			<point x="40" y="402"/>
			<point x="53" y="402" type="curve" smooth="yes"/>
			<point x="82" y="402"/>
			<point x="96" y="373"/>
			<point x="115" y="306" type="curve" smooth="yes"/>
			<point x="146" y="203"/>
			<point x="174" y="100"/>
		</contour>
	</outline>
</glyph>
<glyph name="chi" format="2">
	<unicode hex="03C7"/>
	<advance width="484"/>
	<outline>
		<contour>
			<point x="16" y="-205" type="line"/>
			<point x="120" y="-212" type="line"/>
			<point x="264" y="96" type="line"/>
			<point x="464" y="445" type="line"/>
			<point x="464" y="459" type="line"/>
			<point x="359" y="466" type="line"/>
			<point x="227" y="188" type="line"/>
			<point x="16" y="-192" type="line"/>
		</contour>
		<contour>
			<point x="401" y="-209" type="curve" smooth="yes"/>
			<point x="452" y="-209"/>
			<point x="481" y="-172"/>
			<point x="490" y="-123" type="curve"/>
			<point x="482" y="-111" type="line"/>
			<point x="465" y="-120"/>
			<point x="447" y="-124"/>
			<point x="428" y="-124" type="curve" smooth="yes"/>
			<point x="379" y="-124"/>
			<point x="344" y="-101"/>
			<point x="309" y="-4" type="curve" smooth="yes"/>
			<point x="262" y="125" type="line"/>
			<point x="241" y="95" type="line"/>
			<point x="247" y="95" type="line"/>
			<point x="288" y="-52" type="line" smooth="yes"/>
			<point x="317" y="-162"/>
			<point x="341" y="-209"/>
		</contour>
		<contour>
			<point x="229" y="125" type="line"/>
			<point x="249" y="156" type="line"/>
			<point x="243" y="156" type="line"/>
			<point x="202" y="311" type="line" smooth="yes"/>
			<point x="173" y="421"/>
			<point x="151" y="468"/>
			<point x="91" y="468" type="curve" smooth="yes"/>
			<point x="40" y="468"/>
			<point x="9" y="431"/>
			<point x="0" y="382" type="curve"/>
			<point x="7" y="370" type="line"/>
			<point x="25" y="379"/>
			<point x="45" y="383"/>
			<point x="64" y="383" type="curve" smooth="yes"/>
			<point x="113" y="383"/>
			<point x="147" y="360"/>
			<point x="181" y="264" type="curve" smooth="yes"/>
		</contour>
	</outline>
</glyph>
<glyph name="psi" format="2">
	<unicode hex="03C8"/>
	<advance width="652"/>
	<outline>
		<contour>
			<point x="312" y="-212" type="line"/>
			<point x="408" y="-193" type="line"/>
			<point x="400" y="12" type="line"/>
			<point x="380" y="628" type="line"/>
			<point x="333" y="628" type="line"/>
			<point x="312" y="12" type="line"/>
			<point x="301" y="-203" type="line"/>
		</contour>
		<contour>
			<point x="348" y="-13" type="curve"/>
			<point x="358" y="41" type="line"/>
			<point x="244" y="41"/>
			<point x="166" y="65"/>
			<point x="166" y="193" type="curve" smooth="yes"/>
			<point x="166" y="246"/>
			<point x="176" y="313"/>
			<point x="176" y="377" type="curve" smooth="yes"/>
			<point x="176" y="431"/>
			<point x="154" y="468"/>
			<point x="101" y="468" type="curve" smooth="yes"/>
			<point x="54" y="468"/>
			<point x="19" y="438"/>
			<point x="1" y="407" type="curve"/>
			<point x="10" y="393" type="line"/>
			<point x="22" y="398"/>
			<point x="32" y="402"/>
			<point x="46" y="402" type="curve" smooth="yes"/>
			<point x="69" y="402"/>
			<point x="79" y="388"/>
			<point x="79" y="357" type="curve" smooth="yes"/>
			<point x="79" y="316"/>
			<point x="69" y="238"/>
			<point x="69" y="184" type="curve" smooth="yes"/>
			<point x="69" y="28"/>
			<point x="199" y="-13"/>
		</contour>
		<contour>
			<point x="352" y="-13" type="line"/>
			<point x="528" y="-13"/>
			<point x="602" y="103"/>
			<point x="602" y="285" type="curve" smooth="yes"/>
			<point x="602" y="348"/>
			<point x="600" y="406"/>
			<point x="586" y="452" type="curve"/>
			<point x="577" y="462"/>
			<point x="563" y="468"/>
			<point x="548" y="468" type="curve" smooth="yes"/>
			<point x="522" y="468"/>
			<point x="502" y="451"/>
			<point x="502" y="420" type="curve" smooth="yes"/>
			<point x="502" y="389"/>
			<point x="527" y="349"/>
			<point x="573" y="266" type="curve"/>
			<point x="583" y="311" type="line"/>
			<point x="567" y="311" type="line"/>
			<point x="567" y="286"/>
			<point x="567" y="262"/>
			<point x="567" y="239" type="curve" smooth="yes"/>
			<point x="565" y="109"/>
			<point x="501" y="41"/>
			<point x="365" y="41" type="curve"/>
		</contour>
	</outline>
</glyph>
<glyph name="omega" format="2">
	<unicode hex="03C9"/>
	<advance width="717"/>
	<outline>
		<contour>
			<point x="222" y="-13" type="curve" smooth="yes"/>
			<point x="299" y="-13"/>
			<point x="355" y="34"/>
			<point x="361" y="128" type="curve"/>
			<point x="356" y="128" type="line"/>
			<point x="362" y="34"/>
			<point x="416" y="-13"/>
			<point x="495" y="-13" type="curve" smooth="yes"/>
			<point x="596" y="-13"/>
			<point x="675" y="62"/>
			<point x="675" y="197" type="curve" smooth="yes"/>
			<point x="675" y="347"/>
			<point x="584" y="425"/>
			<point x="478" y="468" type="curve"/>
			<point x="469" y="455" type="line"/>
			<point x="537" y="401"/>
			<point x="575" y="321"/>
			<point x="575" y="205" type="curve" smooth="yes"/>
			<point x="575" y="100"/>
			<point x="538" y="41"/>
			<point x="482" y="41" type="curve" smooth="yes"/>
			<point x="436" y="41"/>
			<point x="400" y="72"/>
			<point x="400" y="170" type="curve" smooth="yes"/>
			<point x="400" y="202"/>
			<point x="403" y="263"/>
			<point x="408" y="325" type="curve"/>
			<point x="396" y="334" type="line"/>
			<point x="308" y="312" type="line"/>
			<point x="315" y="241"/>
			<point x="317" y="198"/>
			<point x="317" y="170" type="curve" smooth="yes"/>
			<point x="317" y="72"/>
			<point x="281" y="41"/>
			<point x="235" y="41" type="curve" smooth="yes"/>
			<point x="179" y="41"/>
			<point x="143" y="100"/>
			<point x="143" y="205" type="curve" smooth="yes"/>
			<point x="143" y="321"/>
			<point x="180" y="401"/>
			<point x="249" y="455" type="curve"/>
			<point x="239" y="468" type="line"/>
			<point x="133" y="425"/>
			<point x="42" y="347"/>
			<point x="42" y="197" type="curve" smooth="yes"/>
			<point x="42" y="62"/>
			<point x="119" y="-13"/>
		</contour>
	</outline>
	<anchor name="aboveLC" x="359" y="475"/>
	<anchor name="belowLC" x="359" y="-20"/>
</glyph>
<glyph name="kai" format="2">
	<unicode hex="03D7"/>
	<advance width="564"/>
	<outline>
		<contour>
			<point x="273" y="-203" type="curve" smooth="yes"/>
			<point x="403" y="-203"/>
			<point x="506" y="-134"/>
			<point x="548" y="74" type="curve"/>
			<point x="540" y="85" type="line"/>
			<point x="531" y="79"/>
			<point x="514" y="71"/>
			<point x="492" y="71" type="curve" smooth="yes"/>
			<point x="436" y="71"/>
			<point x="412" y="119"/>
			<point x="310" y="282" type="curve"/>
			<point x="290" y="258" type="line"/>
			<point x="382" y="24"/>
			<point x="399" y="-13"/>
			<point x="459" y="-13" type="curve" smooth="yes"/>
			<point x="489" y="-13"/>
			<point x="514" y="0"/>
			<point x="530" y="21" type="curve"/>
			<point x="530" y="26" type="line"/>
			<point x="520" y="26" type="line"/>
			<point x="475" y="-70"/>
			<point x="391" y="-119"/>
			<point x="284" y="-119" type="curve" smooth="yes"/>
			<point x="157" y="-119"/>
			<point x="71" y="-77"/>
			<point x="45" y="27" type="curve"/>
			<point x="25" y="22" type="line"/>
			<point x="26" y="-125"/>
			<point x="124" y="-203"/>
		</contour>
		<contour>
			<point x="146" y="-13" type="line"/>
			<point x="246" y="4" type="line"/>
			<point x="244" y="65"/>
			<point x="244" y="126"/>
			<point x="243" y="186" type="curve"/>
			<point x="238" y="186" type="line"/>
			<point x="242" y="238"/>
			<point x="244" y="288"/>
			<point x="244" y="339" type="curve" smooth="yes"/>
			<point x="244" y="424"/>
			<point x="220" y="466"/>
			<point x="162" y="466" type="curve" smooth="yes"/>
			<point x="120" y="466"/>
			<point x="81" y="435"/>
			<point x="61" y="401" type="curve"/>
			<point x="69" y="387" type="line"/>
			<point x="84" y="396"/>
			<point x="98" y="399"/>
			<point x="111" y="399" type="curve" smooth="yes"/>
			<point x="140" y="399"/>
			<point x="153" y="384"/>
			<point x="151" y="321" type="curve" smooth="yes"/>
			<point x="146" y="168" type="line"/>
			<point x="135" y="-4" type="line"/>
		</contour>
		<contour>
			<point x="216" y="117" type="line"/>
			<point x="244" y="170"/>
			<point x="270" y="216"/>
			<point x="299" y="259" type="curve"/>
			<point x="306" y="269" type="line"/>
			<point x="344" y="324"/>
			<point x="387" y="375"/>
			<point x="443" y="412" type="curve"/>
			<point x="367" y="367" type="line"/>
			<point x="459" y="369" type="line" smooth="yes"/>
			<point x="509" y="370"/>
			<point x="542" y="387"/>
			<point x="542" y="423" type="curve" smooth="yes"/>
			<point x="542" y="451"/>
			<point x="521" y="464"/>
			<point x="499" y="468" type="curve"/>
			<point x="467" y="465"/>
			<point x="442" y="451"/>
			<point x="407" y="423" type="curve" smooth="yes"/>
			<point x="342" y="369"/>
			<point x="263" y="260"/>
			<point x="216" y="160" type="curve"/>
			<point x="206" y="137" type="line"/>
			<point x="194" y="137" type="line"/>
		</contour>
	</outline>
</glyph>
<glyph name="koppa" format="2">
	<unicode hex="03D9"/>
	<advance width="513"/>
	<outline>
		<contour>
			<point x="215" y="-212" type="line"/>
			<point x="315" y="-192" type="line"/>
			<point x="301" y="1" type="line"/>
			<point x="220" y="1" type="line"/>
			<point x="204" y="-203" type="line"/>
		</contour>
		<component base="omicron"/>
	</outline>
	<anchor name="aboveLC" x="257" y="475"/>
</glyph>
<glyph name="stigma" format="2">
	<unicode hex="03DB"/>
	<advance width="432"/>
	<outline>
		<contour>
			<point x="287" y="-204" type="curve"/>
			<point x="314" y="-204" type="line"/>
			<point x="358" y="-154"/>
			<point x="394" y="-94"/>
			<point x="394" y="-38" type="curve" smooth="yes"/>
			<point x="394" y="40"/>
			<point x="345" y="60"/>
			<point x="260" y="87" type="curve" smooth="yes"/>
			<point x="150" y="122"/>
			<point x="94" y="139"/>
			<point x="94" y="226" type="curve" smooth="yes"/>
			<point x="94" y="292"/>
			<point x="137" y="336"/>
			<point x="221" y="345" type="curve" smooth="yes"/>
			<point x="280" y="351" type="line" smooth="yes"/>
			<point x="359" y="359"/>
			<point x="381" y="376"/>
			<point x="408" y="481" type="curve" smooth="yes"/>
			<point x="425" y="547" type="line"/>
			<point x="401" y="552" type="line"/>
			<point x="383" y="511" type="line" smooth="yes"/>
			<point x="364" y="472"/>
			<point x="347" y="455"/>
			<point x="297" y="450" type="curve" smooth="yes"/>
			<point x="227" y="442" type="line" smooth="yes"/>
			<point x="125" y="432"/>
			<point x="39" y="355"/>
			<point x="39" y="211" type="curve" smooth="yes"/>
			<point x="39" y="63"/>
			<point x="111" y="29"/>
			<point x="211" y="-3" type="curve" smooth="yes"/>
			<point x="286" y="-27"/>
			<point x="322" y="-39"/>
			<point x="322" y="-80" type="curve" smooth="yes"/>
			<point x="322" y="-115"/>
			<point x="305" y="-158"/>
		</contour>
	</outline>
</glyph>
<glyph name="digamma" format="2">
	<unicode hex="03DD"/>
	<advance width="399"/>
	<outline>
		<contour>
			<point x="73" y="-203" type="line"/>
			<point x="84" y="-212" type="line"/>
			<point x="182" y="-193" type="line"/>
			<point x="171" y="96" type="line"/>
			<point x="176" y="214"/>
			<point x="182" y="331"/>
			<point x="187" y="449" type="curve"/>
			<point x="145" y="420" type="line"/>
			<point x="391" y="405" type="line"/>
			<point x="391" y="469" type="line"/>
			<point x="78" y="456" type="line"/>
			<point x="93" y="99" type="line"/>
		</contour>
		<contour>
			<point x="120" y="152" type="line"/>
			<point x="366" y="135" type="line"/>
			<point x="366" y="197" type="line"/>
			<point x="120" y="191" type="line"/>
		</contour>
	</outline>
	<anchor name="aboveLC" x="238" y="475"/>
</glyph>
<glyph name="sampi" format="2">
	<unicode hex="03E1"/>
	<advance width="532"/>
	<outline>
		<contour>
			<point x="122" y="105" type="line"/>
			<point x="426" y="242" type="line"/>
			<point x="412" y="273" type="line"/>
			<point x="99" y="174" type="line"/>
		</contour>
		<contour>
			<point x="336" y="-135" type="curve"/>
			<point x="358" y="-143" type="line"/>
			<point x="435" y="-32"/>
			<point x="473" y="94"/>
			<point x="473" y="211" type="curve" smooth="yes"/>
			<point x="473" y="459"/>
			<point x="300" y="683"/>
			<point x="51" y="713" type="curve"/>
			<point x="45" y="691" type="line"/>
			<point x="280" y="606"/>
			<point x="382" y="370"/>
			<point x="382" y="137" type="curve" smooth="yes"/>
			<point x="382" y="45"/>
			<point x="365" y="-54"/>
		</contour>
		<contour>
			<point x="55" y="310" type="line"/>
			<point x="361" y="441" type="line"/>
			<point x="349" y="473" type="line"/>
			<point x="33" y="378" type="line"/>
		</contour>
	</outline>
</glyph>
<glyph name="Dje" format="2">
	<unicode hex="0402"/>
	<advance width="665"/>
	<outline>
		<contour>
			<point x="24" y="473" type="line"/>
			<point x="43" y="473" type="line"/>
			<point x="111" y="652" type="line"/>
			<point x="74" y="639" type="line"/>
			<point x="500" y="639" type="line"/>
			<point x="463" y="652" type="line"/>
			<point x="531" y="473" type="line"/>
			<point x="550" y="473" type="line"/>
			<point x="538" y="664" type="line"/>
			<point x="36" y="664" type="line"/>
		</contour>
		<contour>
			<point x="217" y="0" type="curve"/>
			<point x="329" y="0" type="line"/>
			<point x="325" y="79"/>
			<point x="325" y="206"/>
			<point x="325" y="310" type="curve" smooth="yes"/>
			<point x="325" y="354" type="line" smooth="yes"/>
			<point x="325" y="456"/>
			<point x="325" y="585"/>
			<point x="329" y="664" type="curve"/>
			<point x="218" y="664" type="line"/>
			<point x="222" y="585"/>
			<point x="222" y="459"/>
			<point x="222" y="357" type="curve" smooth="yes"/>
			<point x="222" y="313" type="line" smooth="yes"/>
			<point x="222" y="208"/>
			<point x="221" y="79"/>
		</contour>
		<contour>
			<point x="402" y="-56" type="line"/>
			<point x="580" y="-45"/>
			<point x="630" y="69"/>
			<point x="630" y="174" type="curve" smooth="yes"/>
			<point x="630" y="336"/>
			<point x="554" y="379"/>
			<point x="450" y="379" type="curve" smooth="yes"/>
			<point x="391" y="379"/>
			<point x="314" y="364"/>
			<point x="261" y="347" type="curve"/>
			<point x="261" y="336" type="line"/>
			<point x="319" y="344"/>
			<point x="360" y="347"/>
			<point x="405" y="347" type="curve" smooth="yes"/>
			<point x="491" y="347"/>
			<point x="527" y="299"/>
			<point x="527" y="163" type="curve" smooth="yes"/>
			<point x="527" y="42"/>
			<point x="479" y="-22"/>
			<point x="398" y="-39" type="curve"/>
		</contour>
		<contour>
			<point x="135" y="0" type="line"/>
			<point x="305" y="0" type="line"/>
			<point x="299" y="32" type="line"/>
			<point x="247" y="32" type="line"/>
			<point x="135" y="19" type="line"/>
		</contour>
	</outline>
</glyph>
<glyph name="Ieukran" format="2">
	<unicode hex="0404"/>
	<advance width="569"/>
	<outline>
		<contour>
			<point x="345" y="-16" type="curve" smooth="yes"/>
			<point x="404" y="-16"/>
			<point x="463" y="-4"/>
			<point x="515" y="28" type="curve"/>
			<point x="525" y="191" type="line"/>
			<point x="506" y="191" type="line"/>
			<point x="438" y="16" type="line"/>
			<point x="490" y="29" type="line"/>
			<point x="491" y="54" type="line"/>
			<point x="444" y="16"/>
			<point x="392" y="7"/>
			<point x="350" y="7" type="curve" smooth="yes"/>
			<point x="239" y="7"/>
			<point x="154" y="108"/>
			<point x="154" y="331" type="curve" smooth="yes"/>
			<point x="154" y="554"/>
			<point x="245" y="655"/>
			<point x="352" y="655" type="curve" smooth="yes"/>
			<point x="395" y="655"/>
			<point x="441" y="646"/>
			<point x="489" y="609" type="curve"/>
			<point x="485" y="633" type="line"/>
			<point x="432" y="647" type="line"/>
			<point x="501" y="478" type="line"/>
			<point x="520" y="478" type="line"/>
			<point x="510" y="635" type="line"/>
			<point x="457" y="670"/>
			<point x="396" y="679"/>
			<point x="345" y="679" type="curve" smooth="yes"/>
			<point x="185" y="679"/>
			<point x="42" y="549"/>
			<point x="42" y="332" type="curve" smooth="yes"/>
			<point x="42" y="113"/>
			<point x="177" y="-16"/>
		</contour>
		<contour>
			<point x="130" y="327" type="line"/>
			<point x="343" y="327" type="line"/>
			<point x="343" y="354" type="line"/>
			<point x="130" y="354" type="line"/>
		</contour>
		<contour>
			<point x="360" y="227" type="line"/>
			<point x="378" y="227" type="line"/>
			<point x="378" y="454" type="line"/>
			<point x="360" y="454" type="line"/>
			<point x="329" y="349" type="line"/>
			<point x="329" y="331" type="line"/>
		</contour>
	</outline>
	<anchor name="aboveUC" x="344" y="684"/>
</glyph>
<glyph name="Be" format="2">
	<unicode hex="0411"/>
	<advance width="552"/>
	<outline>
		<contour>
			<point x="34" y="0" type="line"/>
			<point x="191" y="0" type="line"/>
			<point x="187" y="32" type="line"/>
			<point x="138" y="32" type="line"/>
			<point x="34" y="19" type="line"/>
		</contour>
		<contour>
			<point x="107" y="0" type="curve"/>
			<point x="219" y="0" type="line"/>
			<point x="215" y="79"/>
			<point x="214" y="208"/>
			<point x="214" y="313" type="curve" smooth="yes"/>
			<point x="214" y="357" type="line" smooth="yes"/>
			<point x="214" y="459"/>
			<point x="215" y="585"/>
			<point x="219" y="664" type="curve"/>
			<point x="107" y="664" type="line"/>
			<point x="111" y="585"/>
			<point x="111" y="459"/>
			<point x="111" y="357" type="curve" smooth="yes"/>
			<point x="111" y="313" type="line" smooth="yes"/>
			<point x="111" y="208"/>
			<point x="111" y="79"/>
		</contour>
		<contour>
			<point x="156" y="0" type="line"/>
			<point x="266" y="0" type="line" smooth="yes"/>
			<point x="454" y="0"/>
			<point x="521" y="88"/>
			<point x="521" y="192" type="curve" smooth="yes"/>
			<point x="521" y="301"/>
			<point x="446" y="371"/>
			<point x="291" y="371" type="curve" smooth="yes"/>
			<point x="244" y="371"/>
			<point x="197" y="364"/>
			<point x="156" y="356" type="curve"/>
			<point x="156" y="331" type="line"/>
			<point x="194" y="339"/>
			<point x="231" y="344"/>
			<point x="271" y="344" type="curve" smooth="yes"/>
			<point x="367" y="344"/>
			<point x="414" y="290"/>
			<point x="414" y="192" type="curve" smooth="yes"/>
			<point x="414" y="96"/>
			<point x="372" y="25"/>
			<point x="273" y="25" type="curve" smooth="yes"/>
			<point x="156" y="25" type="line"/>
		</contour>
		<contour>
			<point x="34" y="645" type="line"/>
			<point x="138" y="632" type="line"/>
			<point x="187" y="632" type="line"/>
			<point x="189" y="664" type="line"/>
			<point x="34" y="664" type="line"/>
		</contour>
		<contour>
			<point x="460" y="486" type="line"/>
			<point x="479" y="486" type="line"/>
			<point x="467" y="664" type="line"/>
			<point x="162" y="664" type="line"/>
			<point x="162" y="639" type="line"/>
			<point x="429" y="639" type="line"/>
			<point x="392" y="652" type="line"/>
		</contour>
	</outline>
</glyph>
<glyph name="De" format="2">
	<unicode hex="0414"/>
	<advance width="647"/>
	<outline>
		<contour>
			<point x="33" y="-173" type="line"/>
			<point x="52" y="-173" type="line"/>
			<point x="86" y="15" type="line"/>
			<point x="49" y="0" type="line"/>
			<point x="599" y="0" type="line"/>
			<point x="562" y="15" type="line"/>
			<point x="596" y="-173" type="line"/>
			<point x="615" y="-173" type="line"/>
			<point x="627" y="25" type="line"/>
			<point x="21" y="25" type="line"/>
		</contour>
		<contour>
			<point x="149" y="645" type="line"/>
			<point x="253" y="632" type="line"/>
			<point x="257" y="632" type="line"/>
			<point x="259" y="664" type="line"/>
			<point x="149" y="664" type="line"/>
		</contour>
		<contour>
			<point x="246" y="639" type="line"/>
			<point x="466" y="639" type="line"/>
			<point x="466" y="664" type="line"/>
			<point x="246" y="664" type="line"/>
		</contour>
		<contour>
			<point x="423" y="0" type="curve"/>
			<point x="535" y="0" type="line"/>
			<point x="531" y="79"/>
			<point x="531" y="208"/>
			<point x="531" y="313" type="curve" smooth="yes"/>
			<point x="531" y="357" type="line" smooth="yes"/>
			<point x="531" y="459"/>
			<point x="531" y="585"/>
			<point x="535" y="664" type="curve"/>
			<point x="423" y="664" type="line"/>
			<point x="427" y="585"/>
			<point x="428" y="459"/>
			<point x="428" y="357" type="curve" smooth="yes"/>
			<point x="428" y="313" type="line" smooth="yes"/>
			<point x="428" y="208"/>
			<point x="427" y="79"/>
		</contour>
		<contour>
			<point x="454" y="632" type="line"/>
			<point x="503" y="632" type="line"/>
			<point x="607" y="645" type="line"/>
			<point x="607" y="664" type="line"/>
			<point x="450" y="664" type="line"/>
		</contour>
		<contour>
			<point x="97" y="24" type="curve"/>
			<point x="119" y="6" type="line"/>
			<point x="224" y="146"/>
			<point x="243" y="414"/>
			<point x="263" y="664" type="curve"/>
			<point x="233" y="664" type="line"/>
			<point x="213" y="423"/>
			<point x="196" y="157"/>
		</contour>
	</outline>
</glyph>
<glyph name="Zhe" format="2">
	<unicode hex="0416"/>
	<advance width="893"/>
	<outline>
		<contour>
			<point x="320" y="0" type="line"/>
			<point x="573" y="0" type="line"/>
			<point x="573" y="19" type="line"/>
			<point x="469" y="32" type="line"/>
			<point x="424" y="32" type="line"/>
			<point x="320" y="19" type="line"/>
		</contour>
		<contour>
			<point x="320" y="643" type="line"/>
			<point x="424" y="632" type="line"/>
			<point x="469" y="632" type="line"/>
			<point x="573" y="645" type="line"/>
			<point x="573" y="664" type="line"/>
			<point x="320" y="661" type="line"/>
		</contour>
		<contour>
			<point x="392" y="0" type="curve"/>
			<point x="501" y="0" type="line"/>
			<point x="497" y="79"/>
			<point x="496" y="208"/>
			<point x="496" y="313" type="curve" smooth="yes"/>
			<point x="496" y="357" type="line" smooth="yes"/>
			<point x="496" y="459"/>
			<point x="497" y="585"/>
			<point x="501" y="664" type="curve"/>
			<point x="392" y="664" type="line"/>
			<point x="396" y="585"/>
			<point x="397" y="459"/>
			<point x="397" y="357" type="curve" smooth="yes"/>
			<point x="397" y="313" type="line" smooth="yes"/>
			<point x="397" y="208"/>
			<point x="396" y="79"/>
		</contour>
		<contour>
			<point x="687" y="67" type="line" smooth="yes"/>
			<point x="707" y="11"/>
			<point x="734" y="-9"/>
			<point x="805" y="-9" type="curve" smooth="yes"/>
			<point x="836" y="-9"/>
			<point x="860" y="-6"/>
			<point x="884" y="0" type="curve"/>
			<point x="884" y="19" type="line"/>
			<point x="777" y="31" type="line"/>
			<point x="824" y="15" type="line"/>
			<point x="741" y="202" type="line" smooth="yes"/>
			<point x="700" y="300"/>
			<point x="645" y="343"/>
			<point x="525" y="343" type="curve"/>
			<point x="524" y="331" type="line"/>
			<point x="610" y="339"/>
			<point x="636" y="380"/>
			<point x="675" y="476" type="curve" smooth="yes"/>
			<point x="700" y="538"/>
			<point x="715" y="584"/>
			<point x="747" y="624" type="curve"/>
			<point x="721" y="599" type="line"/>
			<point x="738" y="588"/>
			<point x="765" y="570"/>
			<point x="799" y="570" type="curve" smooth="yes"/>
			<point x="831" y="570"/>
			<point x="857" y="590"/>
			<point x="857" y="624" type="curve" smooth="yes"/>
			<point x="857" y="656"/>
			<point x="833" y="674"/>
			<point x="808" y="680" type="curve"/>
			<point x="734" y="680"/>
			<point x="706" y="633"/>
			<point x="650" y="487" type="curve" smooth="yes"/>
			<point x="612" y="389"/>
			<point x="587" y="352"/>
			<point x="509" y="352" type="curve" smooth="yes"/>
			<point x="449" y="352" type="line"/>
			<point x="449" y="327" type="line"/>
			<point x="507" y="327" type="line" smooth="yes"/>
			<point x="575" y="327"/>
			<point x="595" y="298"/>
			<point x="624" y="226" type="curve" smooth="yes"/>
		</contour>
		<contour>
			<point x="204" y="67" type="curve" smooth="yes"/>
			<point x="267" y="226" type="line" smooth="yes"/>
			<point x="296" y="298"/>
			<point x="318" y="327"/>
			<point x="386" y="327" type="curve" smooth="yes"/>
			<point x="445" y="327" type="line"/>
			<point x="445" y="352" type="line"/>
			<point x="384" y="352" type="line" smooth="yes"/>
			<point x="306" y="352"/>
			<point x="281" y="389"/>
			<point x="243" y="487" type="curve" smooth="yes"/>
			<point x="188" y="633"/>
			<point x="159" y="680"/>
			<point x="85" y="680" type="curve"/>
			<point x="61" y="674"/>
			<point x="36" y="656"/>
			<point x="36" y="624" type="curve" smooth="yes"/>
			<point x="36" y="590"/>
			<point x="62" y="570"/>
			<point x="94" y="570" type="curve" smooth="yes"/>
			<point x="128" y="570"/>
			<point x="155" y="588"/>
			<point x="173" y="599" type="curve"/>
			<point x="147" y="624" type="line"/>
			<point x="178" y="584"/>
			<point x="194" y="538"/>
			<point x="218" y="476" type="curve" smooth="yes"/>
			<point x="257" y="380"/>
			<point x="283" y="339"/>
			<point x="369" y="331" type="curve"/>
			<point x="368" y="343" type="line"/>
			<point x="248" y="343"/>
			<point x="194" y="300"/>
			<point x="152" y="202" type="curve" smooth="yes"/>
			<point x="69" y="15" type="line"/>
			<point x="116" y="31" type="line"/>
			<point x="9" y="19" type="line"/>
			<point x="9" y="0" type="line"/>
			<point x="33" y="-6"/>
			<point x="58" y="-9"/>
			<point x="89" y="-9" type="curve" smooth="yes"/>
			<point x="159" y="-9"/>
			<point x="184" y="11"/>
		</contour>
	</outline>
	<anchor name="aboveUC" x="447" y="684"/>
</glyph>
<glyph name="Icyr" format="2">
	<unicode hex="0418"/>
	<advance width="705"/>
	<outline>
		<contour>
			<point x="107" y="0" type="curve"/>
			<point x="214" y="0" type="line"/>
			<point x="214" y="313" type="line" smooth="yes"/>
			<point x="214" y="430"/>
			<point x="214" y="548"/>
			<point x="214" y="664" type="curve"/>
			<point x="107" y="664" type="line"/>
			<point x="111" y="585"/>
			<point x="111" y="459"/>
			<point x="111" y="357" type="curve" smooth="yes"/>
			<point x="111" y="313" type="line" smooth="yes"/>
			<point x="111" y="208"/>
			<point x="111" y="79"/>
		</contour>
		<contour>
			<point x="490" y="0" type="curve"/>
			<point x="598" y="0" type="line"/>
			<point x="594" y="79"/>
			<point x="594" y="208"/>
			<point x="594" y="313" type="curve" smooth="yes"/>
			<point x="594" y="357" type="line" smooth="yes"/>
			<point x="594" y="459"/>
			<point x="594" y="585"/>
			<point x="598" y="664" type="curve"/>
			<point x="490" y="664" type="line"/>
			<point x="490" y="357" type="line" smooth="yes"/>
			<point x="490" y="238"/>
			<point x="490" y="119"/>
		</contour>
		<contour>
			<point x="34" y="0" type="line"/>
			<point x="291" y="0" type="line"/>
			<point x="291" y="19" type="line"/>
			<point x="187" y="32" type="line"/>
			<point x="138" y="32" type="line"/>
			<point x="34" y="19" type="line"/>
		</contour>
		<contour>
			<point x="34" y="645" type="line"/>
			<point x="138" y="632" type="line"/>
			<point x="187" y="632" type="line"/>
			<point x="291" y="645" type="line"/>
			<point x="291" y="664" type="line"/>
			<point x="34" y="664" type="line"/>
		</contour>
		<contour>
			<point x="414" y="0" type="line"/>
			<point x="671" y="0" type="line"/>
			<point x="671" y="19" type="line"/>
			<point x="567" y="32" type="line"/>
			<point x="518" y="32" type="line"/>
			<point x="414" y="19" type="line"/>
		</contour>
		<contour>
			<point x="414" y="645" type="line"/>
			<point x="518" y="632" type="line"/>
			<point x="567" y="632" type="line"/>
			<point x="671" y="645" type="line"/>
			<point x="671" y="664" type="line"/>
			<point x="414" y="664" type="line"/>
		</contour>
		<contour>
			<point x="176" y="55" type="line"/>
			<point x="353" y="313" type="line"/>
			<point x="530" y="570" type="line"/>
			<point x="538" y="570" type="line"/>
			<point x="530" y="618" type="line"/>
			<point x="353" y="360" type="line"/>
			<point x="176" y="103" type="line"/>
			<point x="168" y="103" type="line"/>
		</contour>
	</outline>
	<anchor name="aboveUC" x="353" y="684"/>
</glyph>
<glyph name="Ucyr" format="2">
	<unicode hex="0423"/>
	<advance width="609"/>
	<outline>
		<contour>
			<point x="107" y="0" type="curve"/>
			<point x="109" y="-37"/>
			<point x="136" y="-62"/>
			<point x="180" y="-62" type="curve" smooth="yes"/>
			<point x="251" y="-62"/>
			<point x="292" y="8"/>
			<point x="332" y="110" type="curve" smooth="yes"/>
			<point x="546" y="664" type="line"/>
			<point x="515" y="664" type="line"/>
			<point x="426" y="432" type="line"/>
			<point x="309" y="125" type="line"/>
			<point x="308" y="125" type="line"/>
			<point x="275" y="39"/>
			<point x="257" y="0"/>
			<point x="210" y="-12" type="curve"/>
			<point x="200" y="-31" type="line"/>
			<point x="248" y="-7" type="line"/>
			<point x="219" y="33"/>
			<point x="197" y="49"/>
			<point x="168" y="49" type="curve" smooth="yes"/>
			<point x="137" y="49"/>
			<point x="112" y="31"/>
		</contour>
		<contour>
			<point x="12" y="645" type="line"/>
			<point x="96" y="632" type="line"/>
			<point x="160" y="632" type="line"/>
			<point x="265" y="645" type="line"/>
			<point x="265" y="664" type="line"/>
			<point x="12" y="664" type="line"/>
		</contour>
		<contour>
			<point x="425" y="645" type="line"/>
			<point x="512" y="635" type="line"/>
			<point x="524" y="635" type="line"/>
			<point x="597" y="645" type="line"/>
			<point x="597" y="664" type="line"/>
			<point x="425" y="664" type="line"/>
		</contour>
		<contour>
			<point x="301" y="82" type="line"/>
			<point x="354" y="206" type="line"/>
			<point x="176" y="664" type="line"/>
			<point x="63" y="664" type="line"/>
		</contour>
	</outline>
	<anchor name="aboveUC" x="344" y="684"/>
</glyph>
<glyph name="Tse" format="2">
	<unicode hex="0426"/>
	<advance width="685"/>
	<outline>
		<contour>
			<point x="105" y="0" type="curve"/>
			<point x="217" y="0" type="line"/>
			<point x="213" y="79"/>
			<point x="213" y="208"/>
			<point x="213" y="313" type="curve" smooth="yes"/>
			<point x="213" y="357" type="line" smooth="yes"/>
			<point x="213" y="459"/>
			<point x="213" y="585"/>
			<point x="217" y="664" type="curve"/>
			<point x="106" y="664" type="line"/>
			<point x="110" y="585"/>
			<point x="110" y="459"/>
			<point x="110" y="357" type="curve" smooth="yes"/>
			<point x="110" y="313" type="line" smooth="yes"/>
			<point x="110" y="208"/>
			<point x="109" y="79"/>
		</contour>
		<contour>
			<point x="461" y="0" type="curve"/>
			<point x="573" y="0" type="line"/>
			<point x="569" y="79"/>
			<point x="569" y="208"/>
			<point x="569" y="313" type="curve" smooth="yes"/>
			<point x="569" y="357" type="line" smooth="yes"/>
			<point x="569" y="459"/>
			<point x="569" y="585"/>
			<point x="573" y="664" type="curve"/>
			<point x="461" y="664" type="line"/>
			<point x="465" y="585"/>
			<point x="465" y="459"/>
			<point x="465" y="357" type="curve" smooth="yes"/>
			<point x="465" y="313" type="line" smooth="yes"/>
			<point x="465" y="208"/>
			<point x="465" y="79"/>
		</contour>
		<contour>
			<point x="160" y="0" type="line"/>
			<point x="637" y="0" type="line"/>
			<point x="600" y="15" type="line"/>
			<point x="634" y="-173" type="line"/>
			<point x="653" y="-173" type="line"/>
			<point x="665" y="25" type="line"/>
			<point x="160" y="25" type="line"/>
		</contour>
		<contour>
			<point x="33" y="645" type="line"/>
			<point x="137" y="632" type="line"/>
			<point x="186" y="632" type="line"/>
			<point x="290" y="645" type="line"/>
			<point x="290" y="664" type="line"/>
			<point x="33" y="664" type="line"/>
		</contour>
		<contour>
			<point x="388" y="645" type="line"/>
			<point x="492" y="632" type="line"/>
			<point x="541" y="632" type="line"/>
			<point x="645" y="645" type="line"/>
			<point x="645" y="664" type="line"/>
			<point x="388" y="664" type="line"/>
		</contour>
		<contour>
			<point x="33" y="0" type="line"/>
			<point x="190" y="0" type="line"/>
			<point x="186" y="32" type="line"/>
			<point x="137" y="32" type="line"/>
			<point x="33" y="19" type="line"/>
		</contour>
	</outline>
	<anchor name="aboveUC" x="340" y="684"/>
</glyph>
<glyph name="Yu" format="2">
	<unicode hex="042E"/>
	<advance width="902"/>
	<outline>
		<contour>
			<point x="107" y="0" type="curve"/>
			<point x="219" y="0" type="line"/>
			<point x="215" y="79"/>
			<point x="214" y="208"/>
			<point x="214" y="313" type="curve" smooth="yes"/>
			<point x="214" y="357" type="line" smooth="yes"/>
			<point x="214" y="459"/>
			<point x="215" y="585"/>
			<point x="219" y="664" type="curve"/>
			<point x="107" y="664" type="line"/>
			<point x="111" y="585"/>
			<point x="111" y="459"/>
			<point x="111" y="357" type="curve" smooth="yes"/>
			<point x="111" y="313" type="line" smooth="yes"/>
			<point x="111" y="208"/>
			<point x="111" y="79"/>
		</contour>
		<contour>
			<point x="34" y="0" type="line"/>
			<point x="291" y="0" type="line"/>
			<point x="291" y="19" type="line"/>
			<point x="187" y="32" type="line"/>
			<point x="138" y="32" type="line"/>
			<point x="34" y="19" type="line"/>
		</contour>
		<contour>
			<point x="34" y="645" type="line"/>
			<point x="138" y="632" type="line"/>
			<point x="187" y="632" type="line"/>
			<point x="291" y="645" type="line"/>
			<point x="291" y="664" type="line"/>
			<point x="34" y="664" type="line"/>
		</contour>
		<contour>
			<point x="148" y="326" type="line"/>
			<point x="394" y="326" type="line"/>
			<point x="394" y="352" type="line"/>
			<point x="148" y="352" type="line"/>
		</contour>
		<contour>
			<point x="601" y="-16" type="curve" smooth="yes"/>
			<point x="742" y="-16"/>
			<point x="863" y="105"/>
			<point x="863" y="330" type="curve" smooth="yes"/>
			<point x="863" y="560"/>
			<point x="742" y="680"/>
			<point x="601" y="680" type="curve" smooth="yes"/>
			<point x="460" y="680"/>
			<point x="339" y="557"/>
			<point x="339" y="333" type="curve" smooth="yes"/>
			<point x="339" y="102"/>
			<point x="459" y="-16"/>
		</contour>
		<contour>
			<point x="601" y="8" type="curve" smooth="yes"/>
			<point x="496" y="8"/>
			<point x="452" y="148"/>
			<point x="452" y="333" type="curve" smooth="yes"/>
			<point x="452" y="519"/>
			<point x="496" y="656"/>
			<point x="601" y="656" type="curve" smooth="yes"/>
			<point x="706" y="656"/>
			<point x="750" y="515"/>
			<point x="750" y="330" type="curve" smooth="yes"/>
			<point x="750" y="145"/>
			<point x="706" y="8"/>
		</contour>
	</outline>
	<anchor name="aboveUC" x="387" y="684"/>
</glyph>
<glyph name="be" format="2">
	<unicode hex="0431"/>
	<advance width="523"/>
	<outline>
		<contour>
			<point x="266" y="-13" type="curve" smooth="yes"/>
			<point x="384" y="-13"/>
			<point x="482" y="77"/>
			<point x="482" y="225" type="curve" smooth="yes"/>
			<point x="482" y="372"/>
			<point x="396" y="454"/>
			<point x="273" y="454" type="curve" smooth="yes"/>
			<point x="171" y="454"/>
			<point x="86" y="390"/>
			<point x="72" y="270" type="curve"/>
			<point x="74" y="278" type="line"/>
			<point x="82" y="436"/>
			<point x="86" y="531"/>
			<point x="145" y="571" type="curve" smooth="yes"/>
			<point x="180" y="596"/>
			<point x="235" y="604"/>
			<point x="321" y="617" type="curve" smooth="yes"/>
			<point x="380" y="626"/>
			<point x="420" y="630"/>
			<point x="443" y="649" type="curve" smooth="yes"/>
			<point x="467" y="668"/>
			<point x="472" y="719"/>
			<point x="476" y="778" type="curve"/>
			<point x="461" y="781" type="line"/>
			<point x="442" y="735" type="line"/>
			<point x="405" y="730"/>
			<point x="347" y="721"/>
			<point x="310" y="715" type="curve" smooth="yes"/>
			<point x="228" y="703"/>
			<point x="173" y="682"/>
			<point x="134" y="644" type="curve" smooth="yes"/>
			<point x="67" y="580"/>
			<point x="49" y="449"/>
			<point x="49" y="289" type="curve" smooth="yes"/>
			<point x="49" y="65"/>
			<point x="135" y="-13"/>
		</contour>
		<contour>
			<point x="266" y="10" type="curve" smooth="yes"/>
			<point x="196" y="10"/>
			<point x="154" y="72"/>
			<point x="154" y="219" type="curve" smooth="yes"/>
			<point x="154" y="367"/>
			<point x="198" y="431"/>
			<point x="269" y="431" type="curve" smooth="yes"/>
			<point x="338" y="431"/>
			<point x="377" y="369"/>
			<point x="377" y="221" type="curve" smooth="yes"/>
			<point x="377" y="74"/>
			<point x="335" y="10"/>
		</contour>
	</outline>
</glyph>
<glyph name="ve" format="2">
	<unicode hex="0432"/>
	<advance width="475"/>
	<outline>
		<contour>
			<point x="30" y="0" type="line"/>
			<point x="262" y="0" type="line"/>
			<point x="380" y="0"/>
			<point x="450" y="51"/>
			<point x="450" y="125" type="curve" smooth="yes"/>
			<point x="450" y="193"/>
			<point x="393" y="239"/>
			<point x="278" y="241" type="curve"/>
			<point x="281" y="237" type="line"/>
			<point x="383" y="240"/>
			<point x="429" y="286"/>
			<point x="429" y="348" type="curve" smooth="yes"/>
			<point x="429" y="411"/>
			<point x="382" y="455"/>
			<point x="267" y="455" type="curve"/>
			<point x="30" y="455" type="line"/>
			<point x="30" y="436" type="line"/>
			<point x="121" y="423" type="line"/>
			<point x="160" y="431" type="line"/>
			<point x="240" y="431" type="line"/>
			<point x="299" y="431"/>
			<point x="335" y="405"/>
			<point x="335" y="343" type="curve" smooth="yes"/>
			<point x="335" y="279"/>
			<point x="300" y="247"/>
			<point x="232" y="247" type="curve" smooth="yes"/>
			<point x="168" y="247" type="line"/>
			<point x="168" y="223" type="line"/>
			<point x="235" y="223" type="line" smooth="yes"/>
			<point x="314" y="223"/>
			<point x="353" y="192"/>
			<point x="353" y="123" type="curve" smooth="yes"/>
			<point x="353" y="58"/>
			<point x="311" y="24"/>
			<point x="237" y="24" type="curve"/>
			<point x="150" y="24" type="line"/>
			<point x="121" y="32" type="line"/>
			<point x="30" y="19" type="line"/>
		</contour>
		<contour>
			<point x="91" y="0" type="curve"/>
			<point x="198" y="0" type="line"/>
			<point x="194" y="47"/>
			<point x="193" y="142"/>
			<point x="193" y="205" type="curve" smooth="yes"/>
			<point x="193" y="249" type="line" smooth="yes"/>
			<point x="193" y="313"/>
			<point x="194" y="408"/>
			<point x="198" y="455" type="curve"/>
			<point x="91" y="455" type="line"/>
			<point x="95" y="408"/>
			<point x="95" y="313"/>
			<point x="95" y="249" type="curve" smooth="yes"/>
			<point x="95" y="205" type="line" smooth="yes"/>
			<point x="95" y="142"/>
			<point x="95" y="47"/>
		</contour>
	</outline>
</glyph>
<glyph name="de" format="2">
	<unicode hex="0434"/>
	<advance width="535"/>
	<outline>
		<contour>
			<point x="482" y="0" type="line"/>
			<point x="447" y="15" type="line"/>
			<point x="479" y="-161" type="line"/>
			<point x="498" y="-161" type="line"/>
			<point x="510" y="24" type="line"/>
			<point x="25" y="24" type="line"/>
			<point x="37" y="-161" type="line"/>
			<point x="56" y="-161" type="line"/>
			<point x="88" y="15" type="line"/>
			<point x="53" y="0" type="line"/>
		</contour>
		<contour>
			<point x="326" y="0" type="curve"/>
			<point x="433" y="0" type="line"/>
			<point x="429" y="47"/>
			<point x="429" y="142"/>
			<point x="429" y="205" type="curve" smooth="yes"/>
			<point x="429" y="249" type="line" smooth="yes"/>
			<point x="429" y="313"/>
			<point x="429" y="408"/>
			<point x="433" y="455" type="curve"/>
			<point x="326" y="455" type="line"/>
			<point x="330" y="408"/>
			<point x="331" y="313"/>
			<point x="331" y="249" type="curve" smooth="yes"/>
			<point x="331" y="205" type="line" smooth="yes"/>
			<point x="331" y="142"/>
			<point x="330" y="47"/>
		</contour>
		<contour>
			<point x="115" y="436" type="line"/>
			<point x="203" y="423" type="line"/>
			<point x="205" y="423" type="line"/>
			<point x="205" y="455" type="line"/>
			<point x="115" y="455" type="line"/>
		</contour>
		<contour>
			<point x="359" y="423" type="line"/>
			<point x="401" y="423" type="line"/>
			<point x="493" y="436" type="line"/>
			<point x="493" y="455" type="line"/>
			<point x="359" y="455" type="line"/>
		</contour>
		<contour>
			<point x="77" y="19" type="curve"/>
			<point x="109" y="9" type="line"/>
			<point x="109" y="15" type="line"/>
			<point x="135" y="43"/>
			<point x="154" y="89"/>
			<point x="169" y="145" type="curve" smooth="yes"/>
			<point x="194" y="237"/>
			<point x="206" y="355"/>
			<point x="214" y="455" type="curve"/>
			<point x="186" y="455" type="line"/>
			<point x="172" y="298"/>
			<point x="156" y="102"/>
		</contour>
		<contour>
			<point x="199" y="431" type="line"/>
			<point x="393" y="431" type="line"/>
			<point x="393" y="455" type="line"/>
			<point x="199" y="455" type="line"/>
		</contour>
	</outline>
</glyph>
<glyph name="ka" format="2">
	<unicode hex="043A"/>
	<advance width="521"/>
	<outline>
		<contour>
			<point x="30" y="0" type="line"/>
			<point x="258" y="0" type="line"/>
			<point x="258" y="19" type="line"/>
			<point x="167" y="32" type="line"/>
			<point x="121" y="32" type="line"/>
			<point x="30" y="19" type="line"/>
		</contour>
		<contour>
			<point x="30" y="436" type="line"/>
			<point x="121" y="423" type="line"/>
			<point x="167" y="423" type="line"/>
			<point x="258" y="436" type="line"/>
			<point x="258" y="455" type="line"/>
			<point x="30" y="455" type="line"/>
		</contour>
		<contour>
			<point x="91" y="0" type="curve"/>
			<point x="198" y="0" type="line"/>
			<point x="194" y="47"/>
			<point x="193" y="142"/>
			<point x="193" y="205" type="curve" smooth="yes"/>
			<point x="193" y="249" type="line" smooth="yes"/>
			<point x="193" y="313"/>
			<point x="194" y="408"/>
			<point x="198" y="455" type="curve"/>
			<point x="91" y="455" type="line"/>
			<point x="95" y="408"/>
			<point x="95" y="313"/>
			<point x="95" y="249" type="curve" smooth="yes"/>
			<point x="95" y="205" type="line" smooth="yes"/>
			<point x="95" y="142"/>
			<point x="95" y="47"/>
		</contour>
		<contour>
			<point x="338" y="58" type="line" smooth="yes"/>
			<point x="354" y="4"/>
			<point x="381" y="-9"/>
			<point x="435" y="-9" type="curve" smooth="yes"/>
			<point x="460" y="-9"/>
			<point x="489" y="-5"/>
			<point x="509" y="0" type="curve"/>
			<point x="509" y="19" type="line"/>
			<point x="390" y="35" type="line"/>
			<point x="462" y="7" type="line"/>
			<point x="416" y="121" type="line" smooth="yes"/>
			<point x="387" y="192"/>
			<point x="347" y="235"/>
			<point x="231" y="237" type="curve"/>
			<point x="242" y="226" type="line"/>
			<point x="298" y="234"/>
			<point x="320" y="263"/>
			<point x="350" y="337" type="curve" smooth="yes"/>
			<point x="361" y="360"/>
			<point x="373" y="387"/>
			<point x="388" y="408" type="curve"/>
			<point x="363" y="390" type="line"/>
			<point x="378" y="379"/>
			<point x="402" y="363"/>
			<point x="433" y="363" type="curve" smooth="yes"/>
			<point x="462" y="363"/>
			<point x="484" y="381"/>
			<point x="484" y="412" type="curve" smooth="yes"/>
			<point x="484" y="437"/>
			<point x="469" y="454"/>
			<point x="441" y="462" type="curve"/>
			<point x="381" y="458"/>
			<point x="361" y="431"/>
			<point x="329" y="349" type="curve" smooth="yes"/>
			<point x="299" y="273"/>
			<point x="275" y="246"/>
			<point x="233" y="246" type="curve" smooth="yes"/>
			<point x="158" y="246" type="line"/>
			<point x="158" y="221" type="line"/>
			<point x="222" y="221" type="line" smooth="yes"/>
			<point x="278" y="221"/>
			<point x="296" y="190"/>
			<point x="309" y="150" type="curve" smooth="yes"/>
		</contour>
	</outline>
	<anchor name="aboveLC" x="275" y="475"/>
</glyph>
<glyph name="en" format="2">
	<unicode hex="043D"/>
	<advance width="579"/>
	<outline>
		<contour>
			<point x="91" y="0" type="curve"/>
			<point x="198" y="0" type="line"/>
			<point x="194" y="47"/>
			<point x="193" y="142"/>
			<point x="193" y="205" type="curve" smooth="yes"/>
			<point x="193" y="249" type="line" smooth="yes"/>
			<point x="193" y="313"/>
			<point x="194" y="408"/>
			<point x="198" y="455" type="curve"/>
			<point x="91" y="455" type="line"/>
			<point x="95" y="408"/>
			<point x="95" y="313"/>
			<point x="95" y="249" type="curve" smooth="yes"/>
			<point x="95" y="205" type="line" smooth="yes"/>
			<point x="95" y="142"/>
			<point x="95" y="47"/>
		</contour>
		<contour>
			<point x="381" y="0" type="curve"/>
			<point x="489" y="0" type="line"/>
			<point x="485" y="47"/>
			<point x="484" y="142"/>
			<point x="484" y="205" type="curve" smooth="yes"/>
			<point x="484" y="249" type="line" smooth="yes"/>
			<point x="484" y="313"/>
			<point x="485" y="408"/>
			<point x="489" y="455" type="curve"/>
			<point x="381" y="455" type="line"/>
			<point x="385" y="408"/>
			<point x="385" y="313"/>
			<point x="385" y="249" type="curve" smooth="yes"/>
			<point x="385" y="205" type="line" smooth="yes"/>
			<point x="385" y="142"/>
			<point x="385" y="47"/>
		</contour>
		<contour>
			<point x="30" y="0" type="line"/>
			<point x="257" y="0" type="line"/>
			<point x="257" y="19" type="line"/>
			<point x="167" y="32" type="line"/>
			<point x="121" y="32" type="line"/>
			<point x="30" y="19" type="line"/>
		</contour>
		<contour>
			<point x="30" y="436" type="line"/>
			<point x="121" y="423" type="line"/>
			<point x="167" y="423" type="line"/>
			<point x="257" y="436" type="line"/>
			<point x="257" y="455" type="line"/>
			<point x="30" y="455" type="line"/>
		</contour>
		<contour>
			<point x="322" y="0" type="line"/>
			<point x="549" y="0" type="line"/>
			<point x="549" y="19" type="line"/>
			<point x="458" y="32" type="line"/>
			<point x="411" y="32" type="line"/>
			<point x="322" y="19" type="line"/>
		</contour>
		<contour>
			<point x="322" y="436" type="line"/>
			<point x="411" y="423" type="line"/>
			<point x="458" y="423" type="line"/>
			<point x="549" y="436" type="line"/>
			<point x="549" y="455" type="line"/>
			<point x="322" y="455" type="line"/>
		</contour>
		<contour>
			<point x="161" y="216" type="line"/>
			<point x="412" y="216" type="line"/>
			<point x="412" y="242" type="line"/>
			<point x="161" y="242" type="line"/>
		</contour>
	</outline>
</glyph>
<glyph name="pe" format="2">
	<unicode hex="043F"/>
	<advance width="572"/>
	<outline>
		<contour>
			<point x="91" y="0" type="curve"/>
			<point x="198" y="0" type="line"/>
			<point x="194" y="47"/>
			<point x="193" y="142"/>
			<point x="193" y="205" type="curve" smooth="yes"/>
			<point x="193" y="249" type="line" smooth="yes"/>
			<point x="193" y="313"/>
			<point x="194" y="408"/>
			<point x="198" y="455" type="curve"/>
			<point x="91" y="455" type="line"/>
			<point x="95" y="408"/>
			<point x="95" y="313"/>
			<point x="95" y="249" type="curve" smooth="yes"/>
			<point x="95" y="205" type="line" smooth="yes"/>
			<point x="95" y="142"/>
			<point x="95" y="47"/>
		</contour>
		<contour>
			<point x="375" y="0" type="curve"/>
			<point x="482" y="0" type="line"/>
			<point x="478" y="47"/>
			<point x="477" y="142"/>
			<point x="477" y="205" type="curve" smooth="yes"/>
			<point x="477" y="249" type="line" smooth="yes"/>
			<point x="477" y="313"/>
			<point x="478" y="408"/>
			<point x="482" y="455" type="curve"/>
			<point x="375" y="455" type="line"/>
			<point x="379" y="408"/>
			<point x="379" y="313"/>
			<point x="379" y="249" type="curve" smooth="yes"/>
			<point x="379" y="205" type="line" smooth="yes"/>
			<point x="379" y="142"/>
			<point x="379" y="47"/>
		</contour>
		<contour>
			<point x="30" y="0" type="line"/>
			<point x="251" y="0" type="line"/>
			<point x="251" y="19" type="line"/>
			<point x="163" y="32" type="line"/>
			<point x="121" y="32" type="line"/>
			<point x="30" y="19" type="line"/>
		</contour>
		<contour>
			<point x="321" y="0" type="line"/>
			<point x="542" y="0" type="line"/>
			<point x="542" y="19" type="line"/>
			<point x="451" y="32" type="line"/>
			<point x="410" y="32" type="line"/>
			<point x="321" y="19" type="line"/>
		</contour>
		<contour>
			<point x="30" y="436" type="line"/>
			<point x="121" y="423" type="line"/>
			<point x="165" y="423" type="line"/>
			<point x="165" y="455" type="line"/>
			<point x="30" y="455" type="line"/>
		</contour>
		<contour>
			<point x="407" y="423" type="line"/>
			<point x="451" y="423" type="line"/>
			<point x="542" y="436" type="line"/>
			<point x="542" y="455" type="line"/>
			<point x="407" y="455" type="line"/>
		</contour>
		<contour>
			<point x="161" y="431" type="line"/>
			<point x="406" y="431" type="line"/>
			<point x="406" y="455" type="line"/>
			<point x="161" y="455" type="line"/>
		</contour>
	</outline>
</glyph>
<glyph name="te" format="2">
	<unicode hex="0442"/>
	<advance width="467"/>
	<outline>
		<contour>
			<point x="18" y="295" type="line"/>
			<point x="37" y="295" type="line"/>
			<point x="101" y="443" type="line"/>
			<point x="69" y="431" type="line"/>
			<point x="399" y="431" type="line"/>
			<point x="366" y="443" type="line"/>
			<point x="430" y="295" type="line"/>
			<point x="449" y="295" type="line"/>
			<point x="437" y="455" type="line"/>
			<point x="30" y="455" type="line"/>
		</contour>
		<contour>
			<point x="112" y="0" type="line"/>
			<point x="355" y="0" type="line"/>
			<point x="355" y="19" type="line"/>
			<point x="257" y="32" type="line"/>
			<point x="210" y="32" type="line"/>
			<point x="112" y="19" type="line"/>
		</contour>
		<contour>
			<point x="180" y="0" type="curve"/>
			<point x="287" y="0" type="line"/>
			<point x="283" y="47"/>
			<point x="282" y="142"/>
			<point x="282" y="205" type="curve" smooth="yes"/>
			<point x="282" y="249" type="line" smooth="yes"/>
			<point x="282" y="313"/>
			<point x="283" y="408"/>
			<point x="287" y="455" type="curve"/>
			<point x="180" y="455" type="line"/>
			<point x="184" y="408"/>
			<point x="185" y="313"/>
			<point x="185" y="249" type="curve" smooth="yes"/>
			<point x="185" y="205" type="line" smooth="yes"/>
			<point x="185" y="142"/>
			<point x="184" y="47"/>
		</contour>
	</outline>
</glyph>
